G04 Layer_Color=2752767*
%FSLAX24Y24*%
%MOIN*%
G70*
G01*
G75*
%ADD10C,0.0100*%
%ADD158C,0.0020*%
%ADD159C,0.0027*%
%ADD160C,0.0013*%
D10*
X85827Y-31449D02*
Y-2D01*
X85780Y-31496D02*
X85827Y-31449D01*
X0Y-31496D02*
X85780D01*
X0Y-2D02*
X85827D01*
X0Y-31496D02*
Y-2D01*
D158*
X78460Y-12202D02*
Y-12042D01*
X78620D01*
Y-12202D01*
X78460D01*
X79720Y-11197D02*
Y-11037D01*
X79880D01*
Y-11197D01*
X79720D01*
X80420Y-9744D02*
Y-9584D01*
X80580D01*
Y-9744D01*
X80420D01*
X80420Y-8132D02*
Y-7972D01*
X80580D01*
Y-8132D01*
X80420D01*
X79720Y-6680D02*
Y-6520D01*
X79880D01*
Y-6680D01*
X79720D01*
X78460Y-5675D02*
Y-5515D01*
X78620D01*
Y-5675D01*
X78460D01*
X76888Y-5316D02*
Y-5156D01*
X77049D01*
Y-5316D01*
X76888D01*
X75317Y-5675D02*
Y-5515D01*
X75477D01*
Y-5675D01*
X75317D01*
X74057Y-6680D02*
Y-6520D01*
X74217D01*
Y-6680D01*
X74057D01*
X73357Y-8132D02*
Y-7972D01*
X73517D01*
Y-8132D01*
X73357D01*
X73357Y-9744D02*
Y-9584D01*
X73517D01*
Y-9744D01*
X73357D01*
X74057Y-11197D02*
Y-11037D01*
X74217D01*
Y-11197D01*
X74057D01*
X76888Y-12560D02*
Y-12400D01*
X77049D01*
Y-12560D01*
X76888D01*
X66255Y-12202D02*
Y-12042D01*
X66415D01*
Y-12202D01*
X66255D01*
X67516Y-11197D02*
Y-11037D01*
X67676D01*
Y-11197D01*
X67516D01*
X68215Y-9744D02*
Y-9584D01*
X68375D01*
Y-9744D01*
X68215D01*
X68215Y-8132D02*
Y-7972D01*
X68375D01*
Y-8132D01*
X68215D01*
X67516Y-6680D02*
Y-6520D01*
X67676D01*
Y-6680D01*
X67516D01*
X66255Y-5675D02*
Y-5515D01*
X66415D01*
Y-5675D01*
X66255D01*
X64684Y-5316D02*
Y-5156D01*
X64844D01*
Y-5316D01*
X64684D01*
X63112Y-5675D02*
Y-5515D01*
X63272D01*
Y-5675D01*
X63112D01*
X61852Y-6680D02*
Y-6520D01*
X62012D01*
Y-6680D01*
X61852D01*
X61153Y-8132D02*
Y-7972D01*
X61313D01*
Y-8132D01*
X61153D01*
X61153Y-9744D02*
Y-9584D01*
X61313D01*
Y-9744D01*
X61153D01*
X61852Y-11197D02*
Y-11037D01*
X62012D01*
Y-11197D01*
X61852D01*
X64684Y-12560D02*
Y-12400D01*
X64844D01*
Y-12560D01*
X64684D01*
X50507Y-12202D02*
Y-12042D01*
X50667D01*
Y-12202D01*
X50507D01*
X51768Y-11197D02*
Y-11037D01*
X51928D01*
Y-11197D01*
X51768D01*
X52467Y-9744D02*
Y-9584D01*
X52627D01*
Y-9744D01*
X52467D01*
X52467Y-8132D02*
Y-7972D01*
X52627D01*
Y-8132D01*
X52467D01*
X51768Y-6680D02*
Y-6520D01*
X51928D01*
Y-6680D01*
X51768D01*
X50507Y-5675D02*
Y-5515D01*
X50667D01*
Y-5675D01*
X50507D01*
X48936Y-5316D02*
Y-5156D01*
X49096D01*
Y-5316D01*
X48936D01*
X47364Y-5675D02*
Y-5515D01*
X47524D01*
Y-5675D01*
X47364D01*
X46104Y-6680D02*
Y-6520D01*
X46264D01*
Y-6680D01*
X46104D01*
X45405Y-8132D02*
Y-7972D01*
X45565D01*
Y-8132D01*
X45405D01*
X45405Y-9744D02*
Y-9584D01*
X45565D01*
Y-9744D01*
X45405D01*
X46104Y-11197D02*
Y-11037D01*
X46264D01*
Y-11197D01*
X46104D01*
X48936Y-12560D02*
Y-12400D01*
X49096D01*
Y-12560D01*
X48936D01*
X38303Y-12202D02*
Y-12042D01*
X38463D01*
Y-12202D01*
X38303D01*
X39563Y-11197D02*
Y-11037D01*
X39723D01*
Y-11197D01*
X39563D01*
X40262Y-9744D02*
Y-9584D01*
X40422D01*
Y-9744D01*
X40262D01*
X40262Y-8132D02*
Y-7972D01*
X40422D01*
Y-8132D01*
X40262D01*
X39563Y-6680D02*
Y-6520D01*
X39723D01*
Y-6680D01*
X39563D01*
X38303Y-5675D02*
Y-5515D01*
X38463D01*
Y-5675D01*
X38303D01*
X36731Y-5316D02*
Y-5156D01*
X36891D01*
Y-5316D01*
X36731D01*
X35159Y-5675D02*
Y-5515D01*
X35319D01*
Y-5675D01*
X35159D01*
X33899Y-6680D02*
Y-6520D01*
X34059D01*
Y-6680D01*
X33899D01*
X33200Y-8132D02*
Y-7972D01*
X33360D01*
Y-8132D01*
X33200D01*
X33200Y-9744D02*
Y-9584D01*
X33360D01*
Y-9744D01*
X33200D01*
X33899Y-11197D02*
Y-11037D01*
X34059D01*
Y-11197D01*
X33899D01*
X36731Y-12560D02*
Y-12400D01*
X36891D01*
Y-12560D01*
X36731D01*
X22555Y-12202D02*
Y-12042D01*
X22715D01*
Y-12202D01*
X22555D01*
X23815Y-11197D02*
Y-11037D01*
X23975D01*
Y-11197D01*
X23815D01*
X24514Y-9744D02*
Y-9584D01*
X24674D01*
Y-9744D01*
X24514D01*
X24514Y-8132D02*
Y-7972D01*
X24674D01*
Y-8132D01*
X24514D01*
X23815Y-6680D02*
Y-6520D01*
X23975D01*
Y-6680D01*
X23815D01*
X22555Y-5675D02*
Y-5515D01*
X22715D01*
Y-5675D01*
X22555D01*
X20983Y-5316D02*
Y-5156D01*
X21143D01*
Y-5316D01*
X20983D01*
X19411Y-5675D02*
Y-5515D01*
X19571D01*
Y-5675D01*
X19411D01*
X18151Y-6680D02*
Y-6520D01*
X18311D01*
Y-6680D01*
X18151D01*
X17452Y-8132D02*
Y-7972D01*
X17612D01*
Y-8132D01*
X17452D01*
X17452Y-9744D02*
Y-9584D01*
X17612D01*
Y-9744D01*
X17452D01*
X18151Y-11197D02*
Y-11037D01*
X18311D01*
Y-11197D01*
X18151D01*
X20983Y-12560D02*
Y-12400D01*
X21143D01*
Y-12560D01*
X20983D01*
X10350Y-12212D02*
Y-12052D01*
X10510D01*
Y-12212D01*
X10350D01*
X11610Y-11207D02*
Y-11047D01*
X11770D01*
Y-11207D01*
X11610D01*
X12309Y-9754D02*
Y-9594D01*
X12470D01*
Y-9754D01*
X12309D01*
X12309Y-8142D02*
Y-7982D01*
X12470D01*
Y-8142D01*
X12309D01*
X11610Y-6690D02*
Y-6530D01*
X11770D01*
Y-6690D01*
X11610D01*
X10350Y-5685D02*
Y-5525D01*
X10510D01*
Y-5685D01*
X10350D01*
X8778Y-5326D02*
Y-5166D01*
X8938D01*
Y-5326D01*
X8778D01*
X7207Y-5685D02*
Y-5525D01*
X7367D01*
Y-5685D01*
X7207D01*
X5946Y-6690D02*
Y-6530D01*
X6106D01*
Y-6690D01*
X5946D01*
X5247Y-8142D02*
Y-7982D01*
X5407D01*
Y-8142D01*
X5247D01*
X5247Y-9754D02*
Y-9594D01*
X5407D01*
Y-9754D01*
X5247D01*
X5946Y-11207D02*
Y-11047D01*
X6106D01*
Y-11207D01*
X5946D01*
X8778Y-12570D02*
Y-12410D01*
X8938D01*
Y-12570D01*
X8778D01*
X62090Y-21320D02*
X62010Y-21160D01*
X62170D01*
X62090Y-21320D01*
X63090D02*
X63010Y-21160D01*
X63170D01*
X63090Y-21320D01*
X64090D02*
X64010Y-21160D01*
X64170D01*
X64090Y-21320D01*
X65090D02*
X65010Y-21160D01*
X65170D01*
X65090Y-21320D01*
Y-24320D02*
X65010Y-24160D01*
X65170D01*
X65090Y-24320D01*
X64090D02*
X64010Y-24160D01*
X64170D01*
X64090Y-24320D01*
X63090D02*
X63010Y-24160D01*
X63170D01*
X63090Y-24320D01*
X62090D02*
X62010Y-24160D01*
X62170D01*
X62090Y-24320D01*
X31145Y-26196D02*
X31185Y-26156D01*
X31225D01*
X31185Y-26116D01*
X31225Y-26076D01*
X31185D01*
X31145Y-26036D01*
X31105Y-26076D01*
X31065D01*
X31105Y-26116D01*
X31065Y-26156D01*
X31105D01*
X31145Y-26196D01*
X32145D02*
X32185Y-26156D01*
X32225D01*
X32185Y-26116D01*
X32225Y-26076D01*
X32185D01*
X32145Y-26036D01*
X32105Y-26076D01*
X32065D01*
X32105Y-26116D01*
X32065Y-26156D01*
X32105D01*
X32145Y-26196D01*
Y-27196D02*
X32185Y-27156D01*
X32225D01*
X32185Y-27116D01*
X32225Y-27076D01*
X32185D01*
X32145Y-27036D01*
X32105Y-27076D01*
X32065D01*
X32105Y-27116D01*
X32065Y-27156D01*
X32105D01*
X32145Y-27196D01*
X33145Y-26196D02*
X33185Y-26156D01*
X33225D01*
X33185Y-26116D01*
X33225Y-26076D01*
X33185D01*
X33145Y-26036D01*
X33105Y-26076D01*
X33065D01*
X33105Y-26116D01*
X33065Y-26156D01*
X33105D01*
X33145Y-26196D01*
Y-27196D02*
X33185Y-27156D01*
X33225D01*
X33185Y-27116D01*
X33225Y-27076D01*
X33185D01*
X33145Y-27036D01*
X33105Y-27076D01*
X33065D01*
X33105Y-27116D01*
X33065Y-27156D01*
X33105D01*
X33145Y-27196D01*
X31145D02*
X31185Y-27156D01*
X31225D01*
X31185Y-27116D01*
X31225Y-27076D01*
X31185D01*
X31145Y-27036D01*
X31105Y-27076D01*
X31065D01*
X31105Y-27116D01*
X31065Y-27156D01*
X31105D01*
X31145Y-27196D01*
X2410Y-22029D02*
X2450Y-21949D01*
X2410Y-21869D01*
X2490Y-21909D01*
X2570Y-21869D01*
X2530Y-21949D01*
X2570Y-22029D01*
X2490Y-21989D01*
X2410Y-22029D01*
Y-25431D02*
X2450Y-25351D01*
X2410Y-25271D01*
X2490Y-25311D01*
X2570Y-25271D01*
X2530Y-25351D01*
X2570Y-25431D01*
X2490Y-25391D01*
X2410Y-25431D01*
X993Y-21989D02*
Y-22029D01*
X1073D01*
Y-21989D01*
X1113D01*
Y-21909D01*
X1073D01*
Y-21869D01*
X993D01*
Y-21909D01*
X953D01*
Y-21989D01*
X993D01*
Y-25391D02*
Y-25431D01*
X1073D01*
Y-25391D01*
X1113D01*
Y-25311D01*
X1073D01*
Y-25271D01*
X993D01*
Y-25311D01*
X953D01*
Y-25391D01*
X993D01*
X73420Y-21120D02*
X73460D01*
X73500Y-21080D01*
X73540Y-21120D01*
X73580D01*
Y-21080D01*
X73540Y-21040D01*
X73580Y-21000D01*
Y-20960D01*
X73540D01*
X73500Y-21000D01*
X73460Y-20960D01*
X73420D01*
Y-21000D01*
X73460Y-21040D01*
X73420Y-21080D01*
Y-21120D01*
Y-23993D02*
X73500Y-23913D01*
X73580Y-23993D01*
X73500Y-24073D01*
X73420Y-23993D01*
X990Y-17040D02*
Y-16880D01*
X1150D01*
Y-17040D01*
X990D01*
X1030Y-17000D02*
Y-16920D01*
X1110D01*
Y-17000D01*
X1030D01*
X990Y-18890D02*
Y-18730D01*
X1150D01*
Y-18890D01*
X990D01*
X1030Y-18850D02*
Y-18770D01*
X1110D01*
Y-18850D01*
X1030D01*
X2880Y-17040D02*
Y-16880D01*
X3040D01*
Y-17040D01*
X2880D01*
X2920Y-17000D02*
Y-16920D01*
X3000D01*
Y-17000D01*
X2920D01*
X2880Y-18890D02*
Y-18730D01*
X3040D01*
Y-18890D01*
X2880D01*
X2920Y-18850D02*
Y-18770D01*
X3000D01*
Y-18850D01*
X2920D01*
X990Y-20740D02*
Y-20580D01*
X1150D01*
Y-20740D01*
X990D01*
X1030Y-20700D02*
Y-20620D01*
X1110D01*
Y-20700D01*
X1030D01*
X2880Y-20740D02*
Y-20580D01*
X3040D01*
Y-20740D01*
X2880D01*
X2920Y-20700D02*
Y-20620D01*
X3000D01*
Y-20700D01*
X2920D01*
X28942Y-27160D02*
X28982Y-27120D01*
X29022D01*
X28982Y-27080D01*
X29022Y-27040D01*
X28982D01*
X28942Y-27000D01*
X28902Y-27040D01*
X28862D01*
X28902Y-27080D01*
X28862Y-27120D01*
X28902D01*
X28942Y-27160D01*
X26383D02*
X26423Y-27120D01*
X26463D01*
X26423Y-27080D01*
X26463Y-27040D01*
X26423D01*
X26383Y-27000D01*
X26343Y-27040D01*
X26303D01*
X26343Y-27080D01*
X26303Y-27120D01*
X26343D01*
X26383Y-27160D01*
Y-25389D02*
X26423Y-25349D01*
X26463D01*
X26423Y-25309D01*
X26463Y-25269D01*
X26423D01*
X26383Y-25229D01*
X26343Y-25269D01*
X26303D01*
X26343Y-25309D01*
X26303Y-25349D01*
X26343D01*
X26383Y-25389D01*
X28942D02*
X28982Y-25349D01*
X29022D01*
X28982Y-25309D01*
X29022Y-25269D01*
X28982D01*
X28942Y-25229D01*
X28902Y-25269D01*
X28862D01*
X28902Y-25309D01*
X28862Y-25349D01*
X28902D01*
X28942Y-25389D01*
X55344Y-14464D02*
X55264Y-14304D01*
X55424D01*
X55344Y-14464D01*
Y-14424D02*
X55304Y-14344D01*
X55384D01*
X55344Y-14424D01*
X57474Y-9444D02*
X57394Y-9284D01*
X57554D01*
X57474Y-9444D01*
Y-9404D02*
X57434Y-9324D01*
X57514D01*
X57474Y-9404D01*
X29270Y-13220D02*
X29190Y-13060D01*
X29350D01*
X29270Y-13220D01*
Y-13180D02*
X29230Y-13100D01*
X29310D01*
X29270Y-13180D01*
X29614Y-9514D02*
X29534Y-9354D01*
X29694D01*
X29614Y-9514D01*
Y-9474D02*
X29574Y-9394D01*
X29654D01*
X29614Y-9474D01*
X35550Y-22970D02*
X35470Y-22810D01*
X35630D01*
X35550Y-22970D01*
Y-22930D02*
X35510Y-22850D01*
X35590D01*
X35550Y-22930D01*
X12490Y-25789D02*
X12410Y-25629D01*
X12570D01*
X12490Y-25789D01*
Y-25749D02*
X12450Y-25669D01*
X12530D01*
X12490Y-25749D01*
X84430Y-30010D02*
X84470Y-29970D01*
X84510D01*
X84470Y-29930D01*
X84510Y-29890D01*
X84470D01*
X84430Y-29850D01*
X84390Y-29890D01*
X84350D01*
X84390Y-29930D01*
X84350Y-29970D01*
X84390D01*
X84430Y-30010D01*
Y-29970D02*
X84450Y-29950D01*
X84470D01*
X84450Y-29930D01*
X84470Y-29910D01*
X84450D01*
X84430Y-29890D01*
X84410Y-29910D01*
X84390D01*
X84410Y-29930D01*
X84390Y-29950D01*
X84410D01*
X84430Y-29970D01*
X1440Y-29990D02*
X1480Y-29950D01*
X1520D01*
X1480Y-29910D01*
X1520Y-29870D01*
X1480D01*
X1440Y-29830D01*
X1400Y-29870D01*
X1360D01*
X1400Y-29910D01*
X1360Y-29950D01*
X1400D01*
X1440Y-29990D01*
Y-29950D02*
X1460Y-29930D01*
X1480D01*
X1460Y-29910D01*
X1480Y-29890D01*
X1460D01*
X1440Y-29870D01*
X1420Y-29890D01*
X1400D01*
X1420Y-29910D01*
X1400Y-29930D01*
X1420D01*
X1440Y-29950D01*
X84210Y-1530D02*
X84250Y-1490D01*
X84290D01*
X84250Y-1450D01*
X84290Y-1410D01*
X84250D01*
X84210Y-1370D01*
X84170Y-1410D01*
X84130D01*
X84170Y-1450D01*
X84130Y-1490D01*
X84170D01*
X84210Y-1530D01*
Y-1490D02*
X84230Y-1470D01*
X84250D01*
X84230Y-1450D01*
X84250Y-1430D01*
X84230D01*
X84210Y-1410D01*
X84190Y-1430D01*
X84170D01*
X84190Y-1450D01*
X84170Y-1470D01*
X84190D01*
X84210Y-1490D01*
X1450Y-1760D02*
X1490Y-1720D01*
X1530D01*
X1490Y-1680D01*
X1530Y-1640D01*
X1490D01*
X1450Y-1600D01*
X1410Y-1640D01*
X1370D01*
X1410Y-1680D01*
X1370Y-1720D01*
X1410D01*
X1450Y-1760D01*
Y-1720D02*
X1470Y-1700D01*
X1490D01*
X1470Y-1680D01*
X1490Y-1660D01*
X1470D01*
X1450Y-1640D01*
X1430Y-1660D01*
X1410D01*
X1430Y-1680D01*
X1410Y-1700D01*
X1430D01*
X1450Y-1720D01*
X81279Y-27361D02*
X81319Y-27281D01*
X81279Y-27201D01*
X81359Y-27241D01*
X81439Y-27201D01*
X81399Y-27281D01*
X81439Y-27361D01*
X81359Y-27321D01*
X81279Y-27361D01*
X81319Y-27321D02*
X81339Y-27281D01*
X81319Y-27241D01*
X81359Y-27261D01*
X81399Y-27241D01*
X81379Y-27281D01*
X81399Y-27321D01*
X81359Y-27301D01*
X81319Y-27321D01*
X81300Y-24540D02*
X81340Y-24460D01*
X81300Y-24380D01*
X81380Y-24420D01*
X81460Y-24380D01*
X81420Y-24460D01*
X81460Y-24540D01*
X81380Y-24500D01*
X81300Y-24540D01*
X81340Y-24500D02*
X81360Y-24460D01*
X81340Y-24420D01*
X81380Y-24440D01*
X81420Y-24420D01*
X81400Y-24460D01*
X81420Y-24500D01*
X81380Y-24480D01*
X81340Y-24500D01*
X74621Y-16171D02*
X74661Y-16091D01*
X74621Y-16011D01*
X74701Y-16051D01*
X74781Y-16011D01*
X74741Y-16091D01*
X74781Y-16171D01*
X74701Y-16131D01*
X74621Y-16171D01*
X74661Y-16131D02*
X74681Y-16091D01*
X74661Y-16051D01*
X74701Y-16071D01*
X74741Y-16051D01*
X74721Y-16091D01*
X74741Y-16131D01*
X74701Y-16111D01*
X74661Y-16131D01*
X11401Y-16171D02*
X11441Y-16091D01*
X11401Y-16011D01*
X11481Y-16051D01*
X11561Y-16011D01*
X11521Y-16091D01*
X11561Y-16171D01*
X11481Y-16131D01*
X11401Y-16171D01*
X11441Y-16131D02*
X11461Y-16091D01*
X11441Y-16051D01*
X11481Y-16071D01*
X11521Y-16051D01*
X11501Y-16091D01*
X11521Y-16131D01*
X11481Y-16111D01*
X11441Y-16131D01*
D159*
X58052Y-11102D02*
G03*
X58052Y-11102I-80J0D01*
G01*
X55887D02*
G03*
X55887Y-11102I-80J0D01*
G01*
X30100D02*
G03*
X30100Y-11102I-80J0D01*
G01*
X27934D02*
G03*
X27934Y-11102I-80J0D01*
G01*
X58052Y-6614D02*
G03*
X58052Y-6614I-80J0D01*
G01*
X55887D02*
G03*
X55887Y-6614I-80J0D01*
G01*
X30100D02*
G03*
X30100Y-6614I-80J0D01*
G01*
X27934D02*
G03*
X27934Y-6614I-80J0D01*
G01*
X38034Y-27280D02*
G03*
X38034Y-27280I-80J0D01*
G01*
X80000Y-23790D02*
G03*
X80000Y-23790I-80J0D01*
G01*
X78040Y-17504D02*
G03*
X78040Y-17504I-80J0D01*
G01*
X77100D02*
G03*
X77100Y-17504I-80J0D01*
G01*
X74250Y-25905D02*
G03*
X74250Y-25905I-80J0D01*
G01*
X70494Y-18800D02*
G03*
X70494Y-18800I-80J0D01*
G01*
X69750Y-19885D02*
G03*
X69750Y-19885I-80J0D01*
G01*
X68770Y-24314D02*
G03*
X68770Y-24314I-80J0D01*
G01*
X62470Y-18720D02*
G03*
X62470Y-18720I-80J0D01*
G01*
X63167Y-18685D02*
G03*
X63167Y-18685I-80J0D01*
G01*
X64163D02*
G03*
X64163Y-18685I-80J0D01*
G01*
X65160D02*
G03*
X65160Y-18685I-80J0D01*
G01*
X56075Y-13020D02*
G03*
X56075Y-13020I-80J0D01*
G01*
X56145Y-9590D02*
G03*
X56145Y-9590I-80J0D01*
G01*
X28230Y-9680D02*
G03*
X28230Y-9680I-80J0D01*
G01*
X27690Y-12220D02*
G03*
X27690Y-12220I-80J0D01*
G01*
X59016Y-25670D02*
G03*
X59016Y-25670I-80J0D01*
G01*
X52924Y-25970D02*
G03*
X52924Y-25970I-80J0D01*
G01*
X39090Y-25840D02*
G03*
X39090Y-25840I-80J0D01*
G01*
X43370Y-26070D02*
G03*
X43370Y-26070I-80J0D01*
G01*
X42670Y-24609D02*
G03*
X42670Y-24609I-80J0D01*
G01*
X31730Y-19295D02*
G03*
X31730Y-19295I-80J0D01*
G01*
X31420Y-22159D02*
G03*
X31420Y-22159I-80J0D01*
G01*
X30685Y-24290D02*
G03*
X30685Y-24290I-80J0D01*
G01*
X29370Y-26535D02*
G03*
X29370Y-26535I-80J0D01*
G01*
X27360Y-20313D02*
G03*
X27360Y-20313I-80J0D01*
G01*
X26750Y-23805D02*
G03*
X26750Y-23805I-80J0D01*
G01*
X24270Y-25735D02*
G03*
X24270Y-25735I-80J0D01*
G01*
X20255Y-22500D02*
G03*
X20255Y-22500I-80J0D01*
G01*
X18835Y-24170D02*
G03*
X18835Y-24170I-80J0D01*
G01*
X17650Y-23924D02*
G03*
X17650Y-23924I-80J0D01*
G01*
X15690Y-26439D02*
G03*
X15690Y-26439I-80J0D01*
G01*
X12560Y-23475D02*
G03*
X12560Y-23475I-80J0D01*
G01*
X10800Y-24850D02*
G03*
X10800Y-24850I-80J0D01*
G01*
X8044D02*
G03*
X8044Y-24850I-80J0D01*
G01*
X6040Y-27490D02*
G03*
X6040Y-27490I-80J0D01*
G01*
X2057Y-22567D02*
G03*
X2057Y-22567I-80J0D01*
G01*
Y-24733D02*
G03*
X2057Y-24733I-80J0D01*
G01*
X4580Y-21940D02*
G03*
X4580Y-21940I-80J0D01*
G01*
X9180Y-20720D02*
G03*
X9180Y-20720I-80J0D01*
G01*
X10430Y-18179D02*
G03*
X10430Y-18179I-80J0D01*
G01*
X6520Y-14560D02*
G03*
X6520Y-14560I-80J0D01*
G01*
X5580Y-14871D02*
G03*
X5580Y-14871I-80J0D01*
G01*
X4480Y-13730D02*
G03*
X4480Y-13730I-80J0D01*
G01*
X48570Y-26780D02*
G03*
X48570Y-26780I-80J0D01*
G01*
X37240Y-27260D02*
G03*
X37240Y-27260I-80J0D01*
G01*
X36685Y-27265D02*
G03*
X36685Y-27265I-80J0D01*
G01*
X13330Y-12100D02*
G03*
X13330Y-12100I-80J0D01*
G01*
X65140Y-28490D02*
G03*
X65140Y-28490I-80J0D01*
G01*
X28400Y-21290D02*
G03*
X28400Y-21290I-80J0D01*
G01*
X38530Y-26380D02*
G03*
X38530Y-26380I-80J0D01*
G01*
X41800Y-26720D02*
G03*
X41800Y-26720I-80J0D01*
G01*
X42520Y-26740D02*
G03*
X42520Y-26740I-80J0D01*
G01*
X51850Y-23870D02*
G03*
X51850Y-23870I-80J0D01*
G01*
X40177Y-22873D02*
G03*
X40177Y-22873I-80J0D01*
G01*
X47630Y-27030D02*
G03*
X47630Y-27030I-80J0D01*
G01*
X52176Y-25970D02*
G03*
X52176Y-25970I-80J0D01*
G01*
X52130Y-28490D02*
G03*
X52130Y-28490I-80J0D01*
G01*
X62140D02*
G03*
X62140Y-28490I-80J0D01*
G01*
X63210D02*
G03*
X63210Y-28490I-80J0D01*
G01*
X64220D02*
G03*
X64220Y-28490I-80J0D01*
G01*
X41251Y-23191D02*
G03*
X41251Y-23191I-80J0D01*
G01*
X41095Y-21435D02*
G03*
X41095Y-21435I-80J0D01*
G01*
X35240Y-18900D02*
G03*
X35240Y-18900I-80J0D01*
G01*
X40210Y-25140D02*
G03*
X40210Y-25140I-80J0D01*
G01*
X40740Y-25440D02*
G03*
X40740Y-25440I-80J0D01*
G01*
X37000Y-20670D02*
G03*
X37000Y-20670I-80J0D01*
G01*
X37420Y-20010D02*
G03*
X37420Y-20010I-80J0D01*
G01*
X35840Y-20290D02*
G03*
X35840Y-20290I-80J0D01*
G01*
X36270Y-20070D02*
G03*
X36270Y-20070I-80J0D01*
G01*
X35520Y-20590D02*
G03*
X35520Y-20590I-80J0D01*
G01*
X35270Y-20820D02*
G03*
X35270Y-20820I-80J0D01*
G01*
X37710Y-20530D02*
G03*
X37710Y-20530I-80J0D01*
G01*
X34795Y-19590D02*
G03*
X34795Y-19590I-80J0D01*
G01*
X34785Y-18880D02*
G03*
X34785Y-18880I-80J0D01*
G01*
X36760Y-18930D02*
G03*
X36760Y-18930I-80J0D01*
G01*
X38300Y-18940D02*
G03*
X38300Y-18940I-80J0D01*
G01*
X38645Y-18900D02*
G03*
X38645Y-18900I-80J0D01*
G01*
X41660Y-18900D02*
G03*
X41660Y-18900I-80J0D01*
G01*
X39931Y-22479D02*
G03*
X39931Y-22479I-80J0D01*
G01*
X39040Y-20580D02*
G03*
X39040Y-20580I-80J0D01*
G01*
X38360Y-20290D02*
G03*
X38360Y-20290I-80J0D01*
G01*
X36629Y-20673D02*
G03*
X36629Y-20673I-80J0D01*
G01*
X58209Y-23940D02*
G03*
X58209Y-23940I-80J0D01*
G01*
X68720Y-12010D02*
G03*
X68720Y-12010I-80J0D01*
G01*
X65160Y-26270D02*
G03*
X65160Y-26270I-80J0D01*
G01*
X64160D02*
G03*
X64160Y-26270I-80J0D01*
G01*
X63160D02*
G03*
X63160Y-26270I-80J0D01*
G01*
X62160D02*
G03*
X62160Y-26270I-80J0D01*
G01*
D160*
X37994Y-27280D02*
G03*
X37994Y-27280I-40J0D01*
G01*
X79960Y-23790D02*
G03*
X79960Y-23790I-40J0D01*
G01*
X78000Y-17504D02*
G03*
X78000Y-17504I-40J0D01*
G01*
X77060D02*
G03*
X77060Y-17504I-40J0D01*
G01*
X74210Y-25905D02*
G03*
X74210Y-25905I-40J0D01*
G01*
X70454Y-18800D02*
G03*
X70454Y-18800I-40J0D01*
G01*
X69710Y-19885D02*
G03*
X69710Y-19885I-40J0D01*
G01*
X68730Y-24314D02*
G03*
X68730Y-24314I-40J0D01*
G01*
X62430Y-18720D02*
G03*
X62430Y-18720I-40J0D01*
G01*
X63127Y-18685D02*
G03*
X63127Y-18685I-40J0D01*
G01*
X64123D02*
G03*
X64123Y-18685I-40J0D01*
G01*
X65120D02*
G03*
X65120Y-18685I-40J0D01*
G01*
X56035Y-13020D02*
G03*
X56035Y-13020I-40J0D01*
G01*
X56105Y-9590D02*
G03*
X56105Y-9590I-40J0D01*
G01*
X28190Y-9680D02*
G03*
X28190Y-9680I-40J0D01*
G01*
X27650Y-12220D02*
G03*
X27650Y-12220I-40J0D01*
G01*
X58976Y-25670D02*
G03*
X58976Y-25670I-40J0D01*
G01*
X52884Y-25970D02*
G03*
X52884Y-25970I-40J0D01*
G01*
X39050Y-25840D02*
G03*
X39050Y-25840I-40J0D01*
G01*
X43330Y-26070D02*
G03*
X43330Y-26070I-40J0D01*
G01*
X42630Y-24609D02*
G03*
X42630Y-24609I-40J0D01*
G01*
X31690Y-19295D02*
G03*
X31690Y-19295I-40J0D01*
G01*
X31380Y-22159D02*
G03*
X31380Y-22159I-40J0D01*
G01*
X30645Y-24290D02*
G03*
X30645Y-24290I-40J0D01*
G01*
X29330Y-26535D02*
G03*
X29330Y-26535I-40J0D01*
G01*
X27320Y-20313D02*
G03*
X27320Y-20313I-40J0D01*
G01*
X26710Y-23805D02*
G03*
X26710Y-23805I-40J0D01*
G01*
X24230Y-25735D02*
G03*
X24230Y-25735I-40J0D01*
G01*
X20215Y-22500D02*
G03*
X20215Y-22500I-40J0D01*
G01*
X18795Y-24170D02*
G03*
X18795Y-24170I-40J0D01*
G01*
X17610Y-23924D02*
G03*
X17610Y-23924I-40J0D01*
G01*
X15650Y-26439D02*
G03*
X15650Y-26439I-40J0D01*
G01*
X12520Y-23475D02*
G03*
X12520Y-23475I-40J0D01*
G01*
X10760Y-24850D02*
G03*
X10760Y-24850I-40J0D01*
G01*
X8004D02*
G03*
X8004Y-24850I-40J0D01*
G01*
X6000Y-27490D02*
G03*
X6000Y-27490I-40J0D01*
G01*
X2017Y-22567D02*
G03*
X2017Y-22567I-40J0D01*
G01*
Y-24733D02*
G03*
X2017Y-24733I-40J0D01*
G01*
X4540Y-21940D02*
G03*
X4540Y-21940I-40J0D01*
G01*
X9140Y-20720D02*
G03*
X9140Y-20720I-40J0D01*
G01*
X10390Y-18179D02*
G03*
X10390Y-18179I-40J0D01*
G01*
X6480Y-14560D02*
G03*
X6480Y-14560I-40J0D01*
G01*
X5540Y-14871D02*
G03*
X5540Y-14871I-40J0D01*
G01*
X4440Y-13730D02*
G03*
X4440Y-13730I-40J0D01*
G01*
X48530Y-26780D02*
G03*
X48530Y-26780I-40J0D01*
G01*
X37200Y-27260D02*
G03*
X37200Y-27260I-40J0D01*
G01*
X36645Y-27265D02*
G03*
X36645Y-27265I-40J0D01*
G01*
X13290Y-12100D02*
G03*
X13290Y-12100I-40J0D01*
G01*
X65100Y-28490D02*
G03*
X65100Y-28490I-40J0D01*
G01*
X28360Y-21290D02*
G03*
X28360Y-21290I-40J0D01*
G01*
X38490Y-26380D02*
G03*
X38490Y-26380I-40J0D01*
G01*
X41760Y-26720D02*
G03*
X41760Y-26720I-40J0D01*
G01*
X42480Y-26740D02*
G03*
X42480Y-26740I-40J0D01*
G01*
X51810Y-23870D02*
G03*
X51810Y-23870I-40J0D01*
G01*
X40137Y-22873D02*
G03*
X40137Y-22873I-40J0D01*
G01*
X47590Y-27030D02*
G03*
X47590Y-27030I-40J0D01*
G01*
X52136Y-25970D02*
G03*
X52136Y-25970I-40J0D01*
G01*
X52090Y-28490D02*
G03*
X52090Y-28490I-40J0D01*
G01*
X62100D02*
G03*
X62100Y-28490I-40J0D01*
G01*
X63170D02*
G03*
X63170Y-28490I-40J0D01*
G01*
X64180D02*
G03*
X64180Y-28490I-40J0D01*
G01*
X41211Y-23191D02*
G03*
X41211Y-23191I-40J0D01*
G01*
X41055Y-21435D02*
G03*
X41055Y-21435I-40J0D01*
G01*
X35200Y-18900D02*
G03*
X35200Y-18900I-40J0D01*
G01*
X40170Y-25140D02*
G03*
X40170Y-25140I-40J0D01*
G01*
X40700Y-25440D02*
G03*
X40700Y-25440I-40J0D01*
G01*
X36960Y-20670D02*
G03*
X36960Y-20670I-40J0D01*
G01*
X37380Y-20010D02*
G03*
X37380Y-20010I-40J0D01*
G01*
X35800Y-20290D02*
G03*
X35800Y-20290I-40J0D01*
G01*
X36230Y-20070D02*
G03*
X36230Y-20070I-40J0D01*
G01*
X35480Y-20590D02*
G03*
X35480Y-20590I-40J0D01*
G01*
X35230Y-20820D02*
G03*
X35230Y-20820I-40J0D01*
G01*
X37670Y-20530D02*
G03*
X37670Y-20530I-40J0D01*
G01*
X34755Y-19590D02*
G03*
X34755Y-19590I-40J0D01*
G01*
X34745Y-18880D02*
G03*
X34745Y-18880I-40J0D01*
G01*
X36720Y-18930D02*
G03*
X36720Y-18930I-40J0D01*
G01*
X38260Y-18940D02*
G03*
X38260Y-18940I-40J0D01*
G01*
X38605Y-18900D02*
G03*
X38605Y-18900I-40J0D01*
G01*
X41620Y-18900D02*
G03*
X41620Y-18900I-40J0D01*
G01*
X39891Y-22479D02*
G03*
X39891Y-22479I-40J0D01*
G01*
X39000Y-20580D02*
G03*
X39000Y-20580I-40J0D01*
G01*
X38320Y-20290D02*
G03*
X38320Y-20290I-40J0D01*
G01*
X36589Y-20673D02*
G03*
X36589Y-20673I-40J0D01*
G01*
X58169Y-23940D02*
G03*
X58169Y-23940I-40J0D01*
G01*
X68680Y-12010D02*
G03*
X68680Y-12010I-40J0D01*
G01*
X65120Y-26270D02*
G03*
X65120Y-26270I-40J0D01*
G01*
X64120D02*
G03*
X64120Y-26270I-40J0D01*
G01*
X63120D02*
G03*
X63120Y-26270I-40J0D01*
G01*
X62120D02*
G03*
X62120Y-26270I-40J0D01*
G01*
M02*
