M48
;Layer_Color=9474304
;FILE_FORMAT=2:4
INCH,LZ
;TYPE=PLATED
T1F00S00C0.0098
T2F00S00C0.0157
T3F00S00C0.0197
T5F00S00C0.0315
T7F00S00C0.0354
T8F00S00C0.0394
T10F00S00C0.0433
T11F00S00C0.0571
T12F00S00C0.1299
%
T01
X001977Y-024733
X007964Y-02485
X01072
X01561Y-026439
X01757Y-023924
X018755Y-02417
X00596Y-02749
X02419Y-025735
X02929Y-026535
X030605Y-02429
X036605Y-027265
X03716Y-02726
X037954Y-02728
X03845Y-02638
X03901Y-02584
X04013Y-02514
X04066Y-02544
X04172Y-02672
X04244Y-02674
X04329Y-02607
X04259Y-024609
X04755Y-02703
X04849Y-02678
X052096Y-02597
X05205Y-02849
X052844Y-02597
X058936Y-02567
X058129Y-02394
X06208Y-02627
X06308
X06408
X06508
X06506Y-02849
X06414
X06313
X06206
X06869Y-024314
X07417Y-025905
X07992Y-02379
X07796Y-017504
X07702
X070414Y-0188
X06967Y-019885
X06864Y-01201
X06508Y-018685
X064083
X063087
X06239Y-01872
X055995Y-01302
X056065Y-00959
X05177Y-02387
X041171Y-023191
X040097Y-022873
X039851Y-022479
X041015Y-021435
X03896Y-02058
X03828Y-02029
X03763Y-02053
X03734Y-02001
X03692Y-02067
X03822Y-01894
X038565Y-0189
X04158Y-0189
X03668Y-01893
X03516Y-0189
X034705Y-01888
X034715Y-01959
X03519Y-02082
X03544Y-02059
X03576Y-02029
X03619Y-02007
X036549Y-020673
X03165Y-019295
X03134Y-022159
X02832Y-02129
X02728Y-020313
X02667Y-023805
X02761Y-01222
X02815Y-00968
X01325Y-0121
X01035Y-018179
X0091Y-02072
X01248Y-023475
X020175Y-0225
X00644Y-01456
X0055Y-014871
X0044Y-01373
X0045Y-02194
X001977Y-022567
T02
X01249Y-025709
X055344Y-014384
X057474Y-009364
X029614Y-009434
X02927Y-01314
X03555Y-02289
T03
X081359Y-027281
X08138Y-02446
X074701Y-016091
X011481
T05
X055807Y-011102
X057972
X03002
X027854
Y-006614
X03002
X055807
X057972
T07
X026383Y-02708
Y-025309
X028942
Y-02708
X031145Y-027116
Y-026116
X032145
Y-027116
X033145
Y-026116
T08
X06209Y-02424
X06309
X06409
X06509
Y-02124
X06409
X06309
X06209
T10
X0735Y-023993
T11
X0735Y-02104
T12
X00144Y-02991
X08443Y-02993
X00145Y-00168
X08421Y-00145
M30
