G04 Layer_Physical_Order=2*
G04 Layer_Color=16711680*
%FSLAX24Y24*%
%MOIN*%
G70*
G01*
G75*
%ADD10C,0.0100*%
%ADD54C,0.0315*%
G04:AMPARAMS|DCode=55|XSize=126mil|YSize=55.1mil|CornerRadius=0mil|HoleSize=0mil|Usage=FLASHONLY|Rotation=25.714|XOffset=0mil|YOffset=0mil|HoleType=Round|Shape=Round|*
%AMOVALD55*
21,1,0.0709,0.0551,0.0000,0.0000,25.7*
1,1,0.0551,-0.0319,-0.0154*
1,1,0.0551,0.0319,0.0154*
%
%ADD55OVALD55*%

G04:AMPARAMS|DCode=56|XSize=126mil|YSize=55.1mil|CornerRadius=0mil|HoleSize=0mil|Usage=FLASHONLY|Rotation=51.429|XOffset=0mil|YOffset=0mil|HoleType=Round|Shape=Round|*
%AMOVALD56*
21,1,0.0709,0.0551,0.0000,0.0000,51.4*
1,1,0.0551,-0.0221,-0.0277*
1,1,0.0551,0.0221,0.0277*
%
%ADD56OVALD56*%

G04:AMPARAMS|DCode=57|XSize=126mil|YSize=55.1mil|CornerRadius=0mil|HoleSize=0mil|Usage=FLASHONLY|Rotation=77.143|XOffset=0mil|YOffset=0mil|HoleType=Round|Shape=Round|*
%AMOVALD57*
21,1,0.0709,0.0551,0.0000,0.0000,77.1*
1,1,0.0551,-0.0079,-0.0345*
1,1,0.0551,0.0079,0.0345*
%
%ADD57OVALD57*%

G04:AMPARAMS|DCode=58|XSize=126mil|YSize=55.1mil|CornerRadius=0mil|HoleSize=0mil|Usage=FLASHONLY|Rotation=102.857|XOffset=0mil|YOffset=0mil|HoleType=Round|Shape=Round|*
%AMOVALD58*
21,1,0.0709,0.0551,0.0000,0.0000,102.9*
1,1,0.0551,0.0079,-0.0345*
1,1,0.0551,-0.0079,0.0345*
%
%ADD58OVALD58*%

G04:AMPARAMS|DCode=59|XSize=126mil|YSize=55.1mil|CornerRadius=0mil|HoleSize=0mil|Usage=FLASHONLY|Rotation=128.571|XOffset=0mil|YOffset=0mil|HoleType=Round|Shape=Round|*
%AMOVALD59*
21,1,0.0709,0.0551,0.0000,0.0000,128.6*
1,1,0.0551,0.0221,-0.0277*
1,1,0.0551,-0.0221,0.0277*
%
%ADD59OVALD59*%

G04:AMPARAMS|DCode=60|XSize=126mil|YSize=55.1mil|CornerRadius=0mil|HoleSize=0mil|Usage=FLASHONLY|Rotation=154.286|XOffset=0mil|YOffset=0mil|HoleType=Round|Shape=Round|*
%AMOVALD60*
21,1,0.0709,0.0551,0.0000,0.0000,154.3*
1,1,0.0551,0.0319,-0.0154*
1,1,0.0551,-0.0319,0.0154*
%
%ADD60OVALD60*%

%ADD61O,0.1260X0.0551*%
%ADD62R,0.1260X0.0551*%
%ADD63C,0.0600*%
%ADD64C,0.0620*%
%ADD65C,0.0551*%
%ADD66R,0.0620X0.0620*%
%ADD67O,0.0620X0.0551*%
%ADD68R,0.0620X0.0620*%
%ADD69C,0.0394*%
%ADD70O,0.0827X0.0394*%
%ADD71O,0.0709X0.0394*%
%ADD72C,0.0571*%
%ADD73C,0.0433*%
%ADD74R,0.1575X0.0787*%
%ADD75C,0.0591*%
%ADD76C,0.0197*%
%ADD77C,0.0315*%
%ADD78C,0.1968*%
G36*
X85820Y-31456D02*
X85776Y-31500D01*
X0D01*
Y-10D01*
X8Y-2D01*
X85820D01*
Y-31456D01*
D02*
G37*
%LPC*%
G36*
X2169Y-22617D02*
X2027D01*
Y-22760D01*
X2055Y-22754D01*
X2120Y-22710D01*
X2164Y-22645D01*
X2169Y-22617D01*
D02*
G37*
G36*
X1927D02*
X1785D01*
X1790Y-22645D01*
X1834Y-22710D01*
X1900Y-22754D01*
X1927Y-22760D01*
Y-22617D01*
D02*
G37*
G36*
X20367Y-22550D02*
X20225D01*
Y-22692D01*
X20252Y-22687D01*
X20318Y-22643D01*
X20362Y-22577D01*
X20367Y-22550D01*
D02*
G37*
G36*
X20125D02*
X19983D01*
X19988Y-22577D01*
X20032Y-22643D01*
X20097Y-22687D01*
X20125Y-22692D01*
Y-22550D01*
D02*
G37*
G36*
X41015Y-21232D02*
X40937Y-21248D01*
X40872Y-21292D01*
X40828Y-21357D01*
X40812Y-21435D01*
X40828Y-21512D01*
X40862Y-21563D01*
Y-23035D01*
X40873Y-23093D01*
X40907Y-23143D01*
X40972Y-23209D01*
X40984Y-23269D01*
X41028Y-23334D01*
X41094Y-23378D01*
X41171Y-23394D01*
X41249Y-23378D01*
X41314Y-23334D01*
X41358Y-23269D01*
X41374Y-23191D01*
X41358Y-23114D01*
X41314Y-23048D01*
X41249Y-23004D01*
X41189Y-22992D01*
X41168Y-22971D01*
Y-21563D01*
X41202Y-21512D01*
X41217Y-21435D01*
X41202Y-21357D01*
X41158Y-21292D01*
X41092Y-21248D01*
X41015Y-21232D01*
D02*
G37*
G36*
X12672Y-23525D02*
X12530D01*
Y-23667D01*
X12557Y-23662D01*
X12623Y-23618D01*
X12667Y-23552D01*
X12672Y-23525D01*
D02*
G37*
G36*
X12430D02*
X12288D01*
X12293Y-23552D01*
X12337Y-23618D01*
X12403Y-23662D01*
X12430Y-23667D01*
Y-23525D01*
D02*
G37*
G36*
X12530Y-23283D02*
Y-23425D01*
X12672D01*
X12667Y-23398D01*
X12623Y-23332D01*
X12557Y-23288D01*
X12530Y-23283D01*
D02*
G37*
G36*
X12430D02*
X12403Y-23288D01*
X12337Y-23332D01*
X12293Y-23398D01*
X12288Y-23425D01*
X12430D01*
Y-23283D01*
D02*
G37*
G36*
X1927Y-22375D02*
X1900Y-22380D01*
X1834Y-22424D01*
X1790Y-22490D01*
X1785Y-22517D01*
X1927D01*
Y-22375D01*
D02*
G37*
G36*
X2706Y-21650D02*
X2273D01*
X2196Y-21660D01*
X2123Y-21690D01*
X2061Y-21737D01*
X2014Y-21799D01*
X1984Y-21872D01*
X1974Y-21949D01*
X1984Y-22027D01*
X2014Y-22099D01*
X2061Y-22161D01*
X2123Y-22209D01*
X2196Y-22238D01*
X2273Y-22249D01*
X2706D01*
X2784Y-22238D01*
X2856Y-22209D01*
X2918Y-22161D01*
X2965Y-22099D01*
X2995Y-22027D01*
X3006Y-21949D01*
X2995Y-21872D01*
X2965Y-21799D01*
X2918Y-21737D01*
X2856Y-21690D01*
X2784Y-21660D01*
X2706Y-21650D01*
D02*
G37*
G36*
X1190D02*
X875D01*
X798Y-21660D01*
X726Y-21690D01*
X664Y-21737D01*
X616Y-21799D01*
X586Y-21872D01*
X576Y-21949D01*
X586Y-22027D01*
X616Y-22099D01*
X664Y-22161D01*
X726Y-22209D01*
X798Y-22238D01*
X875Y-22249D01*
X1190D01*
X1268Y-22238D01*
X1340Y-22209D01*
X1402Y-22161D01*
X1450Y-22099D01*
X1480Y-22027D01*
X1490Y-21949D01*
X1480Y-21872D01*
X1450Y-21799D01*
X1402Y-21737D01*
X1340Y-21690D01*
X1268Y-21660D01*
X1190Y-21650D01*
D02*
G37*
G36*
X4692Y-21990D02*
X4550D01*
Y-22132D01*
X4577Y-22127D01*
X4643Y-22083D01*
X4687Y-22017D01*
X4692Y-21990D01*
D02*
G37*
G36*
X4450D02*
X4308D01*
X4313Y-22017D01*
X4357Y-22083D01*
X4423Y-22127D01*
X4450Y-22132D01*
Y-21990D01*
D02*
G37*
G36*
X31532Y-22209D02*
X31390D01*
Y-22351D01*
X31417Y-22346D01*
X31483Y-22302D01*
X31527Y-22236D01*
X31532Y-22209D01*
D02*
G37*
G36*
X20125Y-22308D02*
X20097Y-22313D01*
X20032Y-22357D01*
X19988Y-22423D01*
X19983Y-22450D01*
X20125D01*
Y-22308D01*
D02*
G37*
G36*
X2027Y-22375D02*
Y-22517D01*
X2169D01*
X2164Y-22490D01*
X2120Y-22424D01*
X2055Y-22380D01*
X2027Y-22375D01*
D02*
G37*
G36*
X31290Y-22209D02*
X31148D01*
X31153Y-22236D01*
X31197Y-22302D01*
X31263Y-22346D01*
X31290Y-22351D01*
Y-22209D01*
D02*
G37*
G36*
X20225Y-22308D02*
Y-22450D01*
X20367D01*
X20362Y-22423D01*
X20318Y-22357D01*
X20252Y-22313D01*
X20225Y-22308D01*
D02*
G37*
G36*
X17520Y-23974D02*
X17378D01*
X17383Y-24001D01*
X17427Y-24067D01*
X17493Y-24111D01*
X17520Y-24116D01*
Y-23974D01*
D02*
G37*
G36*
X18805Y-23978D02*
Y-24120D01*
X18947D01*
X18942Y-24093D01*
X18898Y-24027D01*
X18833Y-23983D01*
X18805Y-23978D01*
D02*
G37*
G36*
X40097Y-22671D02*
X40020Y-22686D01*
X39954Y-22730D01*
X39910Y-22796D01*
X39895Y-22873D01*
X39910Y-22950D01*
X39954Y-23016D01*
X40020Y-23060D01*
X40087Y-23073D01*
X40992Y-23978D01*
X41041Y-24011D01*
X41100Y-24023D01*
X51642D01*
X51693Y-24057D01*
X51770Y-24072D01*
X51847Y-24057D01*
X51913Y-24013D01*
X51957Y-23947D01*
X51972Y-23870D01*
X51957Y-23793D01*
X51913Y-23727D01*
X51847Y-23683D01*
X51770Y-23668D01*
X51693Y-23683D01*
X51642Y-23717D01*
X41163D01*
X40294Y-22848D01*
X40284Y-22796D01*
X40240Y-22730D01*
X40174Y-22686D01*
X40097Y-22671D01*
D02*
G37*
G36*
X17762Y-23974D02*
X17620D01*
Y-24116D01*
X17647Y-24111D01*
X17713Y-24067D01*
X17757Y-24001D01*
X17762Y-23974D01*
D02*
G37*
G36*
X18705Y-23978D02*
X18678Y-23983D01*
X18612Y-24027D01*
X18568Y-24093D01*
X18563Y-24120D01*
X18705D01*
Y-23978D01*
D02*
G37*
G36*
X30555Y-24098D02*
X30527Y-24103D01*
X30462Y-24147D01*
X30418Y-24213D01*
X30412Y-24240D01*
X30555D01*
Y-24098D01*
D02*
G37*
G36*
X68740Y-24122D02*
Y-24264D01*
X68882D01*
X68877Y-24237D01*
X68833Y-24171D01*
X68767Y-24127D01*
X68740Y-24122D01*
D02*
G37*
G36*
X58129Y-23738D02*
X58052Y-23753D01*
X57986Y-23797D01*
X57943Y-23863D01*
X57927Y-23940D01*
X57943Y-24017D01*
X57986Y-24083D01*
X58052Y-24127D01*
X58129Y-24142D01*
X58207Y-24127D01*
X58273Y-24083D01*
X58316Y-24017D01*
X58332Y-23940D01*
X58316Y-23863D01*
X58273Y-23797D01*
X58207Y-23753D01*
X58129Y-23738D01*
D02*
G37*
G36*
X30655Y-24098D02*
Y-24240D01*
X30797D01*
X30792Y-24213D01*
X30748Y-24147D01*
X30682Y-24103D01*
X30655Y-24098D01*
D02*
G37*
G36*
X26620Y-23855D02*
X26478D01*
X26483Y-23883D01*
X26527Y-23948D01*
X26593Y-23992D01*
X26620Y-23998D01*
Y-23855D01*
D02*
G37*
G36*
X26720Y-23613D02*
Y-23755D01*
X26862D01*
X26857Y-23728D01*
X26813Y-23662D01*
X26747Y-23618D01*
X26720Y-23613D01*
D02*
G37*
G36*
X26620D02*
X26593Y-23618D01*
X26527Y-23662D01*
X26483Y-23728D01*
X26478Y-23755D01*
X26620D01*
Y-23613D01*
D02*
G37*
G36*
X79970Y-23598D02*
Y-23740D01*
X80112D01*
X80107Y-23713D01*
X80063Y-23647D01*
X79997Y-23603D01*
X79970Y-23598D01*
D02*
G37*
G36*
X79870D02*
X79843Y-23603D01*
X79777Y-23647D01*
X79733Y-23713D01*
X79728Y-23740D01*
X79870D01*
Y-23598D01*
D02*
G37*
G36*
X17620Y-23732D02*
Y-23874D01*
X17762D01*
X17757Y-23847D01*
X17713Y-23781D01*
X17647Y-23737D01*
X17620Y-23732D01*
D02*
G37*
G36*
X79870Y-23840D02*
X79728D01*
X79733Y-23867D01*
X79777Y-23933D01*
X79843Y-23977D01*
X79870Y-23982D01*
Y-23840D01*
D02*
G37*
G36*
X26862Y-23855D02*
X26720D01*
Y-23998D01*
X26747Y-23992D01*
X26813Y-23948D01*
X26857Y-23883D01*
X26862Y-23855D01*
D02*
G37*
G36*
X17520Y-23732D02*
X17493Y-23737D01*
X17427Y-23781D01*
X17383Y-23847D01*
X17378Y-23874D01*
X17520D01*
Y-23732D01*
D02*
G37*
G36*
X80112Y-23840D02*
X79970D01*
Y-23982D01*
X79997Y-23977D01*
X80063Y-23933D01*
X80107Y-23867D01*
X80112Y-23840D01*
D02*
G37*
G36*
X3480Y-21810D02*
X3237D01*
X3241Y-21837D01*
X3271Y-21910D01*
X3318Y-21972D01*
X3380Y-22019D01*
X3453Y-22049D01*
X3480Y-22053D01*
Y-21810D01*
D02*
G37*
G36*
X31600Y-19345D02*
X31458D01*
X31463Y-19372D01*
X31507Y-19438D01*
X31573Y-19482D01*
X31600Y-19487D01*
Y-19345D01*
D02*
G37*
G36*
X69720Y-19693D02*
Y-19835D01*
X69862D01*
X69857Y-19808D01*
X69813Y-19742D01*
X69747Y-19698D01*
X69720Y-19693D01*
D02*
G37*
G36*
X1857Y-18314D02*
X283D01*
X244Y-18322D01*
X211Y-18344D01*
X188Y-18377D01*
X181Y-18416D01*
Y-19204D01*
X188Y-19243D01*
X211Y-19276D01*
X244Y-19298D01*
X283Y-19306D01*
X1857D01*
X1896Y-19298D01*
X1929Y-19276D01*
X1952Y-19243D01*
X1959Y-19204D01*
Y-18416D01*
X1952Y-18377D01*
X1929Y-18344D01*
X1896Y-18322D01*
X1857Y-18314D01*
D02*
G37*
G36*
X31842Y-19345D02*
X31700D01*
Y-19487D01*
X31727Y-19482D01*
X31793Y-19438D01*
X31837Y-19372D01*
X31842Y-19345D01*
D02*
G37*
G36*
X69620Y-19693D02*
X69593Y-19698D01*
X69527Y-19742D01*
X69483Y-19808D01*
X69478Y-19835D01*
X69620D01*
Y-19693D01*
D02*
G37*
G36*
X27330Y-20121D02*
Y-20263D01*
X27472D01*
X27467Y-20236D01*
X27423Y-20170D01*
X27357Y-20126D01*
X27330Y-20121D01*
D02*
G37*
G36*
X27230D02*
X27203Y-20126D01*
X27137Y-20170D01*
X27093Y-20236D01*
X27088Y-20263D01*
X27230D01*
Y-20121D01*
D02*
G37*
G36*
X69862Y-19935D02*
X69720D01*
Y-20077D01*
X69747Y-20072D01*
X69813Y-20028D01*
X69857Y-19963D01*
X69862Y-19935D01*
D02*
G37*
G36*
X69620D02*
X69478D01*
X69483Y-19963D01*
X69527Y-20028D01*
X69593Y-20072D01*
X69620Y-20077D01*
Y-19935D01*
D02*
G37*
G36*
X3747Y-18314D02*
X2172D01*
X2133Y-18322D01*
X2100Y-18344D01*
X2078Y-18377D01*
X2070Y-18416D01*
Y-19204D01*
X2078Y-19243D01*
X2100Y-19276D01*
X2133Y-19298D01*
X2172Y-19306D01*
X3747D01*
X3786Y-19298D01*
X3819Y-19276D01*
X3841Y-19243D01*
X3849Y-19204D01*
Y-18416D01*
X3841Y-18377D01*
X3819Y-18344D01*
X3786Y-18322D01*
X3747Y-18314D01*
D02*
G37*
G36*
X70606Y-18850D02*
X70464D01*
Y-18992D01*
X70491Y-18987D01*
X70557Y-18943D01*
X70601Y-18877D01*
X70606Y-18850D01*
D02*
G37*
G36*
X70364D02*
X70222D01*
X70227Y-18877D01*
X70271Y-18943D01*
X70337Y-18987D01*
X70364Y-18992D01*
Y-18850D01*
D02*
G37*
G36*
X62582Y-18770D02*
X62440D01*
Y-18912D01*
X62467Y-18907D01*
X62533Y-18863D01*
X62577Y-18797D01*
X62582Y-18770D01*
D02*
G37*
G36*
X62340D02*
X62198D01*
X62203Y-18797D01*
X62247Y-18863D01*
X62313Y-18907D01*
X62340Y-18912D01*
Y-18770D01*
D02*
G37*
G36*
X35352Y-18950D02*
X35210D01*
Y-19092D01*
X35237Y-19087D01*
X35303Y-19043D01*
X35347Y-18977D01*
X35352Y-18950D01*
D02*
G37*
G36*
X31700Y-19102D02*
Y-19245D01*
X31842D01*
X31837Y-19217D01*
X31793Y-19152D01*
X31727Y-19108D01*
X31700Y-19102D01*
D02*
G37*
G36*
X31600D02*
X31573Y-19108D01*
X31507Y-19152D01*
X31463Y-19217D01*
X31458Y-19245D01*
X31600D01*
Y-19102D01*
D02*
G37*
G36*
X35110Y-18950D02*
X34968D01*
X34973Y-18977D01*
X35017Y-19043D01*
X35083Y-19087D01*
X35110Y-19092D01*
Y-18950D01*
D02*
G37*
G36*
X38170Y-18990D02*
X38028D01*
X38033Y-19017D01*
X38077Y-19083D01*
X38143Y-19127D01*
X38170Y-19132D01*
Y-18990D01*
D02*
G37*
G36*
X63090Y-20826D02*
X62983Y-20841D01*
X62883Y-20882D01*
X62798Y-20948D01*
X62732Y-21033D01*
X62691Y-21133D01*
X62676Y-21240D01*
X62691Y-21347D01*
X62732Y-21447D01*
X62798Y-21532D01*
X62883Y-21598D01*
X62983Y-21639D01*
X63090Y-21654D01*
X63197Y-21639D01*
X63297Y-21598D01*
X63382Y-21532D01*
X63448Y-21447D01*
X63489Y-21347D01*
X63504Y-21240D01*
X63489Y-21133D01*
X63448Y-21033D01*
X63382Y-20948D01*
X63297Y-20882D01*
X63197Y-20841D01*
X63090Y-20826D01*
D02*
G37*
G36*
X62090D02*
X61983Y-20841D01*
X61883Y-20882D01*
X61798Y-20948D01*
X61732Y-21033D01*
X61691Y-21133D01*
X61676Y-21240D01*
X61691Y-21347D01*
X61732Y-21447D01*
X61798Y-21532D01*
X61883Y-21598D01*
X61983Y-21639D01*
X62090Y-21654D01*
X62197Y-21639D01*
X62297Y-21598D01*
X62382Y-21532D01*
X62448Y-21447D01*
X62489Y-21347D01*
X62504Y-21240D01*
X62489Y-21133D01*
X62448Y-21033D01*
X62382Y-20948D01*
X62297Y-20882D01*
X62197Y-20841D01*
X62090Y-20826D01*
D02*
G37*
G36*
X65090Y-20861D02*
X64992Y-20874D01*
X64901Y-20912D01*
X64822Y-20972D01*
X64762Y-21051D01*
X64724Y-21142D01*
X64711Y-21240D01*
X64724Y-21338D01*
X64762Y-21429D01*
X64822Y-21508D01*
X64901Y-21568D01*
X64992Y-21606D01*
X65090Y-21619D01*
X65188Y-21606D01*
X65279Y-21568D01*
X65358Y-21508D01*
X65418Y-21429D01*
X65456Y-21338D01*
X65469Y-21240D01*
X65456Y-21142D01*
X65418Y-21051D01*
X65358Y-20972D01*
X65279Y-20912D01*
X65188Y-20874D01*
X65090Y-20861D01*
D02*
G37*
G36*
X64090D02*
X63992Y-20874D01*
X63901Y-20912D01*
X63822Y-20972D01*
X63762Y-21051D01*
X63724Y-21142D01*
X63711Y-21240D01*
X63724Y-21338D01*
X63762Y-21429D01*
X63822Y-21508D01*
X63901Y-21568D01*
X63992Y-21606D01*
X64090Y-21619D01*
X64188Y-21606D01*
X64279Y-21568D01*
X64358Y-21508D01*
X64418Y-21429D01*
X64456Y-21338D01*
X64469Y-21240D01*
X64456Y-21142D01*
X64418Y-21051D01*
X64358Y-20972D01*
X64279Y-20912D01*
X64188Y-20874D01*
X64090Y-20861D01*
D02*
G37*
G36*
X3580Y-21467D02*
Y-21710D01*
X3823D01*
X3819Y-21683D01*
X3789Y-21610D01*
X3742Y-21548D01*
X3680Y-21501D01*
X3607Y-21471D01*
X3580Y-21467D01*
D02*
G37*
G36*
X4450Y-21748D02*
X4423Y-21753D01*
X4357Y-21797D01*
X4313Y-21863D01*
X4308Y-21890D01*
X4450D01*
Y-21748D01*
D02*
G37*
G36*
X3823Y-21810D02*
X3580D01*
Y-22053D01*
X3607Y-22049D01*
X3680Y-22019D01*
X3742Y-21972D01*
X3789Y-21910D01*
X3819Y-21837D01*
X3823Y-21810D01*
D02*
G37*
G36*
X3480Y-21467D02*
X3453Y-21471D01*
X3380Y-21501D01*
X3318Y-21548D01*
X3271Y-21610D01*
X3241Y-21683D01*
X3237Y-21710D01*
X3480D01*
Y-21467D01*
D02*
G37*
G36*
X4550Y-21748D02*
Y-21890D01*
X4692D01*
X4687Y-21863D01*
X4643Y-21797D01*
X4577Y-21753D01*
X4550Y-21748D01*
D02*
G37*
G36*
X14950Y-20911D02*
X14873Y-20921D01*
X14800Y-20951D01*
X14738Y-20998D01*
X14691Y-21060D01*
X14661Y-21133D01*
X14651Y-21210D01*
X14661Y-21287D01*
X14691Y-21360D01*
X14738Y-21422D01*
X14800Y-21469D01*
X14873Y-21499D01*
X14950Y-21509D01*
X15027Y-21499D01*
X15100Y-21469D01*
X15162Y-21422D01*
X15209Y-21360D01*
X15239Y-21287D01*
X15249Y-21210D01*
X15239Y-21133D01*
X15209Y-21060D01*
X15162Y-20998D01*
X15100Y-20951D01*
X15027Y-20921D01*
X14950Y-20911D01*
D02*
G37*
G36*
X73500Y-20650D02*
X73493Y-20651D01*
X73487Y-20651D01*
X73412Y-20661D01*
X73403Y-20664D01*
X73399Y-20664D01*
X73396Y-20666D01*
X73386Y-20668D01*
X73317Y-20696D01*
X73309Y-20702D01*
X73306Y-20703D01*
X73303Y-20705D01*
X73294Y-20710D01*
X73234Y-20756D01*
X73228Y-20763D01*
X73225Y-20765D01*
X73223Y-20768D01*
X73216Y-20774D01*
X73170Y-20834D01*
X73165Y-20843D01*
X73163Y-20846D01*
X73162Y-20849D01*
X73156Y-20857D01*
X73128Y-20926D01*
X73126Y-20936D01*
X73124Y-20939D01*
X73124Y-20943D01*
X73121Y-20952D01*
X73111Y-21027D01*
X73112Y-21037D01*
X73111Y-21040D01*
X73112Y-21043D01*
X73111Y-21053D01*
X73121Y-21128D01*
X73124Y-21137D01*
X73124Y-21141D01*
X73126Y-21144D01*
X73128Y-21154D01*
X73156Y-21223D01*
X73162Y-21231D01*
X73163Y-21234D01*
X73165Y-21237D01*
X73170Y-21246D01*
X73216Y-21306D01*
X73223Y-21312D01*
X73225Y-21315D01*
X73228Y-21317D01*
X73234Y-21324D01*
X73294Y-21370D01*
X73303Y-21375D01*
X73306Y-21377D01*
X73309Y-21378D01*
X73317Y-21384D01*
X73386Y-21412D01*
X73396Y-21414D01*
X73399Y-21416D01*
X73403Y-21416D01*
X73412Y-21419D01*
X73487Y-21429D01*
X73493Y-21429D01*
X73500Y-21430D01*
X73507Y-21429D01*
X73513Y-21429D01*
X73588Y-21419D01*
X73597Y-21416D01*
X73601Y-21416D01*
X73604Y-21414D01*
X73614Y-21412D01*
X73683Y-21384D01*
X73691Y-21378D01*
X73694Y-21377D01*
X73697Y-21375D01*
X73706Y-21370D01*
X73766Y-21324D01*
X73772Y-21317D01*
X73775Y-21315D01*
X73777Y-21312D01*
X73784Y-21306D01*
X73830Y-21246D01*
X73835Y-21237D01*
X73837Y-21234D01*
X73838Y-21231D01*
X73844Y-21223D01*
X73872Y-21154D01*
X73874Y-21144D01*
X73876Y-21141D01*
X73876Y-21137D01*
X73879Y-21128D01*
X73889Y-21053D01*
X73888Y-21043D01*
X73889Y-21040D01*
X73888Y-21037D01*
X73889Y-21027D01*
X73879Y-20952D01*
X73876Y-20943D01*
X73876Y-20939D01*
X73874Y-20936D01*
X73872Y-20926D01*
X73844Y-20857D01*
X73838Y-20849D01*
X73837Y-20846D01*
X73835Y-20843D01*
X73830Y-20834D01*
X73784Y-20774D01*
X73777Y-20768D01*
X73775Y-20765D01*
X73772Y-20763D01*
X73766Y-20756D01*
X73706Y-20710D01*
X73697Y-20705D01*
X73694Y-20703D01*
X73691Y-20702D01*
X73683Y-20696D01*
X73614Y-20668D01*
X73604Y-20666D01*
X73601Y-20664D01*
X73597Y-20664D01*
X73588Y-20661D01*
X73513Y-20651D01*
X73507Y-20651D01*
X73500Y-20650D01*
D02*
G37*
G36*
X9150Y-20528D02*
Y-20670D01*
X9292D01*
X9287Y-20643D01*
X9243Y-20577D01*
X9177Y-20533D01*
X9150Y-20528D01*
D02*
G37*
G36*
X27472Y-20363D02*
X27330D01*
Y-20506D01*
X27357Y-20500D01*
X27423Y-20456D01*
X27467Y-20391D01*
X27472Y-20363D01*
D02*
G37*
G36*
X27230D02*
X27088D01*
X27093Y-20391D01*
X27137Y-20456D01*
X27203Y-20500D01*
X27230Y-20506D01*
Y-20363D01*
D02*
G37*
G36*
X9050Y-20528D02*
X9023Y-20533D01*
X8957Y-20577D01*
X8913Y-20643D01*
X8908Y-20670D01*
X9050D01*
Y-20528D01*
D02*
G37*
G36*
X3747Y-20165D02*
X2172D01*
X2133Y-20172D01*
X2100Y-20195D01*
X2078Y-20228D01*
X2070Y-20267D01*
Y-21054D01*
X2078Y-21093D01*
X2100Y-21126D01*
X2133Y-21148D01*
X2172Y-21156D01*
X3747D01*
X3786Y-21148D01*
X3819Y-21126D01*
X3841Y-21093D01*
X3849Y-21054D01*
Y-20267D01*
X3841Y-20228D01*
X3819Y-20195D01*
X3786Y-20172D01*
X3747Y-20165D01*
D02*
G37*
G36*
X1857D02*
X283D01*
X244Y-20172D01*
X211Y-20195D01*
X188Y-20228D01*
X181Y-20267D01*
Y-21054D01*
X188Y-21093D01*
X211Y-21126D01*
X244Y-21148D01*
X283Y-21156D01*
X1857D01*
X1896Y-21148D01*
X1929Y-21126D01*
X1952Y-21093D01*
X1959Y-21054D01*
Y-20267D01*
X1952Y-20228D01*
X1929Y-20195D01*
X1896Y-20172D01*
X1857Y-20165D01*
D02*
G37*
G36*
X9292Y-20770D02*
X9150D01*
Y-20912D01*
X9177Y-20907D01*
X9243Y-20863D01*
X9287Y-20797D01*
X9292Y-20770D01*
D02*
G37*
G36*
X9050D02*
X8908D01*
X8913Y-20797D01*
X8957Y-20863D01*
X9023Y-20907D01*
X9050Y-20912D01*
Y-20770D01*
D02*
G37*
G36*
X29340Y-26342D02*
Y-26485D01*
X29482D01*
X29477Y-26457D01*
X29433Y-26392D01*
X29367Y-26348D01*
X29340Y-26342D01*
D02*
G37*
G36*
X29240D02*
X29213Y-26348D01*
X29147Y-26392D01*
X29103Y-26457D01*
X29098Y-26485D01*
X29240D01*
Y-26342D01*
D02*
G37*
G36*
X15660Y-26246D02*
Y-26389D01*
X15802D01*
X15797Y-26361D01*
X15753Y-26295D01*
X15687Y-26252D01*
X15660Y-26246D01*
D02*
G37*
G36*
X15560D02*
X15533Y-26252D01*
X15467Y-26295D01*
X15423Y-26361D01*
X15418Y-26389D01*
X15560D01*
Y-26246D01*
D02*
G37*
G36*
X15802Y-26489D02*
X15660D01*
Y-26631D01*
X15687Y-26625D01*
X15753Y-26582D01*
X15797Y-26516D01*
X15802Y-26489D01*
D02*
G37*
G36*
X29240Y-26585D02*
X29098D01*
X29103Y-26612D01*
X29147Y-26678D01*
X29213Y-26722D01*
X29240Y-26727D01*
Y-26585D01*
D02*
G37*
G36*
X6010Y-27298D02*
Y-27440D01*
X6152D01*
X6147Y-27413D01*
X6103Y-27347D01*
X6037Y-27303D01*
X6010Y-27298D01*
D02*
G37*
G36*
X15560Y-26489D02*
X15418D01*
X15423Y-26516D01*
X15467Y-26582D01*
X15533Y-26625D01*
X15560Y-26631D01*
Y-26489D01*
D02*
G37*
G36*
X29482Y-26585D02*
X29340D01*
Y-26727D01*
X29367Y-26722D01*
X29433Y-26678D01*
X29477Y-26612D01*
X29482Y-26585D01*
D02*
G37*
G36*
X52794Y-26020D02*
X52652D01*
X52657Y-26047D01*
X52701Y-26113D01*
X52767Y-26157D01*
X52794Y-26162D01*
Y-26020D01*
D02*
G37*
G36*
X24140Y-25785D02*
X23998D01*
X24003Y-25813D01*
X24047Y-25878D01*
X24113Y-25922D01*
X24140Y-25928D01*
Y-25785D01*
D02*
G37*
G36*
X12490Y-25450D02*
X12423Y-25459D01*
X12360Y-25484D01*
X12306Y-25526D01*
X12265Y-25580D01*
X12239Y-25642D01*
X12230Y-25709D01*
X12239Y-25777D01*
X12265Y-25839D01*
X12306Y-25893D01*
X12360Y-25934D01*
X12423Y-25960D01*
X12490Y-25969D01*
X12557Y-25960D01*
X12620Y-25934D01*
X12674Y-25893D01*
X12715Y-25839D01*
X12741Y-25777D01*
X12750Y-25709D01*
X12741Y-25642D01*
X12715Y-25580D01*
X12674Y-25526D01*
X12620Y-25484D01*
X12557Y-25459D01*
X12490Y-25450D01*
D02*
G37*
G36*
X52794Y-25778D02*
X52767Y-25783D01*
X52701Y-25827D01*
X52657Y-25893D01*
X52652Y-25920D01*
X52794D01*
Y-25778D01*
D02*
G37*
G36*
X24382Y-25785D02*
X24240D01*
Y-25928D01*
X24267Y-25922D01*
X24333Y-25878D01*
X24377Y-25813D01*
X24382Y-25785D01*
D02*
G37*
G36*
X31195Y-25739D02*
Y-26066D01*
X31552D01*
X31546Y-26018D01*
X31508Y-25926D01*
X31448Y-25848D01*
X31369Y-25788D01*
X31278Y-25750D01*
X31195Y-25739D01*
D02*
G37*
G36*
X74120Y-25955D02*
X73978D01*
X73983Y-25983D01*
X74027Y-26048D01*
X74093Y-26092D01*
X74120Y-26098D01*
Y-25955D01*
D02*
G37*
G36*
X53036Y-26020D02*
X52894D01*
Y-26162D01*
X52921Y-26157D01*
X52987Y-26113D01*
X53031Y-26047D01*
X53036Y-26020D01*
D02*
G37*
G36*
X31095Y-25739D02*
X31013Y-25750D01*
X30922Y-25788D01*
X30843Y-25848D01*
X30783Y-25926D01*
X30745Y-26018D01*
X30739Y-26066D01*
X31095D01*
Y-25739D01*
D02*
G37*
G36*
X74362Y-25955D02*
X74220D01*
Y-26098D01*
X74247Y-26092D01*
X74313Y-26048D01*
X74357Y-25983D01*
X74362Y-25955D01*
D02*
G37*
G36*
X1390Y-28826D02*
X1270Y-28836D01*
X1104Y-28876D01*
X946Y-28941D01*
X801Y-29030D01*
X671Y-29141D01*
X560Y-29271D01*
X471Y-29416D01*
X406Y-29574D01*
X366Y-29740D01*
X356Y-29860D01*
X1390D01*
Y-28826D01*
D02*
G37*
G36*
X84480Y-28846D02*
Y-29880D01*
X85514D01*
X85504Y-29760D01*
X85464Y-29594D01*
X85399Y-29436D01*
X85310Y-29291D01*
X85199Y-29161D01*
X85069Y-29050D01*
X84924Y-28961D01*
X84766Y-28896D01*
X84600Y-28856D01*
X84480Y-28846D01*
D02*
G37*
G36*
X74701Y-15792D02*
X74624Y-15802D01*
X74552Y-15832D01*
X74490Y-15880D01*
X74442Y-15942D01*
X74412Y-16014D01*
X74402Y-16091D01*
X74412Y-16169D01*
X74442Y-16240D01*
Y-23561D01*
X74450Y-23628D01*
X74476Y-23691D01*
X74518Y-23745D01*
X75416Y-24644D01*
X75470Y-24685D01*
X75533Y-24711D01*
X75600Y-24720D01*
X81100D01*
Y-27132D01*
X81070Y-27203D01*
X81060Y-27281D01*
X81070Y-27358D01*
X81100Y-27429D01*
Y-28243D01*
X80512Y-28830D01*
X12938D01*
X11741Y-27634D01*
Y-16240D01*
X11770Y-16169D01*
X11781Y-16091D01*
X11770Y-16014D01*
X11741Y-15942D01*
X11693Y-15880D01*
X11631Y-15832D01*
X11559Y-15802D01*
X11481Y-15792D01*
X11404Y-15802D01*
X11332Y-15832D01*
X11270Y-15880D01*
X11222Y-15942D01*
X11192Y-16014D01*
X11182Y-16091D01*
X11192Y-16169D01*
X11222Y-16240D01*
Y-27741D01*
X11230Y-27808D01*
X11256Y-27871D01*
X11298Y-27925D01*
X12646Y-29274D01*
X12700Y-29315D01*
X12763Y-29341D01*
X12830Y-29350D01*
X80620D01*
X80687Y-29341D01*
X80750Y-29315D01*
X80804Y-29274D01*
X81543Y-28534D01*
X81584Y-28480D01*
X81610Y-28418D01*
X81619Y-28351D01*
Y-27429D01*
X81649Y-27358D01*
X81659Y-27281D01*
X81649Y-27203D01*
X81619Y-27132D01*
Y-24636D01*
X81639Y-24610D01*
X81669Y-24537D01*
X81679Y-24460D01*
X81669Y-24383D01*
X81639Y-24310D01*
X81592Y-24248D01*
X81530Y-24201D01*
X81457Y-24171D01*
X81380Y-24161D01*
X81303Y-24171D01*
X81231Y-24200D01*
X75708D01*
X74961Y-23454D01*
Y-16240D01*
X74990Y-16169D01*
X75001Y-16091D01*
X74990Y-16014D01*
X74961Y-15942D01*
X74913Y-15880D01*
X74851Y-15832D01*
X74779Y-15802D01*
X74701Y-15792D01*
D02*
G37*
G36*
X1490Y-28826D02*
Y-29860D01*
X2524D01*
X2514Y-29740D01*
X2474Y-29574D01*
X2409Y-29416D01*
X2320Y-29271D01*
X2209Y-29141D01*
X2079Y-29030D01*
X1934Y-28941D01*
X1776Y-28876D01*
X1610Y-28836D01*
X1490Y-28826D01*
D02*
G37*
G36*
X84380Y-28846D02*
X84260Y-28856D01*
X84094Y-28896D01*
X83936Y-28961D01*
X83791Y-29050D01*
X83661Y-29161D01*
X83550Y-29291D01*
X83461Y-29436D01*
X83396Y-29594D01*
X83356Y-29760D01*
X83346Y-29880D01*
X84380D01*
Y-28846D01*
D02*
G37*
G36*
X85514Y-29980D02*
X84480D01*
Y-31014D01*
X84600Y-31004D01*
X84766Y-30964D01*
X84924Y-30899D01*
X85069Y-30810D01*
X85199Y-30699D01*
X85310Y-30569D01*
X85399Y-30424D01*
X85464Y-30266D01*
X85504Y-30100D01*
X85514Y-29980D01*
D02*
G37*
G36*
X84380D02*
X83346D01*
X83356Y-30100D01*
X83396Y-30266D01*
X83461Y-30424D01*
X83550Y-30569D01*
X83661Y-30699D01*
X83791Y-30810D01*
X83936Y-30899D01*
X84094Y-30964D01*
X84260Y-31004D01*
X84380Y-31014D01*
Y-29980D01*
D02*
G37*
G36*
X2524Y-29960D02*
X1490D01*
Y-30994D01*
X1610Y-30984D01*
X1776Y-30944D01*
X1934Y-30879D01*
X2079Y-30790D01*
X2209Y-30679D01*
X2320Y-30549D01*
X2409Y-30404D01*
X2474Y-30246D01*
X2514Y-30080D01*
X2524Y-29960D01*
D02*
G37*
G36*
X1390D02*
X356D01*
X366Y-30080D01*
X406Y-30246D01*
X471Y-30404D01*
X560Y-30549D01*
X671Y-30679D01*
X801Y-30790D01*
X946Y-30879D01*
X1104Y-30944D01*
X1270Y-30984D01*
X1390Y-30994D01*
Y-29960D01*
D02*
G37*
G36*
X52096Y-25768D02*
X52019Y-25783D01*
X51953Y-25827D01*
X51909Y-25893D01*
X51894Y-25970D01*
X51909Y-26047D01*
X51943Y-26098D01*
Y-28323D01*
X51907Y-28347D01*
X51863Y-28413D01*
X51848Y-28490D01*
X51863Y-28567D01*
X51907Y-28633D01*
X51973Y-28677D01*
X52050Y-28692D01*
X52127Y-28677D01*
X52193Y-28633D01*
X52237Y-28567D01*
X52252Y-28490D01*
X52240Y-28429D01*
X52243Y-28414D01*
X52249Y-28387D01*
X52249Y-28385D01*
X52249Y-28384D01*
Y-26098D01*
X52283Y-26047D01*
X52298Y-25970D01*
X52283Y-25893D01*
X52239Y-25827D01*
X52173Y-25783D01*
X52096Y-25768D01*
D02*
G37*
G36*
X26383Y-26682D02*
X26280Y-26695D01*
X26184Y-26735D01*
X26101Y-26799D01*
X26038Y-26881D01*
X25998Y-26977D01*
X25985Y-27080D01*
X25998Y-27184D01*
X26038Y-27280D01*
X26101Y-27362D01*
X26184Y-27426D01*
X26280Y-27466D01*
X26383Y-27479D01*
X26487Y-27466D01*
X26583Y-27426D01*
X26665Y-27362D01*
X26729Y-27280D01*
X26768Y-27184D01*
X26782Y-27080D01*
X26768Y-26977D01*
X26729Y-26881D01*
X26665Y-26799D01*
X26583Y-26735D01*
X26487Y-26695D01*
X26383Y-26682D01*
D02*
G37*
G36*
X6152Y-27540D02*
X6010D01*
Y-27682D01*
X6037Y-27677D01*
X6103Y-27633D01*
X6147Y-27567D01*
X6152Y-27540D01*
D02*
G37*
G36*
X5910Y-27298D02*
X5883Y-27303D01*
X5817Y-27347D01*
X5773Y-27413D01*
X5768Y-27440D01*
X5910D01*
Y-27298D01*
D02*
G37*
G36*
X28942Y-26682D02*
X28839Y-26695D01*
X28743Y-26735D01*
X28661Y-26799D01*
X28597Y-26881D01*
X28557Y-26977D01*
X28544Y-27080D01*
X28557Y-27184D01*
X28597Y-27280D01*
X28661Y-27362D01*
X28743Y-27426D01*
X28839Y-27466D01*
X28942Y-27479D01*
X29046Y-27466D01*
X29142Y-27426D01*
X29224Y-27362D01*
X29288Y-27280D01*
X29328Y-27184D01*
X29341Y-27080D01*
X29328Y-26977D01*
X29288Y-26881D01*
X29224Y-26799D01*
X29142Y-26735D01*
X29046Y-26695D01*
X28942Y-26682D01*
D02*
G37*
G36*
X5910Y-27540D02*
X5768D01*
X5773Y-27567D01*
X5817Y-27633D01*
X5883Y-27677D01*
X5910Y-27682D01*
Y-27540D01*
D02*
G37*
G36*
X63080Y-26068D02*
X63003Y-26083D01*
X62937Y-26127D01*
X62893Y-26193D01*
X62878Y-26270D01*
X62893Y-26347D01*
X62927Y-26398D01*
Y-28420D01*
X62930Y-28437D01*
X62931Y-28454D01*
X62934Y-28460D01*
X62928Y-28490D01*
X62943Y-28567D01*
X62987Y-28633D01*
X63053Y-28677D01*
X63130Y-28692D01*
X63207Y-28677D01*
X63273Y-28633D01*
X63317Y-28567D01*
X63332Y-28490D01*
X63317Y-28413D01*
X63273Y-28347D01*
X63233Y-28320D01*
Y-26398D01*
X63267Y-26347D01*
X63282Y-26270D01*
X63267Y-26193D01*
X63223Y-26127D01*
X63157Y-26083D01*
X63080Y-26068D01*
D02*
G37*
G36*
X62080D02*
X62003Y-26083D01*
X61937Y-26127D01*
X61893Y-26193D01*
X61878Y-26270D01*
X61893Y-26347D01*
X61927Y-26398D01*
Y-28340D01*
X61917Y-28347D01*
X61873Y-28413D01*
X61858Y-28490D01*
X61873Y-28567D01*
X61917Y-28633D01*
X61983Y-28677D01*
X62060Y-28692D01*
X62137Y-28677D01*
X62203Y-28633D01*
X62247Y-28567D01*
X62262Y-28490D01*
X62247Y-28413D01*
X62233Y-28392D01*
Y-26398D01*
X62267Y-26347D01*
X62282Y-26270D01*
X62267Y-26193D01*
X62223Y-26127D01*
X62157Y-26083D01*
X62080Y-26068D01*
D02*
G37*
G36*
X65080D02*
X65003Y-26083D01*
X64937Y-26127D01*
X64893Y-26193D01*
X64878Y-26270D01*
X64893Y-26347D01*
X64927Y-26398D01*
Y-28340D01*
X64917Y-28347D01*
X64873Y-28413D01*
X64858Y-28490D01*
X64873Y-28567D01*
X64917Y-28633D01*
X64983Y-28677D01*
X65060Y-28692D01*
X65137Y-28677D01*
X65203Y-28633D01*
X65247Y-28567D01*
X65262Y-28490D01*
X65247Y-28413D01*
X65233Y-28392D01*
Y-26398D01*
X65267Y-26347D01*
X65282Y-26270D01*
X65267Y-26193D01*
X65223Y-26127D01*
X65157Y-26083D01*
X65080Y-26068D01*
D02*
G37*
G36*
X64080D02*
X64003Y-26083D01*
X63937Y-26127D01*
X63893Y-26193D01*
X63878Y-26270D01*
X63893Y-26347D01*
X63927Y-26398D01*
Y-28410D01*
X63931Y-28429D01*
X63932Y-28448D01*
X63937Y-28458D01*
X63939Y-28469D01*
X63941Y-28472D01*
X63938Y-28490D01*
X63953Y-28567D01*
X63997Y-28633D01*
X64063Y-28677D01*
X64140Y-28692D01*
X64217Y-28677D01*
X64283Y-28633D01*
X64327Y-28567D01*
X64342Y-28490D01*
X64327Y-28413D01*
X64283Y-28347D01*
X64233Y-28313D01*
Y-26398D01*
X64267Y-26347D01*
X64282Y-26270D01*
X64267Y-26193D01*
X64223Y-26127D01*
X64157Y-26083D01*
X64080Y-26068D01*
D02*
G37*
G36*
X52894Y-25778D02*
Y-25920D01*
X53036D01*
X53031Y-25893D01*
X52987Y-25827D01*
X52921Y-25783D01*
X52894Y-25778D01*
D02*
G37*
G36*
X1927Y-24540D02*
X1900Y-24546D01*
X1834Y-24590D01*
X1790Y-24655D01*
X1785Y-24683D01*
X1927D01*
Y-24540D01*
D02*
G37*
G36*
X10770Y-24658D02*
Y-24800D01*
X10912D01*
X10907Y-24773D01*
X10863Y-24707D01*
X10797Y-24663D01*
X10770Y-24658D01*
D02*
G37*
G36*
X35550Y-22630D02*
X35483Y-22639D01*
X35420Y-22665D01*
X35366Y-22706D01*
X35325Y-22760D01*
X35299Y-22823D01*
X35290Y-22890D01*
X35299Y-22957D01*
X35325Y-23020D01*
X35366Y-23074D01*
X35379Y-23083D01*
X35319Y-23738D01*
X35320Y-23745D01*
X35319Y-23752D01*
X35323Y-23774D01*
X35326Y-23797D01*
X35329Y-23803D01*
X35330Y-23810D01*
X35343Y-23829D01*
X35354Y-23850D01*
X35360Y-23854D01*
X35364Y-23860D01*
X37732Y-26228D01*
X37781Y-26261D01*
X37840Y-26273D01*
X38227D01*
X38259Y-26323D01*
X38248Y-26380D01*
X38263Y-26457D01*
X38290Y-26497D01*
X38263Y-26547D01*
X38103D01*
X38048Y-26492D01*
X37999Y-26459D01*
X37940Y-26447D01*
X33447D01*
X33430Y-26397D01*
X33448Y-26384D01*
X33508Y-26305D01*
X33546Y-26214D01*
X33559Y-26116D01*
X33546Y-26018D01*
X33508Y-25926D01*
X33448Y-25848D01*
X33369Y-25788D01*
X33278Y-25750D01*
X33180Y-25737D01*
X33111D01*
X33013Y-25750D01*
X32922Y-25788D01*
X32843Y-25848D01*
X32783Y-25926D01*
X32745Y-26018D01*
X32732Y-26116D01*
X32745Y-26214D01*
X32783Y-26305D01*
X32843Y-26384D01*
X32861Y-26397D01*
X32844Y-26447D01*
X32447D01*
X32430Y-26397D01*
X32448Y-26384D01*
X32508Y-26305D01*
X32546Y-26214D01*
X32559Y-26116D01*
X32546Y-26018D01*
X32508Y-25926D01*
X32448Y-25848D01*
X32369Y-25788D01*
X32278Y-25750D01*
X32180Y-25737D01*
X32111D01*
X32013Y-25750D01*
X31922Y-25788D01*
X31843Y-25848D01*
X31783Y-25926D01*
X31745Y-26018D01*
X31732Y-26116D01*
X31745Y-26214D01*
X31783Y-26305D01*
X31843Y-26384D01*
X31861Y-26397D01*
X31844Y-26447D01*
X31447D01*
X31430Y-26397D01*
X31448Y-26384D01*
X31508Y-26305D01*
X31546Y-26214D01*
X31552Y-26166D01*
X31145D01*
X30739D01*
X30745Y-26214D01*
X30783Y-26305D01*
X30843Y-26384D01*
X30922Y-26444D01*
X31013Y-26482D01*
X31091Y-26492D01*
X31111Y-26542D01*
X31037Y-26616D01*
X31004Y-26666D01*
X30997Y-26704D01*
X30835D01*
X30796Y-26712D01*
X30763Y-26734D01*
X30741Y-26767D01*
X30733Y-26806D01*
Y-27426D01*
X30741Y-27465D01*
X30763Y-27498D01*
X30796Y-27520D01*
X30835Y-27528D01*
X31455D01*
X31494Y-27520D01*
X31528Y-27498D01*
X31550Y-27465D01*
X31557Y-27426D01*
Y-26806D01*
X31557Y-26803D01*
X31596Y-26753D01*
X31863D01*
X31880Y-26803D01*
X31853Y-26823D01*
X31787Y-26909D01*
X31746Y-27009D01*
X31732Y-27116D01*
X31746Y-27223D01*
X31787Y-27323D01*
X31853Y-27408D01*
X31939Y-27474D01*
X32038Y-27515D01*
X32145Y-27529D01*
X32252Y-27515D01*
X32306Y-27493D01*
X32497Y-27684D01*
X32547Y-27717D01*
X32605Y-27729D01*
X33564D01*
X33623Y-27717D01*
X33672Y-27684D01*
X34213Y-27143D01*
X36395D01*
X36414Y-27178D01*
X36417Y-27193D01*
X36403Y-27265D01*
X36418Y-27342D01*
X36462Y-27408D01*
X36528Y-27452D01*
X36605Y-27467D01*
X36643Y-27460D01*
X37052Y-27868D01*
X37101Y-27901D01*
X37160Y-27913D01*
X47510D01*
X47569Y-27901D01*
X47618Y-27868D01*
X48507Y-26979D01*
X48567Y-26967D01*
X48633Y-26923D01*
X48677Y-26857D01*
X48692Y-26780D01*
X48677Y-26703D01*
X48633Y-26637D01*
X48567Y-26593D01*
X48490Y-26578D01*
X48413Y-26593D01*
X48347Y-26637D01*
X48303Y-26703D01*
X48291Y-26763D01*
X47447Y-27607D01*
X47255D01*
X47235Y-27561D01*
X47567Y-27229D01*
X47627Y-27217D01*
X47693Y-27173D01*
X47737Y-27107D01*
X47752Y-27030D01*
X47737Y-26953D01*
X47693Y-26887D01*
X47627Y-26843D01*
X47550Y-26828D01*
X47473Y-26843D01*
X47407Y-26887D01*
X47363Y-26953D01*
X47351Y-27013D01*
X46988Y-27375D01*
X43042D01*
X43021Y-27325D01*
X44843Y-25503D01*
X58748D01*
X58775Y-25553D01*
X58749Y-25593D01*
X58743Y-25620D01*
X59128D01*
X59122Y-25593D01*
X59096Y-25553D01*
X59123Y-25503D01*
X60980D01*
X61039Y-25491D01*
X61088Y-25458D01*
X61894Y-24652D01*
X62400D01*
X62439Y-24644D01*
X62472Y-24622D01*
X62494Y-24589D01*
X62502Y-24550D01*
Y-24014D01*
X62548Y-23994D01*
X62690Y-24136D01*
X62676Y-24240D01*
X62691Y-24347D01*
X62732Y-24447D01*
X62798Y-24532D01*
X62883Y-24598D01*
X62983Y-24639D01*
X63090Y-24654D01*
X63197Y-24639D01*
X63297Y-24598D01*
X63382Y-24532D01*
X63448Y-24447D01*
X63489Y-24347D01*
X63504Y-24240D01*
X63489Y-24133D01*
X63448Y-24033D01*
X63382Y-23948D01*
X63297Y-23882D01*
X63197Y-23841D01*
X63090Y-23826D01*
X62983Y-23841D01*
X62883Y-23882D01*
X62875Y-23888D01*
X62685Y-23699D01*
X62705Y-23653D01*
X63287D01*
X63713Y-24079D01*
X63691Y-24133D01*
X63676Y-24240D01*
X63691Y-24347D01*
X63732Y-24447D01*
X63798Y-24532D01*
X63883Y-24598D01*
X63983Y-24639D01*
X64090Y-24654D01*
X64197Y-24639D01*
X64297Y-24598D01*
X64382Y-24532D01*
X64448Y-24447D01*
X64489Y-24347D01*
X64504Y-24240D01*
X64489Y-24133D01*
X64448Y-24033D01*
X64382Y-23948D01*
X64297Y-23882D01*
X64197Y-23841D01*
X64090Y-23826D01*
X63983Y-23841D01*
X63929Y-23863D01*
X63565Y-23499D01*
X63585Y-23453D01*
X64457D01*
X64849Y-23845D01*
X64845Y-23912D01*
X64798Y-23948D01*
X64732Y-24033D01*
X64691Y-24133D01*
X64676Y-24240D01*
X64691Y-24347D01*
X64732Y-24447D01*
X64798Y-24532D01*
X64883Y-24598D01*
X64983Y-24639D01*
X65090Y-24654D01*
X65197Y-24639D01*
X65297Y-24598D01*
X65382Y-24532D01*
X65448Y-24447D01*
X65489Y-24347D01*
X65504Y-24240D01*
X65489Y-24133D01*
X65448Y-24033D01*
X65382Y-23948D01*
X65297Y-23882D01*
X65241Y-23859D01*
X65231Y-23811D01*
X65198Y-23762D01*
X64628Y-23192D01*
X64579Y-23159D01*
X64520Y-23147D01*
X61330D01*
X61271Y-23159D01*
X61222Y-23192D01*
X59847Y-24567D01*
X44517D01*
X44459Y-24579D01*
X44409Y-24612D01*
X44034Y-24987D01*
X40258D01*
X40207Y-24953D01*
X40130Y-24938D01*
X40053Y-24953D01*
X39987Y-24997D01*
X39943Y-25063D01*
X39928Y-25140D01*
X39943Y-25217D01*
X39987Y-25283D01*
X40053Y-25327D01*
X40130Y-25342D01*
X40207Y-25327D01*
X40258Y-25293D01*
X40459D01*
X40486Y-25343D01*
X40473Y-25363D01*
X40458Y-25440D01*
X40473Y-25517D01*
X40517Y-25583D01*
X40583Y-25627D01*
X40660Y-25642D01*
X40737Y-25627D01*
X40788Y-25593D01*
X43973D01*
X43992Y-25639D01*
X43539Y-26092D01*
X43500Y-26074D01*
X43492Y-26068D01*
X43477Y-25993D01*
X43433Y-25927D01*
X43367Y-25883D01*
X43290Y-25868D01*
X43213Y-25883D01*
X43162Y-25917D01*
X43002D01*
X42943Y-25929D01*
X42893Y-25962D01*
X42888Y-25967D01*
X39217D01*
X39193Y-25923D01*
X39197Y-25917D01*
X39202Y-25890D01*
X38818D01*
X38823Y-25917D01*
X38827Y-25923D01*
X38803Y-25967D01*
X37903D01*
X35631Y-23694D01*
X35683Y-23112D01*
X35734Y-23074D01*
X35775Y-23020D01*
X35801Y-22957D01*
X35810Y-22890D01*
X35801Y-22823D01*
X35775Y-22760D01*
X35734Y-22706D01*
X35680Y-22665D01*
X35617Y-22639D01*
X35550Y-22630D01*
D02*
G37*
G36*
X2027Y-24540D02*
Y-24683D01*
X2169D01*
X2164Y-24655D01*
X2120Y-24590D01*
X2055Y-24546D01*
X2027Y-24540D01*
D02*
G37*
G36*
X10670Y-24658D02*
X10643Y-24663D01*
X10577Y-24707D01*
X10533Y-24773D01*
X10528Y-24800D01*
X10670D01*
Y-24658D01*
D02*
G37*
G36*
X42782Y-24659D02*
X42640D01*
Y-24801D01*
X42667Y-24796D01*
X42733Y-24752D01*
X42777Y-24686D01*
X42782Y-24659D01*
D02*
G37*
G36*
X42540D02*
X42398D01*
X42403Y-24686D01*
X42447Y-24752D01*
X42513Y-24796D01*
X42540Y-24801D01*
Y-24659D01*
D02*
G37*
G36*
X8014Y-24658D02*
Y-24800D01*
X8156D01*
X8151Y-24773D01*
X8107Y-24707D01*
X8042Y-24663D01*
X8014Y-24658D01*
D02*
G37*
G36*
X7914D02*
X7887Y-24663D01*
X7821Y-24707D01*
X7777Y-24773D01*
X7772Y-24800D01*
X7914D01*
Y-24658D01*
D02*
G37*
G36*
X42540Y-24416D02*
X42513Y-24422D01*
X42447Y-24466D01*
X42403Y-24531D01*
X42398Y-24559D01*
X42540D01*
Y-24416D01*
D02*
G37*
G36*
X18947Y-24220D02*
X18805D01*
Y-24362D01*
X18833Y-24357D01*
X18898Y-24313D01*
X18942Y-24247D01*
X18947Y-24220D01*
D02*
G37*
G36*
X18705D02*
X18563D01*
X18568Y-24247D01*
X18612Y-24313D01*
X18678Y-24357D01*
X18705Y-24362D01*
Y-24220D01*
D02*
G37*
G36*
X68640Y-24122D02*
X68613Y-24127D01*
X68547Y-24171D01*
X68503Y-24237D01*
X68498Y-24264D01*
X68640D01*
Y-24122D01*
D02*
G37*
G36*
X73500Y-23670D02*
X73490Y-23672D01*
X73480D01*
X73419Y-23684D01*
X73417Y-23684D01*
X73417Y-23685D01*
X73396Y-23689D01*
X73359Y-23704D01*
X73341Y-23716D01*
X73340Y-23716D01*
X73339Y-23717D01*
X73287Y-23752D01*
X73287Y-23752D01*
X73259Y-23780D01*
X73224Y-23832D01*
X73224Y-23833D01*
X73223Y-23834D01*
X73211Y-23852D01*
X73196Y-23888D01*
X73192Y-23910D01*
X73192Y-23910D01*
X73191Y-23911D01*
X73179Y-23973D01*
Y-24013D01*
X73191Y-24074D01*
X73192Y-24075D01*
X73192Y-24076D01*
X73196Y-24097D01*
X73211Y-24134D01*
X73223Y-24152D01*
X73224Y-24152D01*
X73224Y-24153D01*
X73259Y-24206D01*
X73259Y-24206D01*
X73287Y-24234D01*
X73339Y-24268D01*
X73340Y-24269D01*
X73341Y-24269D01*
X73359Y-24281D01*
X73396Y-24297D01*
X73417Y-24301D01*
X73417Y-24301D01*
X73419Y-24301D01*
X73480Y-24314D01*
X73490D01*
X73500Y-24315D01*
X73510Y-24314D01*
X73520D01*
X73581Y-24301D01*
X73583Y-24301D01*
X73583Y-24301D01*
X73604Y-24297D01*
X73641Y-24281D01*
X73659Y-24269D01*
X73660Y-24269D01*
X73661Y-24268D01*
X73713Y-24234D01*
X73713Y-24234D01*
X73741Y-24206D01*
X73776Y-24153D01*
X73776Y-24152D01*
X73777Y-24152D01*
X73789Y-24134D01*
X73804Y-24097D01*
X73808Y-24076D01*
X73808Y-24075D01*
X73809Y-24074D01*
X73821Y-24013D01*
Y-23973D01*
X73809Y-23911D01*
X73808Y-23910D01*
X73808Y-23910D01*
X73804Y-23888D01*
X73789Y-23852D01*
X73777Y-23834D01*
X73776Y-23833D01*
X73776Y-23832D01*
X73741Y-23780D01*
X73741Y-23780D01*
X73713Y-23752D01*
X73661Y-23717D01*
X73660Y-23716D01*
X73659Y-23716D01*
X73641Y-23704D01*
X73604Y-23689D01*
X73583Y-23685D01*
X73583Y-23684D01*
X73581Y-23684D01*
X73520Y-23672D01*
X73510D01*
X73500Y-23670D01*
D02*
G37*
G36*
X30797Y-24340D02*
X30655D01*
Y-24482D01*
X30682Y-24477D01*
X30748Y-24433D01*
X30792Y-24367D01*
X30797Y-24340D01*
D02*
G37*
G36*
X68640Y-24364D02*
X68498D01*
X68503Y-24391D01*
X68547Y-24457D01*
X68613Y-24501D01*
X68640Y-24506D01*
Y-24364D01*
D02*
G37*
G36*
X42640Y-24416D02*
Y-24559D01*
X42782D01*
X42777Y-24531D01*
X42733Y-24466D01*
X42667Y-24422D01*
X42640Y-24416D01*
D02*
G37*
G36*
X30555Y-24340D02*
X30412D01*
X30418Y-24367D01*
X30462Y-24433D01*
X30527Y-24477D01*
X30555Y-24482D01*
Y-24340D01*
D02*
G37*
G36*
X68882Y-24364D02*
X68740D01*
Y-24506D01*
X68767Y-24501D01*
X68833Y-24457D01*
X68877Y-24391D01*
X68882Y-24364D01*
D02*
G37*
G36*
X26383Y-24910D02*
X26280Y-24924D01*
X26184Y-24964D01*
X26101Y-25027D01*
X26038Y-25109D01*
X25998Y-25206D01*
X25985Y-25309D01*
X25998Y-25412D01*
X26038Y-25508D01*
X26101Y-25591D01*
X26184Y-25654D01*
X26280Y-25694D01*
X26383Y-25708D01*
X26487Y-25694D01*
X26583Y-25654D01*
X26665Y-25591D01*
X26729Y-25508D01*
X26768Y-25412D01*
X26782Y-25309D01*
X26768Y-25206D01*
X26729Y-25109D01*
X26665Y-25027D01*
X26583Y-24964D01*
X26487Y-24924D01*
X26383Y-24910D01*
D02*
G37*
G36*
X39060Y-25648D02*
Y-25790D01*
X39202D01*
X39197Y-25763D01*
X39153Y-25697D01*
X39087Y-25653D01*
X39060Y-25648D01*
D02*
G37*
G36*
X24140Y-25543D02*
X24113Y-25548D01*
X24047Y-25592D01*
X24003Y-25658D01*
X23998Y-25685D01*
X24140D01*
Y-25543D01*
D02*
G37*
G36*
X28942Y-24910D02*
X28839Y-24924D01*
X28743Y-24964D01*
X28661Y-25027D01*
X28597Y-25109D01*
X28557Y-25206D01*
X28544Y-25309D01*
X28557Y-25412D01*
X28597Y-25508D01*
X28661Y-25591D01*
X28743Y-25654D01*
X28839Y-25694D01*
X28942Y-25708D01*
X29046Y-25694D01*
X29142Y-25654D01*
X29224Y-25591D01*
X29288Y-25508D01*
X29328Y-25412D01*
X29341Y-25309D01*
X29328Y-25206D01*
X29288Y-25109D01*
X29224Y-25027D01*
X29142Y-24964D01*
X29046Y-24924D01*
X28942Y-24910D01*
D02*
G37*
G36*
X38960Y-25648D02*
X38933Y-25653D01*
X38867Y-25697D01*
X38823Y-25763D01*
X38818Y-25790D01*
X38960D01*
Y-25648D01*
D02*
G37*
G36*
X59128Y-25720D02*
X58986D01*
Y-25862D01*
X59013Y-25857D01*
X59079Y-25813D01*
X59122Y-25747D01*
X59128Y-25720D01*
D02*
G37*
G36*
X58886D02*
X58743D01*
X58749Y-25747D01*
X58792Y-25813D01*
X58858Y-25857D01*
X58886Y-25862D01*
Y-25720D01*
D02*
G37*
G36*
X74220Y-25713D02*
Y-25855D01*
X74362D01*
X74357Y-25828D01*
X74313Y-25762D01*
X74247Y-25719D01*
X74220Y-25713D01*
D02*
G37*
G36*
X74120D02*
X74093Y-25719D01*
X74027Y-25762D01*
X73983Y-25828D01*
X73978Y-25855D01*
X74120D01*
Y-25713D01*
D02*
G37*
G36*
X24240Y-25543D02*
Y-25685D01*
X24382D01*
X24377Y-25658D01*
X24333Y-25592D01*
X24267Y-25548D01*
X24240Y-25543D01*
D02*
G37*
G36*
X10912Y-24900D02*
X10770D01*
Y-25042D01*
X10797Y-25037D01*
X10863Y-24993D01*
X10907Y-24927D01*
X10912Y-24900D01*
D02*
G37*
G36*
X10670D02*
X10528D01*
X10533Y-24927D01*
X10577Y-24993D01*
X10643Y-25037D01*
X10670Y-25042D01*
Y-24900D01*
D02*
G37*
G36*
X2169Y-24783D02*
X2027D01*
Y-24925D01*
X2055Y-24920D01*
X2120Y-24876D01*
X2164Y-24810D01*
X2169Y-24783D01*
D02*
G37*
G36*
X1927D02*
X1785D01*
X1790Y-24810D01*
X1834Y-24876D01*
X1900Y-24920D01*
X1927Y-24925D01*
Y-24783D01*
D02*
G37*
G36*
X8156Y-24900D02*
X8014D01*
Y-25042D01*
X8042Y-25037D01*
X8107Y-24993D01*
X8151Y-24927D01*
X8156Y-24900D01*
D02*
G37*
G36*
X2706Y-25051D02*
X2273D01*
X2196Y-25062D01*
X2123Y-25091D01*
X2061Y-25139D01*
X2014Y-25201D01*
X1984Y-25273D01*
X1974Y-25351D01*
X1984Y-25428D01*
X2014Y-25500D01*
X2061Y-25562D01*
X2123Y-25610D01*
X2196Y-25640D01*
X2273Y-25650D01*
X2706D01*
X2784Y-25640D01*
X2856Y-25610D01*
X2918Y-25562D01*
X2965Y-25500D01*
X2995Y-25428D01*
X3006Y-25351D01*
X2995Y-25273D01*
X2965Y-25201D01*
X2918Y-25139D01*
X2856Y-25091D01*
X2784Y-25062D01*
X2706Y-25051D01*
D02*
G37*
G36*
X1190D02*
X875D01*
X798Y-25062D01*
X726Y-25091D01*
X664Y-25139D01*
X616Y-25201D01*
X586Y-25273D01*
X576Y-25351D01*
X586Y-25428D01*
X616Y-25500D01*
X664Y-25562D01*
X726Y-25610D01*
X798Y-25640D01*
X875Y-25650D01*
X1190D01*
X1268Y-25640D01*
X1340Y-25610D01*
X1402Y-25562D01*
X1450Y-25500D01*
X1480Y-25428D01*
X1490Y-25351D01*
X1480Y-25273D01*
X1450Y-25201D01*
X1402Y-25139D01*
X1340Y-25091D01*
X1268Y-25062D01*
X1190Y-25051D01*
D02*
G37*
G36*
X7914Y-24900D02*
X7772D01*
X7777Y-24927D01*
X7821Y-24993D01*
X7887Y-25037D01*
X7914Y-25042D01*
Y-24900D01*
D02*
G37*
G36*
X3595Y-24926D02*
X3518Y-24936D01*
X3445Y-24966D01*
X3383Y-25013D01*
X3336Y-25075D01*
X3306Y-25148D01*
X3296Y-25225D01*
X3306Y-25302D01*
X3336Y-25375D01*
X3383Y-25437D01*
X3445Y-25484D01*
X3518Y-25514D01*
X3595Y-25524D01*
X3672Y-25514D01*
X3745Y-25484D01*
X3807Y-25437D01*
X3854Y-25375D01*
X3884Y-25302D01*
X3894Y-25225D01*
X3884Y-25148D01*
X3854Y-25075D01*
X3807Y-25013D01*
X3745Y-24966D01*
X3672Y-24936D01*
X3595Y-24926D01*
D02*
G37*
G36*
X17596Y-7328D02*
X17499Y-7345D01*
X17409Y-7386D01*
X17333Y-7449D01*
X17276Y-7530D01*
X17241Y-7623D01*
X17084Y-8313D01*
X17074Y-8412D01*
X17091Y-8509D01*
X17132Y-8599D01*
X17195Y-8675D01*
X17276Y-8733D01*
X17369Y-8767D01*
X17467Y-8776D01*
X17565Y-8760D01*
X17654Y-8719D01*
X17731Y-8655D01*
X17788Y-8575D01*
X17822Y-8482D01*
X17980Y-7791D01*
X17989Y-7693D01*
X17973Y-7595D01*
X17931Y-7505D01*
X17868Y-7429D01*
X17788Y-7372D01*
X17695Y-7337D01*
X17596Y-7328D01*
D02*
G37*
G36*
X12325Y-7338D02*
X12226Y-7347D01*
X12134Y-7382D01*
X12053Y-7439D01*
X11990Y-7515D01*
X11949Y-7605D01*
X11932Y-7703D01*
X11941Y-7801D01*
X12099Y-8492D01*
X12133Y-8585D01*
X12191Y-8665D01*
X12267Y-8729D01*
X12357Y-8770D01*
X12454Y-8786D01*
X12553Y-8777D01*
X12645Y-8743D01*
X12726Y-8685D01*
X12789Y-8609D01*
X12830Y-8519D01*
X12847Y-8422D01*
X12838Y-8323D01*
X12680Y-7633D01*
X12646Y-7540D01*
X12588Y-7459D01*
X12512Y-7396D01*
X12422Y-7355D01*
X12325Y-7338D01*
D02*
G37*
G36*
X33344Y-7328D02*
X33247Y-7345D01*
X33157Y-7386D01*
X33081Y-7449D01*
X33024Y-7530D01*
X32989Y-7623D01*
X32832Y-8313D01*
X32822Y-8412D01*
X32839Y-8509D01*
X32880Y-8599D01*
X32943Y-8675D01*
X33024Y-8733D01*
X33117Y-8767D01*
X33215Y-8776D01*
X33313Y-8760D01*
X33403Y-8719D01*
X33479Y-8655D01*
X33536Y-8575D01*
X33570Y-8482D01*
X33728Y-7791D01*
X33737Y-7693D01*
X33721Y-7595D01*
X33679Y-7505D01*
X33616Y-7429D01*
X33536Y-7372D01*
X33443Y-7337D01*
X33344Y-7328D01*
D02*
G37*
G36*
X24530D02*
X24431Y-7337D01*
X24338Y-7372D01*
X24258Y-7429D01*
X24195Y-7505D01*
X24153Y-7595D01*
X24137Y-7693D01*
X24146Y-7791D01*
X24304Y-8482D01*
X24338Y-8575D01*
X24395Y-8655D01*
X24472Y-8719D01*
X24561Y-8760D01*
X24659Y-8776D01*
X24757Y-8767D01*
X24850Y-8733D01*
X24931Y-8675D01*
X24994Y-8599D01*
X25035Y-8509D01*
X25052Y-8412D01*
X25042Y-8313D01*
X24885Y-7623D01*
X24850Y-7530D01*
X24793Y-7449D01*
X24717Y-7386D01*
X24627Y-7345D01*
X24530Y-7328D01*
D02*
G37*
G36*
X5392Y-7338D02*
X5294Y-7355D01*
X5204Y-7396D01*
X5128Y-7459D01*
X5071Y-7540D01*
X5037Y-7633D01*
X4879Y-8323D01*
X4870Y-8422D01*
X4886Y-8519D01*
X4927Y-8609D01*
X4991Y-8685D01*
X5071Y-8743D01*
X5164Y-8777D01*
X5262Y-8786D01*
X5360Y-8770D01*
X5450Y-8729D01*
X5526Y-8665D01*
X5583Y-8585D01*
X5618Y-8492D01*
X5775Y-7801D01*
X5784Y-7703D01*
X5768Y-7605D01*
X5727Y-7515D01*
X5664Y-7439D01*
X5583Y-7382D01*
X5490Y-7347D01*
X5392Y-7338D01*
D02*
G37*
G36*
X28200Y-9488D02*
Y-9630D01*
X28342D01*
X28337Y-9603D01*
X28293Y-9537D01*
X28227Y-9493D01*
X28200Y-9488D01*
D02*
G37*
G36*
X28100D02*
X28073Y-9493D01*
X28007Y-9537D01*
X27963Y-9603D01*
X27958Y-9630D01*
X28100D01*
Y-9488D01*
D02*
G37*
G36*
X56015Y-9398D02*
X55988Y-9403D01*
X55922Y-9447D01*
X55878Y-9513D01*
X55873Y-9540D01*
X56015D01*
Y-9398D01*
D02*
G37*
G36*
X57474Y-9104D02*
X57407Y-9113D01*
X57344Y-9139D01*
X57290Y-9180D01*
X57267Y-9211D01*
X56766D01*
X56707Y-9223D01*
X56658Y-9256D01*
X56312Y-9602D01*
X56265Y-9578D01*
X56252Y-9513D01*
X56208Y-9447D01*
X56142Y-9403D01*
X56115Y-9398D01*
Y-9590D01*
X56065D01*
Y-9640D01*
X55873D01*
X55878Y-9667D01*
X55922Y-9733D01*
X55988Y-9777D01*
X56053Y-9790D01*
X56077Y-9837D01*
X47427Y-18487D01*
X39579D01*
X39520Y-18499D01*
X39471Y-18532D01*
X38757Y-19245D01*
X38711Y-19221D01*
X38718Y-19185D01*
Y-19028D01*
X38752Y-18977D01*
X38768Y-18900D01*
X38752Y-18823D01*
X38708Y-18757D01*
X38643Y-18713D01*
X38565Y-18698D01*
X38488Y-18713D01*
X38422Y-18757D01*
X38407Y-18780D01*
X38350Y-18788D01*
X38297Y-18753D01*
X38270Y-18748D01*
Y-18940D01*
Y-19132D01*
X38297Y-19127D01*
X38329Y-19106D01*
X38386Y-19128D01*
X38389Y-19144D01*
X37677Y-19857D01*
X37468D01*
X37417Y-19823D01*
X37340Y-19808D01*
X37263Y-19823D01*
X37197Y-19867D01*
X37153Y-19933D01*
X37138Y-20010D01*
X37153Y-20087D01*
X37197Y-20153D01*
X37226Y-20173D01*
X37231Y-20222D01*
X37122Y-20332D01*
X37089Y-20381D01*
X37077Y-20440D01*
Y-20476D01*
X37027Y-20503D01*
X36997Y-20483D01*
X36970Y-20478D01*
Y-20670D01*
X36870D01*
Y-20464D01*
X36833Y-20434D01*
Y-19058D01*
X36867Y-19007D01*
X36882Y-18930D01*
X36867Y-18853D01*
X36823Y-18787D01*
X36757Y-18743D01*
X36680Y-18728D01*
X36603Y-18743D01*
X36537Y-18787D01*
X36493Y-18853D01*
X36478Y-18930D01*
X36493Y-19007D01*
X36527Y-19058D01*
Y-20475D01*
X36472Y-20486D01*
X36406Y-20530D01*
X36363Y-20596D01*
X36347Y-20673D01*
X36363Y-20751D01*
X36406Y-20816D01*
X36428Y-20831D01*
X36441Y-20899D01*
X36435Y-20907D01*
X36103D01*
X35913Y-20717D01*
Y-20418D01*
X35947Y-20367D01*
X35962Y-20290D01*
X35947Y-20213D01*
X35903Y-20147D01*
X35837Y-20103D01*
X35760Y-20088D01*
X35683Y-20103D01*
X35617Y-20147D01*
X35573Y-20213D01*
X35558Y-20290D01*
X35573Y-20367D01*
X35588Y-20390D01*
X35552Y-20426D01*
X35517Y-20403D01*
X35440Y-20388D01*
X35388Y-20398D01*
X34810Y-19820D01*
X34819Y-19759D01*
X34843Y-19743D01*
X35647D01*
X35991Y-20087D01*
X36003Y-20147D01*
X36047Y-20213D01*
X36113Y-20257D01*
X36190Y-20272D01*
X36267Y-20257D01*
X36333Y-20213D01*
X36377Y-20147D01*
X36392Y-20070D01*
X36377Y-19993D01*
X36333Y-19927D01*
X36267Y-19883D01*
X36207Y-19871D01*
X35818Y-19482D01*
X35769Y-19449D01*
X35710Y-19437D01*
X34843D01*
X34792Y-19403D01*
X34715Y-19388D01*
X34637Y-19403D01*
X34613Y-19419D01*
X34563Y-19393D01*
Y-19238D01*
X34722Y-19079D01*
X34782Y-19067D01*
X34848Y-19023D01*
X34892Y-18957D01*
X34907Y-18880D01*
X34892Y-18803D01*
X34848Y-18737D01*
X34782Y-18693D01*
X34705Y-18678D01*
X34627Y-18693D01*
X34562Y-18737D01*
X34518Y-18803D01*
X34506Y-18863D01*
X34302Y-19067D01*
X34269Y-19116D01*
X34257Y-19175D01*
Y-19637D01*
X34269Y-19695D01*
X34302Y-19745D01*
X35140Y-20583D01*
X35125Y-20631D01*
X35113Y-20633D01*
X35047Y-20677D01*
X35003Y-20743D01*
X34991Y-20803D01*
X34657Y-21137D01*
X28448D01*
X28397Y-21103D01*
X28320Y-21088D01*
X28243Y-21103D01*
X28177Y-21147D01*
X28140Y-21203D01*
X28090Y-21217D01*
X28053Y-21185D01*
Y-14573D01*
X29232Y-13395D01*
X29270Y-13400D01*
X29337Y-13391D01*
X29400Y-13365D01*
X29454Y-13324D01*
X29495Y-13270D01*
X29521Y-13207D01*
X29530Y-13140D01*
X29521Y-13073D01*
X29495Y-13010D01*
X29454Y-12956D01*
X29400Y-12915D01*
X29337Y-12889D01*
X29331Y-12888D01*
X29307Y-12835D01*
X29311Y-12829D01*
X29323Y-12770D01*
Y-9941D01*
X29576Y-9689D01*
X29614Y-9694D01*
X29681Y-9685D01*
X29744Y-9659D01*
X29798Y-9618D01*
X29839Y-9564D01*
X29865Y-9501D01*
X29874Y-9434D01*
X29865Y-9367D01*
X29839Y-9304D01*
X29798Y-9250D01*
X29744Y-9209D01*
X29681Y-9183D01*
X29614Y-9174D01*
X29547Y-9183D01*
X29484Y-9209D01*
X29430Y-9250D01*
X29389Y-9304D01*
X29363Y-9367D01*
X29354Y-9434D01*
X29359Y-9472D01*
X29062Y-9770D01*
X29029Y-9820D01*
X29017Y-9878D01*
Y-12707D01*
X27582Y-14142D01*
X27549Y-14191D01*
X27537Y-14250D01*
Y-21323D01*
X27549Y-21381D01*
X27582Y-21431D01*
X28039Y-21888D01*
X28089Y-21921D01*
X28147Y-21933D01*
X31230D01*
X31246Y-21983D01*
X31197Y-22016D01*
X31153Y-22081D01*
X31148Y-22109D01*
X31532D01*
X31527Y-22081D01*
X31483Y-22016D01*
X31434Y-21983D01*
X31449Y-21933D01*
X39088D01*
X39652Y-22497D01*
X39664Y-22557D01*
X39708Y-22622D01*
X39773Y-22666D01*
X39851Y-22682D01*
X39928Y-22666D01*
X39994Y-22622D01*
X40038Y-22557D01*
X40053Y-22479D01*
X40038Y-22402D01*
X39994Y-22336D01*
X39928Y-22292D01*
X39868Y-22280D01*
X39260Y-21672D01*
X39210Y-21639D01*
X39152Y-21627D01*
X38195D01*
X38175Y-21581D01*
X38977Y-20779D01*
X39037Y-20767D01*
X39103Y-20723D01*
X39147Y-20657D01*
X39162Y-20580D01*
X39147Y-20503D01*
X39103Y-20437D01*
X39037Y-20393D01*
X38960Y-20378D01*
X38883Y-20393D01*
X38817Y-20437D01*
X38773Y-20503D01*
X38761Y-20563D01*
X37897Y-21427D01*
X34870D01*
X34849Y-21377D01*
X35207Y-21019D01*
X35267Y-21007D01*
X35333Y-20963D01*
X35377Y-20897D01*
X35390Y-20833D01*
X35431Y-20791D01*
X35440Y-20792D01*
X35517Y-20777D01*
X35557Y-20750D01*
X35607Y-20777D01*
Y-20780D01*
X35619Y-20839D01*
X35652Y-20888D01*
X35932Y-21168D01*
X35981Y-21201D01*
X36040Y-21213D01*
X37010D01*
X37069Y-21201D01*
X37118Y-21168D01*
X37338Y-20948D01*
X37371Y-20899D01*
X37383Y-20840D01*
Y-20561D01*
X37433Y-20556D01*
X37443Y-20607D01*
X37487Y-20673D01*
X37553Y-20717D01*
X37630Y-20732D01*
X37707Y-20717D01*
X37746Y-20691D01*
X38383D01*
X38441Y-20680D01*
X38491Y-20647D01*
X38637Y-20501D01*
X38659Y-20467D01*
X39825Y-19301D01*
X47302D01*
X47360Y-19290D01*
X47410Y-19257D01*
X52129Y-14537D01*
X55137D01*
X55160Y-14568D01*
X55214Y-14609D01*
X55277Y-14635D01*
X55344Y-14644D01*
X55411Y-14635D01*
X55474Y-14609D01*
X55528Y-14568D01*
X55569Y-14514D01*
X55595Y-14451D01*
X55604Y-14384D01*
X55595Y-14317D01*
X55569Y-14254D01*
X55528Y-14200D01*
X55474Y-14159D01*
X55411Y-14133D01*
X55344Y-14124D01*
X55277Y-14133D01*
X55214Y-14159D01*
X55160Y-14200D01*
X55137Y-14231D01*
X52181D01*
X52161Y-14185D01*
X55374Y-10972D01*
X55414Y-10996D01*
X55417Y-11000D01*
X55404Y-11102D01*
X55417Y-11207D01*
X55458Y-11304D01*
X55522Y-11388D01*
X55605Y-11452D01*
X55703Y-11492D01*
X55807Y-11506D01*
X55912Y-11492D01*
X56009Y-11452D01*
X56092Y-11388D01*
X56156Y-11304D01*
X56197Y-11207D01*
X56211Y-11102D01*
X56197Y-10998D01*
X56156Y-10901D01*
X56092Y-10817D01*
X56009Y-10753D01*
X55912Y-10713D01*
X55807Y-10699D01*
X55705Y-10712D01*
X55701Y-10709D01*
X55677Y-10669D01*
X56829Y-9517D01*
X57267D01*
X57290Y-9548D01*
X57344Y-9589D01*
X57407Y-9615D01*
X57474Y-9624D01*
X57541Y-9615D01*
X57604Y-9589D01*
X57658Y-9548D01*
X57699Y-9494D01*
X57725Y-9431D01*
X57734Y-9364D01*
X57725Y-9297D01*
X57699Y-9234D01*
X57658Y-9180D01*
X57604Y-9139D01*
X57541Y-9113D01*
X57474Y-9104D01*
D02*
G37*
G36*
X40278Y-7328D02*
X40179Y-7337D01*
X40086Y-7372D01*
X40006Y-7429D01*
X39943Y-7505D01*
X39901Y-7595D01*
X39885Y-7693D01*
X39894Y-7791D01*
X40052Y-8482D01*
X40086Y-8575D01*
X40143Y-8655D01*
X40220Y-8719D01*
X40309Y-8760D01*
X40407Y-8776D01*
X40505Y-8767D01*
X40598Y-8733D01*
X40679Y-8675D01*
X40742Y-8599D01*
X40783Y-8509D01*
X40800Y-8412D01*
X40790Y-8313D01*
X40633Y-7623D01*
X40598Y-7530D01*
X40541Y-7449D01*
X40465Y-7386D01*
X40375Y-7345D01*
X40278Y-7328D01*
D02*
G37*
G36*
X6205Y-5956D02*
X6109Y-5980D01*
X6022Y-6028D01*
X5951Y-6097D01*
X5509Y-6651D01*
X5458Y-6735D01*
X5431Y-6831D01*
X5429Y-6929D01*
X5453Y-7025D01*
X5501Y-7112D01*
X5569Y-7183D01*
X5654Y-7234D01*
X5749Y-7262D01*
X5848Y-7263D01*
X5944Y-7240D01*
X6030Y-7192D01*
X6102Y-7123D01*
X6544Y-6569D01*
X6595Y-6484D01*
X6622Y-6389D01*
X6624Y-6291D01*
X6600Y-6195D01*
X6552Y-6108D01*
X6484Y-6037D01*
X6399Y-5986D01*
X6304Y-5958D01*
X6205Y-5956D01*
D02*
G37*
G36*
X80435Y-7328D02*
X80337Y-7337D01*
X80244Y-7372D01*
X80163Y-7429D01*
X80100Y-7505D01*
X80059Y-7595D01*
X80042Y-7693D01*
X80052Y-7791D01*
X80209Y-8482D01*
X80244Y-8575D01*
X80301Y-8655D01*
X80377Y-8719D01*
X80467Y-8760D01*
X80564Y-8776D01*
X80663Y-8767D01*
X80756Y-8733D01*
X80836Y-8675D01*
X80899Y-8599D01*
X80941Y-8509D01*
X80957Y-8412D01*
X80948Y-8313D01*
X80790Y-7623D01*
X80756Y-7530D01*
X80699Y-7449D01*
X80622Y-7386D01*
X80533Y-7345D01*
X80435Y-7328D01*
D02*
G37*
G36*
X18410Y-5946D02*
X18314Y-5970D01*
X18227Y-6018D01*
X18156Y-6087D01*
X17714Y-6641D01*
X17663Y-6725D01*
X17636Y-6821D01*
X17634Y-6919D01*
X17658Y-7015D01*
X17705Y-7102D01*
X17774Y-7173D01*
X17859Y-7224D01*
X17954Y-7252D01*
X18053Y-7253D01*
X18149Y-7230D01*
X18235Y-7182D01*
X18306Y-7113D01*
X18748Y-6559D01*
X18799Y-6474D01*
X18827Y-6379D01*
X18829Y-6281D01*
X18805Y-6185D01*
X18757Y-6098D01*
X18688Y-6027D01*
X18604Y-5976D01*
X18509Y-5948D01*
X18410Y-5946D01*
D02*
G37*
G36*
X11512Y-5956D02*
X11413Y-5958D01*
X11318Y-5986D01*
X11233Y-6037D01*
X11164Y-6108D01*
X11117Y-6195D01*
X11093Y-6291D01*
X11095Y-6389D01*
X11122Y-6484D01*
X11173Y-6569D01*
X11615Y-7123D01*
X11686Y-7192D01*
X11773Y-7240D01*
X11869Y-7263D01*
X11967Y-7262D01*
X12063Y-7234D01*
X12147Y-7183D01*
X12216Y-7112D01*
X12264Y-7025D01*
X12287Y-6929D01*
X12286Y-6831D01*
X12258Y-6735D01*
X12207Y-6651D01*
X11765Y-6097D01*
X11694Y-6028D01*
X11608Y-5980D01*
X11512Y-5956D01*
D02*
G37*
G36*
X73502Y-7328D02*
X73404Y-7345D01*
X73315Y-7386D01*
X73238Y-7449D01*
X73181Y-7530D01*
X73147Y-7623D01*
X72989Y-8313D01*
X72980Y-8412D01*
X72996Y-8509D01*
X73038Y-8599D01*
X73101Y-8675D01*
X73181Y-8733D01*
X73274Y-8767D01*
X73373Y-8776D01*
X73470Y-8760D01*
X73560Y-8719D01*
X73636Y-8655D01*
X73693Y-8575D01*
X73728Y-8482D01*
X73885Y-7791D01*
X73895Y-7693D01*
X73878Y-7595D01*
X73837Y-7505D01*
X73774Y-7429D01*
X73693Y-7372D01*
X73600Y-7337D01*
X73502Y-7328D01*
D02*
G37*
G36*
X52482D02*
X52384Y-7337D01*
X52291Y-7372D01*
X52210Y-7429D01*
X52147Y-7505D01*
X52106Y-7595D01*
X52090Y-7693D01*
X52099Y-7791D01*
X52256Y-8482D01*
X52291Y-8575D01*
X52348Y-8655D01*
X52424Y-8719D01*
X52514Y-8760D01*
X52612Y-8776D01*
X52710Y-8767D01*
X52803Y-8733D01*
X52884Y-8675D01*
X52947Y-8599D01*
X52988Y-8509D01*
X53004Y-8412D01*
X52995Y-8313D01*
X52837Y-7623D01*
X52803Y-7530D01*
X52746Y-7449D01*
X52670Y-7386D01*
X52580Y-7345D01*
X52482Y-7328D01*
D02*
G37*
G36*
X45549D02*
X45452Y-7345D01*
X45362Y-7386D01*
X45286Y-7449D01*
X45228Y-7530D01*
X45194Y-7623D01*
X45036Y-8313D01*
X45027Y-8412D01*
X45044Y-8509D01*
X45085Y-8599D01*
X45148Y-8675D01*
X45229Y-8733D01*
X45321Y-8767D01*
X45420Y-8776D01*
X45517Y-8760D01*
X45607Y-8719D01*
X45683Y-8655D01*
X45741Y-8575D01*
X45775Y-8482D01*
X45933Y-7791D01*
X45942Y-7693D01*
X45925Y-7595D01*
X45884Y-7505D01*
X45821Y-7429D01*
X45740Y-7372D01*
X45648Y-7337D01*
X45549Y-7328D01*
D02*
G37*
G36*
X68230D02*
X68132Y-7337D01*
X68039Y-7372D01*
X67958Y-7429D01*
X67895Y-7505D01*
X67854Y-7595D01*
X67838Y-7693D01*
X67847Y-7791D01*
X68005Y-8482D01*
X68039Y-8575D01*
X68096Y-8655D01*
X68172Y-8719D01*
X68262Y-8760D01*
X68360Y-8776D01*
X68458Y-8767D01*
X68551Y-8733D01*
X68632Y-8675D01*
X68695Y-8599D01*
X68736Y-8509D01*
X68752Y-8412D01*
X68743Y-8313D01*
X68586Y-7623D01*
X68551Y-7530D01*
X68494Y-7449D01*
X68418Y-7386D01*
X68328Y-7345D01*
X68230Y-7328D01*
D02*
G37*
G36*
X61297D02*
X61200Y-7345D01*
X61110Y-7386D01*
X61034Y-7449D01*
X60976Y-7530D01*
X60942Y-7623D01*
X60784Y-8313D01*
X60775Y-8412D01*
X60792Y-8509D01*
X60833Y-8599D01*
X60896Y-8675D01*
X60977Y-8733D01*
X61069Y-8767D01*
X61168Y-8776D01*
X61265Y-8760D01*
X61355Y-8719D01*
X61431Y-8655D01*
X61489Y-8575D01*
X61523Y-8482D01*
X61681Y-7791D01*
X61690Y-7693D01*
X61673Y-7595D01*
X61632Y-7505D01*
X61569Y-7429D01*
X61488Y-7372D01*
X61396Y-7337D01*
X61297Y-7328D01*
D02*
G37*
G36*
X28342Y-9730D02*
X28200D01*
Y-9872D01*
X28227Y-9867D01*
X28293Y-9823D01*
X28337Y-9757D01*
X28342Y-9730D01*
D02*
G37*
G36*
X5262Y-8950D02*
X5164Y-8959D01*
X5071Y-8994D01*
X4991Y-9051D01*
X4927Y-9127D01*
X4886Y-9217D01*
X4870Y-9315D01*
X4879Y-9413D01*
X5037Y-10104D01*
X5071Y-10197D01*
X5128Y-10277D01*
X5204Y-10340D01*
X5294Y-10382D01*
X5392Y-10398D01*
X5490Y-10389D01*
X5583Y-10355D01*
X5664Y-10297D01*
X5727Y-10221D01*
X5768Y-10131D01*
X5784Y-10034D01*
X5775Y-9935D01*
X5618Y-9244D01*
X5583Y-9152D01*
X5526Y-9071D01*
X5450Y-9008D01*
X5360Y-8967D01*
X5262Y-8950D01*
D02*
G37*
G36*
X57972Y-10699D02*
X57868Y-10713D01*
X57771Y-10753D01*
X57687Y-10817D01*
X57623Y-10901D01*
X57583Y-10998D01*
X57569Y-11102D01*
X57583Y-11207D01*
X57623Y-11304D01*
X57687Y-11388D01*
X57771Y-11452D01*
X57868Y-11492D01*
X57972Y-11506D01*
X58077Y-11492D01*
X58174Y-11452D01*
X58258Y-11388D01*
X58322Y-11304D01*
X58362Y-11207D01*
X58376Y-11102D01*
X58362Y-10998D01*
X58322Y-10901D01*
X58258Y-10817D01*
X58174Y-10753D01*
X58077Y-10713D01*
X57972Y-10699D01*
D02*
G37*
G36*
X17467Y-8940D02*
X17369Y-8949D01*
X17276Y-8984D01*
X17195Y-9041D01*
X17132Y-9117D01*
X17091Y-9207D01*
X17074Y-9305D01*
X17084Y-9403D01*
X17241Y-10094D01*
X17276Y-10187D01*
X17333Y-10267D01*
X17409Y-10330D01*
X17499Y-10372D01*
X17596Y-10388D01*
X17695Y-10379D01*
X17788Y-10345D01*
X17868Y-10287D01*
X17931Y-10211D01*
X17973Y-10121D01*
X17989Y-10024D01*
X17980Y-9925D01*
X17822Y-9234D01*
X17788Y-9142D01*
X17731Y-9061D01*
X17654Y-8998D01*
X17565Y-8957D01*
X17467Y-8940D01*
D02*
G37*
G36*
X12454Y-8950D02*
X12357Y-8967D01*
X12267Y-9008D01*
X12191Y-9071D01*
X12133Y-9152D01*
X12099Y-9244D01*
X11941Y-9935D01*
X11932Y-10034D01*
X11949Y-10131D01*
X11990Y-10221D01*
X12053Y-10297D01*
X12134Y-10355D01*
X12226Y-10389D01*
X12325Y-10398D01*
X12422Y-10382D01*
X12512Y-10340D01*
X12588Y-10277D01*
X12646Y-10197D01*
X12680Y-10104D01*
X12838Y-9413D01*
X12847Y-9315D01*
X12830Y-9217D01*
X12789Y-9127D01*
X12726Y-9051D01*
X12645Y-8994D01*
X12553Y-8959D01*
X12454Y-8950D01*
D02*
G37*
G36*
X30020Y-10699D02*
X29915Y-10713D01*
X29818Y-10753D01*
X29734Y-10817D01*
X29670Y-10901D01*
X29630Y-10998D01*
X29616Y-11102D01*
X29630Y-11207D01*
X29670Y-11304D01*
X29734Y-11388D01*
X29818Y-11452D01*
X29915Y-11492D01*
X30020Y-11506D01*
X30124Y-11492D01*
X30221Y-11452D01*
X30305Y-11388D01*
X30369Y-11304D01*
X30409Y-11207D01*
X30423Y-11102D01*
X30409Y-10998D01*
X30369Y-10901D01*
X30305Y-10817D01*
X30221Y-10753D01*
X30124Y-10713D01*
X30020Y-10699D01*
D02*
G37*
G36*
X73958Y-10463D02*
X73859Y-10465D01*
X73764Y-10492D01*
X73680Y-10543D01*
X73611Y-10615D01*
X73563Y-10701D01*
X73539Y-10797D01*
X73541Y-10896D01*
X73569Y-10991D01*
X73620Y-11076D01*
X74061Y-11630D01*
X74133Y-11698D01*
X74219Y-11746D01*
X74315Y-11770D01*
X74414Y-11768D01*
X74509Y-11741D01*
X74594Y-11690D01*
X74662Y-11619D01*
X74710Y-11532D01*
X74734Y-11436D01*
X74732Y-11337D01*
X74705Y-11242D01*
X74654Y-11157D01*
X74212Y-10603D01*
X74141Y-10535D01*
X74054Y-10487D01*
X73958Y-10463D01*
D02*
G37*
G36*
X67774D02*
X67678Y-10487D01*
X67592Y-10535D01*
X67520Y-10603D01*
X67079Y-11157D01*
X67027Y-11242D01*
X67000Y-11337D01*
X66998Y-11436D01*
X67022Y-11532D01*
X67070Y-11619D01*
X67139Y-11690D01*
X67223Y-11741D01*
X67318Y-11768D01*
X67417Y-11770D01*
X67513Y-11746D01*
X67600Y-11698D01*
X67671Y-11630D01*
X68113Y-11076D01*
X68164Y-10991D01*
X68191Y-10896D01*
X68193Y-10797D01*
X68169Y-10701D01*
X68121Y-10615D01*
X68053Y-10543D01*
X67968Y-10492D01*
X67873Y-10465D01*
X67774Y-10463D01*
D02*
G37*
G36*
X27854Y-10699D02*
X27750Y-10713D01*
X27653Y-10753D01*
X27569Y-10817D01*
X27505Y-10901D01*
X27465Y-10998D01*
X27451Y-11102D01*
X27465Y-11207D01*
X27505Y-11304D01*
X27569Y-11388D01*
X27653Y-11452D01*
X27750Y-11492D01*
X27854Y-11506D01*
X27959Y-11492D01*
X28056Y-11452D01*
X28140Y-11388D01*
X28204Y-11304D01*
X28244Y-11207D01*
X28258Y-11102D01*
X28244Y-10998D01*
X28204Y-10901D01*
X28140Y-10817D01*
X28056Y-10753D01*
X27959Y-10713D01*
X27854Y-10699D01*
D02*
G37*
G36*
X79979Y-10463D02*
X79883Y-10487D01*
X79796Y-10535D01*
X79725Y-10603D01*
X79283Y-11157D01*
X79232Y-11242D01*
X79205Y-11337D01*
X79203Y-11436D01*
X79227Y-11532D01*
X79275Y-11619D01*
X79343Y-11690D01*
X79428Y-11741D01*
X79523Y-11768D01*
X79622Y-11770D01*
X79718Y-11746D01*
X79804Y-11698D01*
X79876Y-11630D01*
X80317Y-11076D01*
X80368Y-10991D01*
X80396Y-10896D01*
X80398Y-10797D01*
X80374Y-10701D01*
X80326Y-10615D01*
X80257Y-10543D01*
X80173Y-10492D01*
X80078Y-10465D01*
X79979Y-10463D01*
D02*
G37*
G36*
X24659Y-8940D02*
X24561Y-8957D01*
X24472Y-8998D01*
X24395Y-9061D01*
X24338Y-9142D01*
X24304Y-9234D01*
X24146Y-9925D01*
X24137Y-10024D01*
X24153Y-10121D01*
X24195Y-10211D01*
X24258Y-10287D01*
X24338Y-10345D01*
X24431Y-10379D01*
X24530Y-10388D01*
X24627Y-10372D01*
X24717Y-10330D01*
X24793Y-10267D01*
X24850Y-10187D01*
X24885Y-10094D01*
X25042Y-9403D01*
X25052Y-9305D01*
X25035Y-9207D01*
X24994Y-9117D01*
X24931Y-9041D01*
X24850Y-8984D01*
X24757Y-8949D01*
X24659Y-8940D01*
D02*
G37*
G36*
X73373D02*
X73274Y-8949D01*
X73181Y-8984D01*
X73101Y-9041D01*
X73038Y-9117D01*
X72996Y-9207D01*
X72980Y-9305D01*
X72989Y-9403D01*
X73147Y-10094D01*
X73181Y-10187D01*
X73238Y-10267D01*
X73315Y-10330D01*
X73404Y-10372D01*
X73502Y-10388D01*
X73600Y-10379D01*
X73693Y-10345D01*
X73774Y-10287D01*
X73837Y-10211D01*
X73878Y-10121D01*
X73895Y-10024D01*
X73885Y-9925D01*
X73728Y-9234D01*
X73693Y-9142D01*
X73636Y-9061D01*
X73560Y-8998D01*
X73470Y-8957D01*
X73373Y-8940D01*
D02*
G37*
G36*
X68360D02*
X68262Y-8957D01*
X68172Y-8998D01*
X68096Y-9061D01*
X68039Y-9142D01*
X68005Y-9234D01*
X67847Y-9925D01*
X67838Y-10024D01*
X67854Y-10121D01*
X67895Y-10211D01*
X67958Y-10287D01*
X68039Y-10345D01*
X68132Y-10379D01*
X68230Y-10388D01*
X68328Y-10372D01*
X68418Y-10330D01*
X68494Y-10267D01*
X68551Y-10187D01*
X68586Y-10094D01*
X68743Y-9403D01*
X68752Y-9305D01*
X68736Y-9207D01*
X68695Y-9117D01*
X68632Y-9041D01*
X68551Y-8984D01*
X68458Y-8949D01*
X68360Y-8940D01*
D02*
G37*
G36*
X28100Y-9730D02*
X27958D01*
X27963Y-9757D01*
X28007Y-9823D01*
X28073Y-9867D01*
X28100Y-9872D01*
Y-9730D01*
D02*
G37*
G36*
X80564Y-8940D02*
X80467Y-8957D01*
X80377Y-8998D01*
X80301Y-9061D01*
X80244Y-9142D01*
X80209Y-9234D01*
X80052Y-9925D01*
X80042Y-10024D01*
X80059Y-10121D01*
X80100Y-10211D01*
X80163Y-10287D01*
X80244Y-10345D01*
X80337Y-10379D01*
X80435Y-10388D01*
X80533Y-10372D01*
X80622Y-10330D01*
X80699Y-10267D01*
X80756Y-10187D01*
X80790Y-10094D01*
X80948Y-9403D01*
X80957Y-9305D01*
X80941Y-9207D01*
X80899Y-9117D01*
X80836Y-9041D01*
X80756Y-8984D01*
X80663Y-8949D01*
X80564Y-8940D01*
D02*
G37*
G36*
X61168D02*
X61069Y-8949D01*
X60977Y-8984D01*
X60896Y-9041D01*
X60833Y-9117D01*
X60792Y-9207D01*
X60775Y-9305D01*
X60784Y-9403D01*
X60942Y-10094D01*
X60976Y-10187D01*
X61034Y-10267D01*
X61110Y-10330D01*
X61200Y-10372D01*
X61297Y-10388D01*
X61396Y-10379D01*
X61488Y-10345D01*
X61569Y-10287D01*
X61632Y-10211D01*
X61673Y-10121D01*
X61690Y-10024D01*
X61681Y-9925D01*
X61523Y-9234D01*
X61489Y-9142D01*
X61431Y-9061D01*
X61355Y-8998D01*
X61265Y-8957D01*
X61168Y-8940D01*
D02*
G37*
G36*
X40407D02*
X40309Y-8957D01*
X40220Y-8998D01*
X40143Y-9061D01*
X40086Y-9142D01*
X40052Y-9234D01*
X39894Y-9925D01*
X39885Y-10024D01*
X39901Y-10121D01*
X39943Y-10211D01*
X40006Y-10287D01*
X40086Y-10345D01*
X40179Y-10379D01*
X40278Y-10388D01*
X40375Y-10372D01*
X40465Y-10330D01*
X40541Y-10267D01*
X40598Y-10187D01*
X40633Y-10094D01*
X40790Y-9403D01*
X40800Y-9305D01*
X40783Y-9207D01*
X40742Y-9117D01*
X40679Y-9041D01*
X40598Y-8984D01*
X40505Y-8949D01*
X40407Y-8940D01*
D02*
G37*
G36*
X33215D02*
X33117Y-8949D01*
X33024Y-8984D01*
X32943Y-9041D01*
X32880Y-9117D01*
X32839Y-9207D01*
X32822Y-9305D01*
X32832Y-9403D01*
X32989Y-10094D01*
X33024Y-10187D01*
X33081Y-10267D01*
X33157Y-10330D01*
X33247Y-10372D01*
X33344Y-10388D01*
X33443Y-10379D01*
X33536Y-10345D01*
X33616Y-10287D01*
X33679Y-10211D01*
X33721Y-10121D01*
X33737Y-10024D01*
X33728Y-9925D01*
X33570Y-9234D01*
X33536Y-9142D01*
X33479Y-9061D01*
X33402Y-8998D01*
X33313Y-8957D01*
X33215Y-8940D01*
D02*
G37*
G36*
X52612D02*
X52514Y-8957D01*
X52424Y-8998D01*
X52348Y-9061D01*
X52291Y-9142D01*
X52256Y-9234D01*
X52099Y-9925D01*
X52090Y-10024D01*
X52106Y-10121D01*
X52147Y-10211D01*
X52210Y-10287D01*
X52291Y-10345D01*
X52384Y-10379D01*
X52482Y-10388D01*
X52580Y-10372D01*
X52670Y-10330D01*
X52746Y-10267D01*
X52803Y-10187D01*
X52837Y-10094D01*
X52995Y-9403D01*
X53004Y-9305D01*
X52988Y-9207D01*
X52947Y-9117D01*
X52884Y-9041D01*
X52803Y-8984D01*
X52710Y-8949D01*
X52612Y-8940D01*
D02*
G37*
G36*
X45420D02*
X45321Y-8949D01*
X45229Y-8984D01*
X45148Y-9041D01*
X45085Y-9117D01*
X45044Y-9207D01*
X45027Y-9305D01*
X45036Y-9403D01*
X45194Y-10094D01*
X45228Y-10187D01*
X45286Y-10267D01*
X45362Y-10330D01*
X45452Y-10372D01*
X45549Y-10388D01*
X45648Y-10379D01*
X45740Y-10345D01*
X45821Y-10287D01*
X45884Y-10211D01*
X45925Y-10121D01*
X45942Y-10024D01*
X45933Y-9925D01*
X45775Y-9234D01*
X45741Y-9142D01*
X45683Y-9061D01*
X45607Y-8998D01*
X45517Y-8957D01*
X45420Y-8940D01*
D02*
G37*
G36*
X21417Y-4857D02*
X20709D01*
X20611Y-4870D01*
X20519Y-4908D01*
X20441Y-4968D01*
X20381Y-5047D01*
X20343Y-5138D01*
X20330Y-5236D01*
X20343Y-5334D01*
X20381Y-5426D01*
X20441Y-5504D01*
X20519Y-5564D01*
X20611Y-5602D01*
X20709Y-5615D01*
X21417D01*
X21515Y-5602D01*
X21607Y-5564D01*
X21685Y-5504D01*
X21745Y-5426D01*
X21783Y-5334D01*
X21796Y-5236D01*
X21783Y-5138D01*
X21745Y-5047D01*
X21685Y-4968D01*
X21607Y-4908D01*
X21515Y-4870D01*
X21417Y-4857D01*
D02*
G37*
G36*
X9213Y-4867D02*
X8504D01*
X8406Y-4880D01*
X8315Y-4918D01*
X8236Y-4978D01*
X8176Y-5057D01*
X8138Y-5148D01*
X8125Y-5246D01*
X8138Y-5344D01*
X8176Y-5436D01*
X8236Y-5514D01*
X8315Y-5574D01*
X8406Y-5612D01*
X8504Y-5625D01*
X9213D01*
X9311Y-5612D01*
X9402Y-5574D01*
X9480Y-5514D01*
X9541Y-5436D01*
X9579Y-5344D01*
X9591Y-5246D01*
X9579Y-5148D01*
X9541Y-5057D01*
X9480Y-4978D01*
X9402Y-4918D01*
X9311Y-4880D01*
X9213Y-4867D01*
D02*
G37*
G36*
X49370Y-4857D02*
X48661D01*
X48563Y-4870D01*
X48472Y-4908D01*
X48394Y-4968D01*
X48333Y-5047D01*
X48295Y-5138D01*
X48283Y-5236D01*
X48295Y-5334D01*
X48333Y-5426D01*
X48394Y-5504D01*
X48472Y-5564D01*
X48563Y-5602D01*
X48661Y-5615D01*
X49370D01*
X49468Y-5602D01*
X49559Y-5564D01*
X49638Y-5504D01*
X49698Y-5426D01*
X49736Y-5334D01*
X49749Y-5236D01*
X49736Y-5138D01*
X49698Y-5047D01*
X49638Y-4968D01*
X49559Y-4908D01*
X49468Y-4870D01*
X49370Y-4857D01*
D02*
G37*
G36*
X37165D02*
X36457D01*
X36359Y-4870D01*
X36267Y-4908D01*
X36189Y-4968D01*
X36129Y-5047D01*
X36091Y-5138D01*
X36078Y-5236D01*
X36091Y-5334D01*
X36129Y-5426D01*
X36189Y-5504D01*
X36267Y-5564D01*
X36359Y-5602D01*
X36457Y-5615D01*
X37165D01*
X37263Y-5602D01*
X37355Y-5564D01*
X37433Y-5504D01*
X37493Y-5426D01*
X37531Y-5334D01*
X37544Y-5236D01*
X37531Y-5138D01*
X37493Y-5047D01*
X37433Y-4968D01*
X37355Y-4908D01*
X37263Y-4870D01*
X37165Y-4857D01*
D02*
G37*
G36*
X78192Y-5063D02*
X78096Y-5084D01*
X78007Y-5128D01*
X77934Y-5194D01*
X77879Y-5277D01*
X77849Y-5371D01*
X77843Y-5469D01*
X77863Y-5566D01*
X77908Y-5655D01*
X77974Y-5728D01*
X78056Y-5782D01*
X78695Y-6090D01*
X78789Y-6121D01*
X78888Y-6126D01*
X78984Y-6106D01*
X79073Y-6062D01*
X79146Y-5996D01*
X79201Y-5913D01*
X79232Y-5819D01*
X79237Y-5720D01*
X79217Y-5624D01*
X79172Y-5535D01*
X79106Y-5462D01*
X79024Y-5407D01*
X78385Y-5100D01*
X78291Y-5069D01*
X78192Y-5063D01*
D02*
G37*
G36*
X63540D02*
X63441Y-5069D01*
X63347Y-5100D01*
X62709Y-5407D01*
X62626Y-5462D01*
X62560Y-5535D01*
X62515Y-5624D01*
X62495Y-5720D01*
X62501Y-5819D01*
X62532Y-5913D01*
X62586Y-5996D01*
X62660Y-6062D01*
X62748Y-6106D01*
X62845Y-6126D01*
X62943Y-6121D01*
X63037Y-6090D01*
X63676Y-5782D01*
X63759Y-5728D01*
X63824Y-5655D01*
X63869Y-5566D01*
X63889Y-5469D01*
X63884Y-5371D01*
X63853Y-5277D01*
X63799Y-5194D01*
X63725Y-5128D01*
X63637Y-5084D01*
X63540Y-5063D01*
D02*
G37*
G36*
X50240D02*
X50143Y-5084D01*
X50055Y-5128D01*
X49981Y-5194D01*
X49927Y-5277D01*
X49896Y-5371D01*
X49890Y-5469D01*
X49910Y-5566D01*
X49955Y-5655D01*
X50021Y-5728D01*
X50104Y-5782D01*
X50742Y-6090D01*
X50836Y-6121D01*
X50935Y-6126D01*
X51032Y-6106D01*
X51120Y-6062D01*
X51194Y-5996D01*
X51248Y-5913D01*
X51279Y-5819D01*
X51284Y-5720D01*
X51264Y-5624D01*
X51220Y-5535D01*
X51154Y-5462D01*
X51071Y-5407D01*
X50432Y-5100D01*
X50338Y-5069D01*
X50240Y-5063D01*
D02*
G37*
G36*
X75745D02*
X75646Y-5069D01*
X75552Y-5100D01*
X74913Y-5407D01*
X74831Y-5462D01*
X74765Y-5535D01*
X74720Y-5624D01*
X74700Y-5720D01*
X74705Y-5819D01*
X74736Y-5913D01*
X74791Y-5996D01*
X74864Y-6062D01*
X74953Y-6106D01*
X75049Y-6126D01*
X75148Y-6121D01*
X75242Y-6090D01*
X75881Y-5782D01*
X75963Y-5728D01*
X76029Y-5655D01*
X76074Y-5566D01*
X76094Y-5469D01*
X76088Y-5371D01*
X76058Y-5277D01*
X76003Y-5194D01*
X75930Y-5128D01*
X75841Y-5084D01*
X75745Y-5063D01*
D02*
G37*
G36*
X65988D02*
X65891Y-5084D01*
X65803Y-5128D01*
X65729Y-5194D01*
X65675Y-5277D01*
X65644Y-5371D01*
X65638Y-5469D01*
X65659Y-5566D01*
X65703Y-5655D01*
X65769Y-5728D01*
X65852Y-5782D01*
X66490Y-6090D01*
X66584Y-6121D01*
X66683Y-6126D01*
X66780Y-6106D01*
X66868Y-6062D01*
X66942Y-5996D01*
X66996Y-5913D01*
X67027Y-5819D01*
X67032Y-5720D01*
X67012Y-5624D01*
X66968Y-5535D01*
X66902Y-5462D01*
X66819Y-5407D01*
X66180Y-5100D01*
X66087Y-5069D01*
X65988Y-5063D01*
D02*
G37*
G36*
X65118Y-4857D02*
X64409D01*
X64311Y-4870D01*
X64220Y-4908D01*
X64142Y-4968D01*
X64081Y-5047D01*
X64044Y-5138D01*
X64031Y-5236D01*
X64044Y-5334D01*
X64081Y-5426D01*
X64142Y-5504D01*
X64220Y-5564D01*
X64311Y-5602D01*
X64409Y-5615D01*
X65118D01*
X65216Y-5602D01*
X65308Y-5564D01*
X65386Y-5504D01*
X65446Y-5426D01*
X65484Y-5334D01*
X65497Y-5236D01*
X65484Y-5138D01*
X65446Y-5047D01*
X65386Y-4968D01*
X65308Y-4908D01*
X65216Y-4870D01*
X65118Y-4857D01*
D02*
G37*
G36*
X1500Y-596D02*
Y-1630D01*
X2534D01*
X2524Y-1510D01*
X2484Y-1344D01*
X2419Y-1186D01*
X2330Y-1041D01*
X2219Y-911D01*
X2089Y-800D01*
X1944Y-711D01*
X1786Y-646D01*
X1620Y-606D01*
X1500Y-596D01*
D02*
G37*
G36*
X1400D02*
X1280Y-606D01*
X1114Y-646D01*
X956Y-711D01*
X811Y-800D01*
X681Y-911D01*
X570Y-1041D01*
X481Y-1186D01*
X416Y-1344D01*
X376Y-1510D01*
X366Y-1630D01*
X1400D01*
Y-596D01*
D02*
G37*
G36*
X84260Y-366D02*
Y-1400D01*
X85294D01*
X85284Y-1280D01*
X85244Y-1114D01*
X85179Y-956D01*
X85090Y-811D01*
X84979Y-681D01*
X84849Y-570D01*
X84704Y-481D01*
X84546Y-416D01*
X84380Y-376D01*
X84260Y-366D01*
D02*
G37*
G36*
X84160D02*
X84040Y-376D01*
X83874Y-416D01*
X83716Y-481D01*
X83571Y-570D01*
X83441Y-681D01*
X83330Y-811D01*
X83241Y-956D01*
X83176Y-1114D01*
X83136Y-1280D01*
X83126Y-1400D01*
X84160D01*
Y-366D01*
D02*
G37*
G36*
X85294Y-1500D02*
X84260D01*
Y-2534D01*
X84380Y-2524D01*
X84546Y-2484D01*
X84704Y-2419D01*
X84849Y-2330D01*
X84979Y-2219D01*
X85090Y-2089D01*
X85179Y-1944D01*
X85244Y-1786D01*
X85284Y-1620D01*
X85294Y-1500D01*
D02*
G37*
G36*
X1400Y-1730D02*
X366D01*
X376Y-1850D01*
X416Y-2016D01*
X481Y-2174D01*
X570Y-2319D01*
X681Y-2449D01*
X811Y-2560D01*
X956Y-2649D01*
X1114Y-2714D01*
X1280Y-2754D01*
X1400Y-2764D01*
Y-1730D01*
D02*
G37*
G36*
X77323Y-4857D02*
X76614D01*
X76516Y-4870D01*
X76425Y-4908D01*
X76346Y-4968D01*
X76286Y-5047D01*
X76248Y-5138D01*
X76235Y-5236D01*
X76248Y-5334D01*
X76286Y-5426D01*
X76346Y-5504D01*
X76425Y-5564D01*
X76516Y-5602D01*
X76614Y-5615D01*
X77323D01*
X77421Y-5602D01*
X77512Y-5564D01*
X77591Y-5504D01*
X77651Y-5426D01*
X77689Y-5334D01*
X77702Y-5236D01*
X77689Y-5138D01*
X77651Y-5047D01*
X77591Y-4968D01*
X77512Y-4908D01*
X77421Y-4870D01*
X77323Y-4857D01*
D02*
G37*
G36*
X84160Y-1500D02*
X83126D01*
X83136Y-1620D01*
X83176Y-1786D01*
X83241Y-1944D01*
X83330Y-2089D01*
X83441Y-2219D01*
X83571Y-2330D01*
X83716Y-2419D01*
X83874Y-2484D01*
X84040Y-2524D01*
X84160Y-2534D01*
Y-1500D01*
D02*
G37*
G36*
X2534Y-1730D02*
X1500D01*
Y-2764D01*
X1620Y-2754D01*
X1786Y-2714D01*
X1944Y-2649D01*
X2089Y-2560D01*
X2219Y-2449D01*
X2330Y-2319D01*
X2419Y-2174D01*
X2484Y-2016D01*
X2524Y-1850D01*
X2534Y-1730D01*
D02*
G37*
G36*
X47792Y-5063D02*
X47693Y-5069D01*
X47599Y-5100D01*
X46961Y-5407D01*
X46878Y-5462D01*
X46812Y-5535D01*
X46767Y-5624D01*
X46747Y-5720D01*
X46753Y-5819D01*
X46784Y-5913D01*
X46838Y-5996D01*
X46912Y-6062D01*
X47000Y-6106D01*
X47097Y-6126D01*
X47195Y-6121D01*
X47289Y-6090D01*
X47928Y-5782D01*
X48011Y-5728D01*
X48076Y-5655D01*
X48121Y-5566D01*
X48141Y-5469D01*
X48136Y-5371D01*
X48105Y-5277D01*
X48051Y-5194D01*
X47977Y-5128D01*
X47889Y-5084D01*
X47792Y-5063D01*
D02*
G37*
G36*
X67417Y-5946D02*
X67318Y-5948D01*
X67223Y-5976D01*
X67138Y-6027D01*
X67070Y-6098D01*
X67022Y-6185D01*
X66998Y-6281D01*
X67000Y-6379D01*
X67027Y-6474D01*
X67078Y-6559D01*
X67520Y-7113D01*
X67592Y-7182D01*
X67678Y-7230D01*
X67774Y-7253D01*
X67873Y-7252D01*
X67968Y-7224D01*
X68053Y-7173D01*
X68121Y-7102D01*
X68169Y-7015D01*
X68193Y-6919D01*
X68191Y-6821D01*
X68164Y-6725D01*
X68113Y-6641D01*
X67671Y-6087D01*
X67600Y-6018D01*
X67513Y-5970D01*
X67417Y-5946D01*
D02*
G37*
G36*
X62110D02*
X62014Y-5970D01*
X61928Y-6018D01*
X61857Y-6087D01*
X61415Y-6641D01*
X61364Y-6725D01*
X61336Y-6821D01*
X61335Y-6919D01*
X61358Y-7015D01*
X61406Y-7102D01*
X61475Y-7173D01*
X61560Y-7224D01*
X61655Y-7252D01*
X61753Y-7253D01*
X61849Y-7230D01*
X61936Y-7182D01*
X62007Y-7113D01*
X62449Y-6559D01*
X62500Y-6474D01*
X62527Y-6379D01*
X62529Y-6281D01*
X62506Y-6185D01*
X62458Y-6098D01*
X62389Y-6027D01*
X62304Y-5976D01*
X62209Y-5948D01*
X62110Y-5946D01*
D02*
G37*
G36*
X79622D02*
X79523Y-5948D01*
X79428Y-5976D01*
X79343Y-6027D01*
X79275Y-6098D01*
X79227Y-6185D01*
X79203Y-6281D01*
X79205Y-6379D01*
X79232Y-6474D01*
X79283Y-6559D01*
X79725Y-7113D01*
X79796Y-7182D01*
X79883Y-7230D01*
X79979Y-7253D01*
X80078Y-7252D01*
X80173Y-7224D01*
X80257Y-7173D01*
X80326Y-7102D01*
X80374Y-7015D01*
X80398Y-6919D01*
X80396Y-6821D01*
X80368Y-6725D01*
X80317Y-6641D01*
X79876Y-6087D01*
X79804Y-6018D01*
X79718Y-5970D01*
X79622Y-5946D01*
D02*
G37*
G36*
X74315D02*
X74219Y-5970D01*
X74133Y-6018D01*
X74061Y-6087D01*
X73620Y-6641D01*
X73569Y-6725D01*
X73541Y-6821D01*
X73539Y-6919D01*
X73563Y-7015D01*
X73611Y-7102D01*
X73680Y-7173D01*
X73764Y-7224D01*
X73859Y-7252D01*
X73958Y-7253D01*
X74054Y-7230D01*
X74141Y-7182D01*
X74212Y-7113D01*
X74654Y-6559D01*
X74705Y-6474D01*
X74732Y-6379D01*
X74734Y-6281D01*
X74710Y-6185D01*
X74662Y-6098D01*
X74594Y-6027D01*
X74509Y-5976D01*
X74414Y-5948D01*
X74315Y-5946D01*
D02*
G37*
G36*
X51669D02*
X51570Y-5948D01*
X51475Y-5976D01*
X51390Y-6027D01*
X51322Y-6098D01*
X51274Y-6185D01*
X51250Y-6281D01*
X51252Y-6379D01*
X51279Y-6474D01*
X51330Y-6559D01*
X51772Y-7113D01*
X51844Y-7182D01*
X51930Y-7230D01*
X52026Y-7253D01*
X52125Y-7252D01*
X52220Y-7224D01*
X52305Y-7173D01*
X52373Y-7102D01*
X52421Y-7015D01*
X52445Y-6919D01*
X52443Y-6821D01*
X52416Y-6725D01*
X52365Y-6641D01*
X51923Y-6087D01*
X51852Y-6018D01*
X51765Y-5970D01*
X51669Y-5946D01*
D02*
G37*
G36*
X34158D02*
X34062Y-5970D01*
X33975Y-6018D01*
X33904Y-6087D01*
X33462Y-6641D01*
X33411Y-6725D01*
X33384Y-6821D01*
X33382Y-6919D01*
X33406Y-7015D01*
X33453Y-7102D01*
X33522Y-7173D01*
X33607Y-7224D01*
X33702Y-7252D01*
X33801Y-7253D01*
X33897Y-7230D01*
X33983Y-7182D01*
X34054Y-7113D01*
X34496Y-6559D01*
X34547Y-6474D01*
X34575Y-6379D01*
X34577Y-6281D01*
X34553Y-6185D01*
X34505Y-6098D01*
X34436Y-6027D01*
X34352Y-5976D01*
X34257Y-5948D01*
X34158Y-5946D01*
D02*
G37*
G36*
X23716D02*
X23617Y-5948D01*
X23522Y-5976D01*
X23438Y-6027D01*
X23369Y-6098D01*
X23321Y-6185D01*
X23297Y-6281D01*
X23299Y-6379D01*
X23327Y-6474D01*
X23378Y-6559D01*
X23820Y-7113D01*
X23891Y-7182D01*
X23977Y-7230D01*
X24073Y-7253D01*
X24172Y-7252D01*
X24267Y-7224D01*
X24352Y-7173D01*
X24421Y-7102D01*
X24468Y-7015D01*
X24492Y-6919D01*
X24490Y-6821D01*
X24463Y-6725D01*
X24412Y-6641D01*
X23970Y-6087D01*
X23899Y-6018D01*
X23812Y-5970D01*
X23716Y-5946D01*
D02*
G37*
G36*
X46362D02*
X46266Y-5970D01*
X46180Y-6018D01*
X46109Y-6087D01*
X45667Y-6641D01*
X45616Y-6725D01*
X45588Y-6821D01*
X45587Y-6919D01*
X45610Y-7015D01*
X45658Y-7102D01*
X45727Y-7173D01*
X45812Y-7224D01*
X45907Y-7252D01*
X46005Y-7253D01*
X46101Y-7230D01*
X46188Y-7182D01*
X46259Y-7113D01*
X46701Y-6559D01*
X46752Y-6474D01*
X46779Y-6379D01*
X46781Y-6281D01*
X46757Y-6185D01*
X46710Y-6098D01*
X46641Y-6027D01*
X46556Y-5976D01*
X46461Y-5948D01*
X46362Y-5946D01*
D02*
G37*
G36*
X39464D02*
X39365Y-5948D01*
X39270Y-5976D01*
X39186Y-6027D01*
X39117Y-6098D01*
X39069Y-6185D01*
X39045Y-6281D01*
X39047Y-6379D01*
X39075Y-6474D01*
X39126Y-6559D01*
X39568Y-7113D01*
X39639Y-7182D01*
X39725Y-7230D01*
X39821Y-7253D01*
X39920Y-7252D01*
X40015Y-7224D01*
X40100Y-7173D01*
X40169Y-7102D01*
X40216Y-7015D01*
X40240Y-6919D01*
X40238Y-6821D01*
X40211Y-6725D01*
X40160Y-6641D01*
X39718Y-6087D01*
X39647Y-6018D01*
X39560Y-5970D01*
X39464Y-5946D01*
D02*
G37*
G36*
X27854Y-6211D02*
X27750Y-6224D01*
X27653Y-6265D01*
X27569Y-6329D01*
X27505Y-6412D01*
X27465Y-6510D01*
X27451Y-6614D01*
X27465Y-6719D01*
X27505Y-6816D01*
X27569Y-6899D01*
X27653Y-6964D01*
X27750Y-7004D01*
X27854Y-7018D01*
X27959Y-7004D01*
X28056Y-6964D01*
X28140Y-6899D01*
X28204Y-6816D01*
X28244Y-6719D01*
X28258Y-6614D01*
X28244Y-6510D01*
X28204Y-6412D01*
X28140Y-6329D01*
X28056Y-6265D01*
X27959Y-6224D01*
X27854Y-6211D01*
D02*
G37*
G36*
X22287Y-5063D02*
X22190Y-5084D01*
X22102Y-5128D01*
X22028Y-5194D01*
X21974Y-5277D01*
X21943Y-5371D01*
X21938Y-5469D01*
X21958Y-5566D01*
X22002Y-5655D01*
X22068Y-5728D01*
X22151Y-5782D01*
X22789Y-6090D01*
X22883Y-6121D01*
X22982Y-6126D01*
X23079Y-6106D01*
X23167Y-6062D01*
X23241Y-5996D01*
X23295Y-5913D01*
X23326Y-5819D01*
X23332Y-5720D01*
X23311Y-5624D01*
X23267Y-5535D01*
X23201Y-5462D01*
X23118Y-5407D01*
X22480Y-5100D01*
X22386Y-5069D01*
X22287Y-5063D01*
D02*
G37*
G36*
X19839D02*
X19740Y-5069D01*
X19646Y-5100D01*
X19008Y-5407D01*
X18925Y-5462D01*
X18859Y-5535D01*
X18815Y-5624D01*
X18794Y-5720D01*
X18800Y-5819D01*
X18831Y-5913D01*
X18885Y-5996D01*
X18959Y-6062D01*
X19047Y-6106D01*
X19144Y-6126D01*
X19243Y-6121D01*
X19337Y-6090D01*
X19975Y-5782D01*
X20058Y-5728D01*
X20124Y-5655D01*
X20168Y-5566D01*
X20188Y-5469D01*
X20183Y-5371D01*
X20152Y-5277D01*
X20098Y-5194D01*
X20024Y-5128D01*
X19936Y-5084D01*
X19839Y-5063D01*
D02*
G37*
G36*
X38035D02*
X37938Y-5084D01*
X37850Y-5128D01*
X37776Y-5194D01*
X37722Y-5277D01*
X37691Y-5371D01*
X37686Y-5469D01*
X37706Y-5566D01*
X37750Y-5655D01*
X37816Y-5728D01*
X37899Y-5782D01*
X38537Y-6090D01*
X38631Y-6121D01*
X38730Y-6126D01*
X38827Y-6106D01*
X38915Y-6062D01*
X38989Y-5996D01*
X39043Y-5913D01*
X39074Y-5819D01*
X39080Y-5720D01*
X39059Y-5624D01*
X39015Y-5535D01*
X38949Y-5462D01*
X38866Y-5407D01*
X38228Y-5100D01*
X38134Y-5069D01*
X38035Y-5063D01*
D02*
G37*
G36*
X35587D02*
X35488Y-5069D01*
X35394Y-5100D01*
X34756Y-5407D01*
X34673Y-5462D01*
X34607Y-5535D01*
X34563Y-5624D01*
X34542Y-5720D01*
X34548Y-5819D01*
X34579Y-5913D01*
X34633Y-5996D01*
X34707Y-6062D01*
X34795Y-6106D01*
X34892Y-6126D01*
X34991Y-6121D01*
X35085Y-6090D01*
X35723Y-5782D01*
X35806Y-5728D01*
X35872Y-5655D01*
X35916Y-5566D01*
X35937Y-5469D01*
X35931Y-5371D01*
X35900Y-5277D01*
X35846Y-5194D01*
X35772Y-5128D01*
X35684Y-5084D01*
X35587Y-5063D01*
D02*
G37*
G36*
X10082Y-5073D02*
X9985Y-5094D01*
X9897Y-5138D01*
X9823Y-5204D01*
X9769Y-5287D01*
X9738Y-5381D01*
X9733Y-5479D01*
X9753Y-5576D01*
X9798Y-5665D01*
X9863Y-5738D01*
X9946Y-5792D01*
X10585Y-6100D01*
X10679Y-6131D01*
X10777Y-6136D01*
X10874Y-6116D01*
X10962Y-6072D01*
X11036Y-6006D01*
X11090Y-5923D01*
X11121Y-5829D01*
X11127Y-5730D01*
X11107Y-5634D01*
X11062Y-5545D01*
X10996Y-5472D01*
X10913Y-5417D01*
X10275Y-5110D01*
X10181Y-5079D01*
X10082Y-5073D01*
D02*
G37*
G36*
X55807Y-6211D02*
X55703Y-6224D01*
X55605Y-6265D01*
X55522Y-6329D01*
X55458Y-6412D01*
X55417Y-6510D01*
X55404Y-6614D01*
X55417Y-6719D01*
X55458Y-6816D01*
X55522Y-6899D01*
X55605Y-6964D01*
X55703Y-7004D01*
X55807Y-7018D01*
X55912Y-7004D01*
X56009Y-6964D01*
X56092Y-6899D01*
X56156Y-6816D01*
X56197Y-6719D01*
X56211Y-6614D01*
X56197Y-6510D01*
X56156Y-6412D01*
X56092Y-6329D01*
X56009Y-6265D01*
X55912Y-6224D01*
X55807Y-6211D01*
D02*
G37*
G36*
X30020D02*
X29915Y-6224D01*
X29818Y-6265D01*
X29734Y-6329D01*
X29670Y-6412D01*
X29630Y-6510D01*
X29616Y-6614D01*
X29630Y-6719D01*
X29670Y-6816D01*
X29734Y-6899D01*
X29818Y-6964D01*
X29915Y-7004D01*
X30020Y-7018D01*
X30124Y-7004D01*
X30221Y-6964D01*
X30305Y-6899D01*
X30369Y-6816D01*
X30409Y-6719D01*
X30423Y-6614D01*
X30409Y-6510D01*
X30369Y-6412D01*
X30305Y-6329D01*
X30221Y-6265D01*
X30124Y-6224D01*
X30020Y-6211D01*
D02*
G37*
G36*
X7634Y-5073D02*
X7536Y-5079D01*
X7442Y-5110D01*
X6803Y-5417D01*
X6720Y-5472D01*
X6654Y-5545D01*
X6610Y-5634D01*
X6590Y-5730D01*
X6595Y-5829D01*
X6626Y-5923D01*
X6680Y-6006D01*
X6754Y-6072D01*
X6842Y-6116D01*
X6939Y-6136D01*
X7038Y-6131D01*
X7132Y-6100D01*
X7770Y-5792D01*
X7853Y-5738D01*
X7919Y-5665D01*
X7964Y-5576D01*
X7984Y-5479D01*
X7978Y-5381D01*
X7947Y-5287D01*
X7893Y-5204D01*
X7819Y-5138D01*
X7731Y-5094D01*
X7634Y-5073D01*
D02*
G37*
G36*
X57972Y-6211D02*
X57868Y-6224D01*
X57771Y-6265D01*
X57687Y-6329D01*
X57623Y-6412D01*
X57583Y-6510D01*
X57569Y-6614D01*
X57583Y-6719D01*
X57623Y-6816D01*
X57687Y-6899D01*
X57771Y-6964D01*
X57868Y-7004D01*
X57972Y-7018D01*
X58077Y-7004D01*
X58174Y-6964D01*
X58258Y-6899D01*
X58322Y-6816D01*
X58362Y-6719D01*
X58376Y-6614D01*
X58362Y-6510D01*
X58322Y-6412D01*
X58258Y-6329D01*
X58174Y-6265D01*
X58077Y-6224D01*
X57972Y-6211D01*
D02*
G37*
G36*
X77212Y-17554D02*
X77070D01*
Y-17696D01*
X77097Y-17691D01*
X77163Y-17647D01*
X77207Y-17581D01*
X77212Y-17554D01*
D02*
G37*
G36*
X76970D02*
X76828D01*
X76833Y-17581D01*
X76877Y-17647D01*
X76943Y-17691D01*
X76970Y-17696D01*
Y-17554D01*
D02*
G37*
G36*
X78152D02*
X78010D01*
Y-17696D01*
X78037Y-17691D01*
X78103Y-17647D01*
X78147Y-17581D01*
X78152Y-17554D01*
D02*
G37*
G36*
X77910D02*
X77768D01*
X77773Y-17581D01*
X77817Y-17647D01*
X77883Y-17691D01*
X77910Y-17696D01*
Y-17554D01*
D02*
G37*
G36*
X5500Y-17351D02*
X5423Y-17361D01*
X5350Y-17391D01*
X5288Y-17438D01*
X5241Y-17500D01*
X5211Y-17573D01*
X5201Y-17650D01*
X5211Y-17727D01*
X5241Y-17800D01*
X5288Y-17862D01*
X5350Y-17909D01*
X5423Y-17939D01*
X5500Y-17949D01*
X5577Y-17939D01*
X5650Y-17909D01*
X5712Y-17862D01*
X5759Y-17800D01*
X5789Y-17727D01*
X5799Y-17650D01*
X5789Y-17573D01*
X5759Y-17500D01*
X5712Y-17438D01*
X5650Y-17391D01*
X5577Y-17361D01*
X5500Y-17351D01*
D02*
G37*
G36*
X10542Y-18229D02*
X10400D01*
Y-18371D01*
X10427Y-18366D01*
X10493Y-18322D01*
X10537Y-18256D01*
X10542Y-18229D01*
D02*
G37*
G36*
X10300D02*
X10158D01*
X10163Y-18256D01*
X10207Y-18322D01*
X10273Y-18366D01*
X10300Y-18371D01*
Y-18229D01*
D02*
G37*
G36*
X10400Y-17986D02*
Y-18129D01*
X10542D01*
X10537Y-18101D01*
X10493Y-18036D01*
X10427Y-17992D01*
X10400Y-17986D01*
D02*
G37*
G36*
X10300D02*
X10273Y-17992D01*
X10207Y-18036D01*
X10163Y-18101D01*
X10158Y-18129D01*
X10300D01*
Y-17986D01*
D02*
G37*
G36*
X1857Y-16464D02*
X283D01*
X244Y-16472D01*
X211Y-16494D01*
X188Y-16527D01*
X181Y-16566D01*
Y-17353D01*
X188Y-17392D01*
X211Y-17425D01*
X244Y-17448D01*
X283Y-17455D01*
X1857D01*
X1896Y-17448D01*
X1929Y-17425D01*
X1952Y-17392D01*
X1959Y-17353D01*
Y-16566D01*
X1952Y-16527D01*
X1929Y-16494D01*
X1896Y-16472D01*
X1857Y-16464D01*
D02*
G37*
G36*
X5450Y-14921D02*
X5308D01*
X5313Y-14949D01*
X5357Y-15014D01*
X5423Y-15058D01*
X5450Y-15064D01*
Y-14921D01*
D02*
G37*
G36*
X12140Y-15811D02*
X12063Y-15821D01*
X11990Y-15851D01*
X11928Y-15898D01*
X11881Y-15960D01*
X11851Y-16033D01*
X11841Y-16110D01*
X11851Y-16187D01*
X11881Y-16260D01*
X11928Y-16322D01*
X11990Y-16369D01*
X12063Y-16399D01*
X12140Y-16409D01*
X12217Y-16399D01*
X12290Y-16369D01*
X12352Y-16322D01*
X12399Y-16260D01*
X12429Y-16187D01*
X12439Y-16110D01*
X12429Y-16033D01*
X12399Y-15960D01*
X12352Y-15898D01*
X12290Y-15851D01*
X12217Y-15821D01*
X12140Y-15811D01*
D02*
G37*
G36*
X5450Y-14679D02*
X5423Y-14684D01*
X5357Y-14728D01*
X5313Y-14794D01*
X5308Y-14821D01*
X5450D01*
Y-14679D01*
D02*
G37*
G36*
X5692Y-14921D02*
X5550D01*
Y-15064D01*
X5577Y-15058D01*
X5643Y-15014D01*
X5687Y-14949D01*
X5692Y-14921D01*
D02*
G37*
G36*
X78010Y-17312D02*
Y-17454D01*
X78152D01*
X78147Y-17427D01*
X78103Y-17361D01*
X78037Y-17317D01*
X78010Y-17312D01*
D02*
G37*
G36*
X76970D02*
X76943Y-17317D01*
X76877Y-17361D01*
X76833Y-17427D01*
X76828Y-17454D01*
X76970D01*
Y-17312D01*
D02*
G37*
G36*
X3747Y-16464D02*
X2172D01*
X2133Y-16472D01*
X2100Y-16494D01*
X2078Y-16527D01*
X2070Y-16566D01*
Y-17353D01*
X2078Y-17392D01*
X2100Y-17425D01*
X2133Y-17448D01*
X2172Y-17455D01*
X3747D01*
X3786Y-17448D01*
X3819Y-17425D01*
X3841Y-17392D01*
X3849Y-17353D01*
Y-16566D01*
X3841Y-16527D01*
X3819Y-16494D01*
X3786Y-16472D01*
X3747Y-16464D01*
D02*
G37*
G36*
X77910Y-17312D02*
X77883Y-17317D01*
X77817Y-17361D01*
X77773Y-17427D01*
X77768Y-17454D01*
X77910D01*
Y-17312D01*
D02*
G37*
G36*
X77070D02*
Y-17454D01*
X77212D01*
X77207Y-17427D01*
X77163Y-17361D01*
X77097Y-17317D01*
X77070Y-17312D01*
D02*
G37*
G36*
X26260Y-18031D02*
X26183Y-18041D01*
X26110Y-18071D01*
X26048Y-18118D01*
X26001Y-18180D01*
X25971Y-18253D01*
X25961Y-18330D01*
X25971Y-18407D01*
X26001Y-18480D01*
X26048Y-18542D01*
X26110Y-18589D01*
X26183Y-18619D01*
X26260Y-18629D01*
X26337Y-18619D01*
X26410Y-18589D01*
X26472Y-18542D01*
X26519Y-18480D01*
X26549Y-18407D01*
X26559Y-18330D01*
X26549Y-18253D01*
X26519Y-18180D01*
X26472Y-18118D01*
X26410Y-18071D01*
X26337Y-18041D01*
X26260Y-18031D01*
D02*
G37*
G36*
X65272Y-18735D02*
X65130D01*
Y-18877D01*
X65157Y-18872D01*
X65223Y-18828D01*
X65267Y-18762D01*
X65272Y-18735D01*
D02*
G37*
G36*
X65030D02*
X64888D01*
X64893Y-18762D01*
X64937Y-18828D01*
X65003Y-18872D01*
X65030Y-18877D01*
Y-18735D01*
D02*
G37*
G36*
X35210Y-18708D02*
Y-18850D01*
X35352D01*
X35347Y-18823D01*
X35303Y-18757D01*
X35237Y-18713D01*
X35210Y-18708D01*
D02*
G37*
G36*
X35110D02*
X35083Y-18713D01*
X35017Y-18757D01*
X34973Y-18823D01*
X34968Y-18850D01*
X35110D01*
Y-18708D01*
D02*
G37*
G36*
X64276Y-18735D02*
X64133D01*
Y-18877D01*
X64161Y-18872D01*
X64226Y-18828D01*
X64270Y-18762D01*
X64276Y-18735D01*
D02*
G37*
G36*
X63037D02*
X62894D01*
X62900Y-18762D01*
X62944Y-18828D01*
X63009Y-18872D01*
X63037Y-18877D01*
Y-18735D01*
D02*
G37*
G36*
X38170Y-18748D02*
X38143Y-18753D01*
X38077Y-18797D01*
X38033Y-18863D01*
X38028Y-18890D01*
X38170D01*
Y-18748D01*
D02*
G37*
G36*
X64033Y-18735D02*
X63891D01*
X63896Y-18762D01*
X63940Y-18828D01*
X64006Y-18872D01*
X64033Y-18877D01*
Y-18735D01*
D02*
G37*
G36*
X63279D02*
X63137D01*
Y-18877D01*
X63164Y-18872D01*
X63230Y-18828D01*
X63274Y-18762D01*
X63279Y-18735D01*
D02*
G37*
G36*
X70364Y-18608D02*
X70337Y-18613D01*
X70271Y-18657D01*
X70227Y-18723D01*
X70222Y-18750D01*
X70364D01*
Y-18608D01*
D02*
G37*
G36*
X64133Y-18492D02*
Y-18635D01*
X64276D01*
X64270Y-18607D01*
X64226Y-18542D01*
X64161Y-18498D01*
X64133Y-18492D01*
D02*
G37*
G36*
X64033D02*
X64006Y-18498D01*
X63940Y-18542D01*
X63896Y-18607D01*
X63891Y-18635D01*
X64033D01*
Y-18492D01*
D02*
G37*
G36*
X65130D02*
Y-18635D01*
X65272D01*
X65267Y-18607D01*
X65223Y-18542D01*
X65157Y-18498D01*
X65130Y-18492D01*
D02*
G37*
G36*
X65030D02*
X65003Y-18498D01*
X64937Y-18542D01*
X64893Y-18607D01*
X64888Y-18635D01*
X65030D01*
Y-18492D01*
D02*
G37*
G36*
X63137D02*
Y-18635D01*
X63279D01*
X63274Y-18607D01*
X63230Y-18542D01*
X63164Y-18498D01*
X63137Y-18492D01*
D02*
G37*
G36*
X62340Y-18528D02*
X62313Y-18533D01*
X62247Y-18577D01*
X62203Y-18643D01*
X62198Y-18670D01*
X62340D01*
Y-18528D01*
D02*
G37*
G36*
X70464Y-18608D02*
Y-18750D01*
X70606D01*
X70601Y-18723D01*
X70557Y-18657D01*
X70491Y-18613D01*
X70464Y-18608D01*
D02*
G37*
G36*
X63037Y-18492D02*
X63009Y-18498D01*
X62944Y-18542D01*
X62900Y-18607D01*
X62894Y-18635D01*
X63037D01*
Y-18492D01*
D02*
G37*
G36*
X62440Y-18528D02*
Y-18670D01*
X62582D01*
X62577Y-18643D01*
X62533Y-18577D01*
X62467Y-18533D01*
X62440Y-18528D01*
D02*
G37*
G36*
X66683Y-11590D02*
X66584Y-11596D01*
X66490Y-11627D01*
X65852Y-11934D01*
X65769Y-11988D01*
X65703Y-12062D01*
X65659Y-12150D01*
X65638Y-12247D01*
X65644Y-12346D01*
X65675Y-12440D01*
X65729Y-12522D01*
X65803Y-12588D01*
X65891Y-12633D01*
X65988Y-12653D01*
X66087Y-12648D01*
X66180Y-12617D01*
X66819Y-12309D01*
X66872Y-12275D01*
X68528D01*
X68587Y-12263D01*
X68637Y-12230D01*
X68657Y-12209D01*
X68717Y-12197D01*
X68783Y-12153D01*
X68827Y-12087D01*
X68842Y-12010D01*
X68827Y-11933D01*
X68783Y-11867D01*
X68717Y-11823D01*
X68640Y-11808D01*
X68563Y-11823D01*
X68497Y-11867D01*
X68453Y-11933D01*
X68446Y-11969D01*
X67031D01*
X67027Y-11897D01*
X66996Y-11804D01*
X66942Y-11721D01*
X66868Y-11655D01*
X66780Y-11610D01*
X66683Y-11590D01*
D02*
G37*
G36*
X50935D02*
X50836Y-11596D01*
X50742Y-11627D01*
X50104Y-11934D01*
X50021Y-11988D01*
X49955Y-12062D01*
X49910Y-12150D01*
X49890Y-12247D01*
X49896Y-12346D01*
X49927Y-12440D01*
X49981Y-12522D01*
X50055Y-12588D01*
X50143Y-12633D01*
X50240Y-12653D01*
X50338Y-12648D01*
X50432Y-12617D01*
X51071Y-12309D01*
X51154Y-12255D01*
X51220Y-12181D01*
X51264Y-12093D01*
X51284Y-11996D01*
X51279Y-11897D01*
X51248Y-11804D01*
X51194Y-11721D01*
X51120Y-11655D01*
X51032Y-11610D01*
X50935Y-11590D01*
D02*
G37*
G36*
X27560Y-12270D02*
X27418D01*
X27423Y-12297D01*
X27467Y-12363D01*
X27533Y-12407D01*
X27560Y-12412D01*
Y-12270D01*
D02*
G37*
G36*
X78888Y-11590D02*
X78789Y-11596D01*
X78695Y-11627D01*
X78056Y-11934D01*
X77974Y-11988D01*
X77908Y-12062D01*
X77863Y-12150D01*
X77843Y-12247D01*
X77849Y-12346D01*
X77879Y-12440D01*
X77934Y-12522D01*
X78007Y-12588D01*
X78096Y-12633D01*
X78193Y-12653D01*
X78291Y-12648D01*
X78385Y-12617D01*
X79024Y-12309D01*
X79106Y-12255D01*
X79172Y-12181D01*
X79217Y-12093D01*
X79237Y-11996D01*
X79232Y-11897D01*
X79201Y-11804D01*
X79146Y-11721D01*
X79073Y-11655D01*
X78984Y-11610D01*
X78888Y-11590D01*
D02*
G37*
G36*
X38730D02*
X38631Y-11596D01*
X38537Y-11627D01*
X37899Y-11934D01*
X37816Y-11988D01*
X37750Y-12062D01*
X37706Y-12150D01*
X37686Y-12247D01*
X37691Y-12346D01*
X37722Y-12440D01*
X37776Y-12522D01*
X37850Y-12588D01*
X37938Y-12633D01*
X38035Y-12653D01*
X38134Y-12648D01*
X38228Y-12617D01*
X38866Y-12309D01*
X38949Y-12255D01*
X39015Y-12181D01*
X39059Y-12093D01*
X39080Y-11996D01*
X39074Y-11897D01*
X39043Y-11804D01*
X38989Y-11721D01*
X38915Y-11655D01*
X38827Y-11610D01*
X38730Y-11590D01*
D02*
G37*
G36*
X46005Y-10463D02*
X45907Y-10465D01*
X45812Y-10492D01*
X45727Y-10543D01*
X45658Y-10615D01*
X45610Y-10701D01*
X45587Y-10797D01*
X45588Y-10896D01*
X45616Y-10991D01*
X45667Y-11076D01*
X46109Y-11630D01*
X46180Y-11698D01*
X46266Y-11746D01*
X46362Y-11770D01*
X46461Y-11768D01*
X46556Y-11741D01*
X46641Y-11690D01*
X46710Y-11619D01*
X46757Y-11532D01*
X46781Y-11436D01*
X46779Y-11337D01*
X46752Y-11242D01*
X46701Y-11157D01*
X46259Y-10603D01*
X46188Y-10535D01*
X46101Y-10487D01*
X46005Y-10463D01*
D02*
G37*
G36*
X52026D02*
X51930Y-10487D01*
X51844Y-10535D01*
X51772Y-10603D01*
X51330Y-11157D01*
X51279Y-11242D01*
X51252Y-11337D01*
X51250Y-11436D01*
X51274Y-11532D01*
X51322Y-11619D01*
X51390Y-11690D01*
X51475Y-11741D01*
X51570Y-11768D01*
X51669Y-11770D01*
X51765Y-11746D01*
X51852Y-11698D01*
X51923Y-11630D01*
X52365Y-11076D01*
X52416Y-10991D01*
X52443Y-10896D01*
X52445Y-10797D01*
X52421Y-10701D01*
X52373Y-10615D01*
X52305Y-10543D01*
X52220Y-10492D01*
X52125Y-10465D01*
X52026Y-10463D01*
D02*
G37*
G36*
X22982Y-11590D02*
X22883Y-11596D01*
X22789Y-11627D01*
X22151Y-11934D01*
X22068Y-11988D01*
X22002Y-12062D01*
X21958Y-12150D01*
X21938Y-12247D01*
X21943Y-12346D01*
X21974Y-12440D01*
X22028Y-12522D01*
X22102Y-12588D01*
X22190Y-12633D01*
X22287Y-12653D01*
X22386Y-12648D01*
X22480Y-12617D01*
X23118Y-12309D01*
X23201Y-12255D01*
X23267Y-12181D01*
X23311Y-12093D01*
X23332Y-11996D01*
X23326Y-11897D01*
X23295Y-11804D01*
X23241Y-11721D01*
X23167Y-11655D01*
X23079Y-11610D01*
X22982Y-11590D01*
D02*
G37*
G36*
X77598Y-12103D02*
X76339D01*
X76300Y-12111D01*
X76266Y-12133D01*
X76244Y-12166D01*
X76237Y-12205D01*
Y-12756D01*
X76244Y-12795D01*
X76266Y-12828D01*
X76300Y-12850D01*
X76339Y-12858D01*
X77598D01*
X77637Y-12850D01*
X77671Y-12828D01*
X77693Y-12795D01*
X77700Y-12756D01*
Y-12205D01*
X77693Y-12166D01*
X77671Y-12133D01*
X77637Y-12111D01*
X77598Y-12103D01*
D02*
G37*
G36*
X27802Y-12270D02*
X27660D01*
Y-12412D01*
X27687Y-12407D01*
X27753Y-12363D01*
X27797Y-12297D01*
X27802Y-12270D01*
D02*
G37*
G36*
X24073Y-10463D02*
X23977Y-10487D01*
X23891Y-10535D01*
X23820Y-10603D01*
X23378Y-11157D01*
X23327Y-11242D01*
X23299Y-11337D01*
X23297Y-11436D01*
X23321Y-11532D01*
X23369Y-11619D01*
X23438Y-11690D01*
X23522Y-11741D01*
X23617Y-11768D01*
X23716Y-11770D01*
X23812Y-11746D01*
X23899Y-11698D01*
X23970Y-11630D01*
X24412Y-11076D01*
X24463Y-10991D01*
X24490Y-10896D01*
X24492Y-10797D01*
X24468Y-10701D01*
X24421Y-10615D01*
X24352Y-10543D01*
X24267Y-10492D01*
X24172Y-10465D01*
X24073Y-10463D01*
D02*
G37*
G36*
X18053D02*
X17954Y-10465D01*
X17859Y-10492D01*
X17774Y-10543D01*
X17705Y-10615D01*
X17658Y-10701D01*
X17634Y-10797D01*
X17636Y-10896D01*
X17663Y-10991D01*
X17714Y-11076D01*
X18156Y-11630D01*
X18227Y-11698D01*
X18314Y-11746D01*
X18410Y-11770D01*
X18509Y-11768D01*
X18604Y-11741D01*
X18688Y-11690D01*
X18757Y-11619D01*
X18805Y-11532D01*
X18829Y-11436D01*
X18827Y-11337D01*
X18799Y-11242D01*
X18748Y-11157D01*
X18306Y-10603D01*
X18235Y-10535D01*
X18149Y-10487D01*
X18053Y-10463D01*
D02*
G37*
G36*
X39821D02*
X39725Y-10487D01*
X39639Y-10535D01*
X39568Y-10603D01*
X39126Y-11157D01*
X39075Y-11242D01*
X39047Y-11337D01*
X39045Y-11436D01*
X39069Y-11532D01*
X39117Y-11619D01*
X39186Y-11690D01*
X39270Y-11741D01*
X39365Y-11768D01*
X39464Y-11770D01*
X39560Y-11746D01*
X39647Y-11698D01*
X39718Y-11630D01*
X40160Y-11076D01*
X40211Y-10991D01*
X40238Y-10896D01*
X40240Y-10797D01*
X40216Y-10701D01*
X40169Y-10615D01*
X40100Y-10543D01*
X40015Y-10492D01*
X39920Y-10465D01*
X39821Y-10463D01*
D02*
G37*
G36*
X33801D02*
X33702Y-10465D01*
X33607Y-10492D01*
X33522Y-10543D01*
X33453Y-10615D01*
X33406Y-10701D01*
X33382Y-10797D01*
X33384Y-10896D01*
X33411Y-10991D01*
X33462Y-11076D01*
X33904Y-11630D01*
X33975Y-11698D01*
X34062Y-11746D01*
X34158Y-11770D01*
X34257Y-11768D01*
X34352Y-11741D01*
X34436Y-11690D01*
X34505Y-11619D01*
X34553Y-11532D01*
X34577Y-11436D01*
X34575Y-11337D01*
X34547Y-11242D01*
X34496Y-11157D01*
X34054Y-10603D01*
X33983Y-10535D01*
X33897Y-10487D01*
X33801Y-10463D01*
D02*
G37*
G36*
X11869Y-10473D02*
X11773Y-10497D01*
X11686Y-10545D01*
X11615Y-10613D01*
X11173Y-11167D01*
X11122Y-11252D01*
X11095Y-11347D01*
X11093Y-11446D01*
X11117Y-11542D01*
X11164Y-11629D01*
X11233Y-11700D01*
X11318Y-11751D01*
X11413Y-11778D01*
X11512Y-11780D01*
X11608Y-11756D01*
X11694Y-11708D01*
X11765Y-11640D01*
X12207Y-11086D01*
X12258Y-11001D01*
X12286Y-10906D01*
X12287Y-10807D01*
X12264Y-10711D01*
X12216Y-10625D01*
X12147Y-10553D01*
X12063Y-10502D01*
X11967Y-10475D01*
X11869Y-10473D01*
D02*
G37*
G36*
X27560Y-12028D02*
X27533Y-12033D01*
X27467Y-12077D01*
X27423Y-12143D01*
X27418Y-12170D01*
X27560D01*
Y-12028D01*
D02*
G37*
G36*
X10777Y-11600D02*
X10679Y-11606D01*
X10585Y-11637D01*
X9946Y-11944D01*
X9863Y-11998D01*
X9798Y-12072D01*
X9753Y-12160D01*
X9733Y-12257D01*
X9738Y-12356D01*
X9769Y-12450D01*
X9823Y-12532D01*
X9897Y-12598D01*
X9985Y-12643D01*
X10082Y-12663D01*
X10181Y-12658D01*
X10275Y-12627D01*
X10913Y-12319D01*
X10966Y-12285D01*
X13169D01*
X13173Y-12287D01*
X13250Y-12302D01*
X13327Y-12287D01*
X13393Y-12243D01*
X13437Y-12177D01*
X13452Y-12100D01*
X13437Y-12023D01*
X13393Y-11957D01*
X13327Y-11913D01*
X13250Y-11898D01*
X13173Y-11913D01*
X13107Y-11957D01*
X13092Y-11979D01*
X11125D01*
X11121Y-11907D01*
X11090Y-11814D01*
X11036Y-11731D01*
X10962Y-11665D01*
X10874Y-11620D01*
X10777Y-11600D01*
D02*
G37*
G36*
X5848Y-10473D02*
X5749Y-10475D01*
X5654Y-10502D01*
X5569Y-10553D01*
X5501Y-10625D01*
X5453Y-10711D01*
X5429Y-10807D01*
X5431Y-10906D01*
X5458Y-11001D01*
X5509Y-11086D01*
X5951Y-11640D01*
X6022Y-11708D01*
X6109Y-11756D01*
X6205Y-11780D01*
X6304Y-11778D01*
X6399Y-11751D01*
X6484Y-11700D01*
X6552Y-11629D01*
X6600Y-11542D01*
X6624Y-11446D01*
X6622Y-11347D01*
X6595Y-11252D01*
X6544Y-11167D01*
X6102Y-10613D01*
X6030Y-10545D01*
X5944Y-10497D01*
X5848Y-10473D01*
D02*
G37*
G36*
X27660Y-12028D02*
Y-12170D01*
X27802D01*
X27797Y-12143D01*
X27753Y-12077D01*
X27687Y-12033D01*
X27660Y-12028D01*
D02*
G37*
G36*
X4592Y-13780D02*
X4450D01*
Y-13922D01*
X4477Y-13917D01*
X4543Y-13873D01*
X4587Y-13807D01*
X4592Y-13780D01*
D02*
G37*
G36*
X4350D02*
X4208D01*
X4213Y-13807D01*
X4257Y-13873D01*
X4323Y-13917D01*
X4350Y-13922D01*
Y-13780D01*
D02*
G37*
G36*
X4450Y-13538D02*
Y-13680D01*
X4592D01*
X4587Y-13653D01*
X4543Y-13587D01*
X4477Y-13543D01*
X4450Y-13538D01*
D02*
G37*
G36*
X4350D02*
X4323Y-13543D01*
X4257Y-13587D01*
X4213Y-13653D01*
X4208Y-13680D01*
X4350D01*
Y-13538D01*
D02*
G37*
G36*
X6490Y-14368D02*
Y-14510D01*
X6632D01*
X6627Y-14483D01*
X6583Y-14417D01*
X6517Y-14373D01*
X6490Y-14368D01*
D02*
G37*
G36*
X6390Y-14610D02*
X6248D01*
X6253Y-14637D01*
X6297Y-14703D01*
X6363Y-14747D01*
X6390Y-14752D01*
Y-14610D01*
D02*
G37*
G36*
X5550Y-14679D02*
Y-14821D01*
X5692D01*
X5687Y-14794D01*
X5643Y-14728D01*
X5577Y-14684D01*
X5550Y-14679D01*
D02*
G37*
G36*
X6390Y-14368D02*
X6363Y-14373D01*
X6297Y-14417D01*
X6253Y-14483D01*
X6248Y-14510D01*
X6390D01*
Y-14368D01*
D02*
G37*
G36*
X6632Y-14610D02*
X6490D01*
Y-14752D01*
X6517Y-14747D01*
X6583Y-14703D01*
X6627Y-14637D01*
X6632Y-14610D01*
D02*
G37*
G36*
X55945Y-13070D02*
X55803D01*
X55808Y-13097D01*
X55852Y-13163D01*
X55918Y-13207D01*
X55945Y-13212D01*
Y-13070D01*
D02*
G37*
G36*
X37441Y-12103D02*
X36181D01*
X36142Y-12111D01*
X36109Y-12133D01*
X36087Y-12166D01*
X36079Y-12205D01*
Y-12756D01*
X36087Y-12795D01*
X36109Y-12828D01*
X36142Y-12850D01*
X36181Y-12858D01*
X37441D01*
X37480Y-12850D01*
X37513Y-12828D01*
X37535Y-12795D01*
X37543Y-12756D01*
Y-12205D01*
X37535Y-12166D01*
X37513Y-12133D01*
X37480Y-12111D01*
X37441Y-12103D01*
D02*
G37*
G36*
X21693D02*
X20433D01*
X20394Y-12111D01*
X20361Y-12133D01*
X20339Y-12166D01*
X20331Y-12205D01*
Y-12756D01*
X20339Y-12795D01*
X20361Y-12828D01*
X20394Y-12850D01*
X20433Y-12858D01*
X21693D01*
X21732Y-12850D01*
X21765Y-12828D01*
X21787Y-12795D01*
X21795Y-12756D01*
Y-12205D01*
X21787Y-12166D01*
X21765Y-12133D01*
X21732Y-12111D01*
X21693Y-12103D01*
D02*
G37*
G36*
X65394D02*
X64134D01*
X64095Y-12111D01*
X64062Y-12133D01*
X64040Y-12166D01*
X64032Y-12205D01*
Y-12756D01*
X64040Y-12795D01*
X64062Y-12828D01*
X64095Y-12850D01*
X64134Y-12858D01*
X65394D01*
X65433Y-12850D01*
X65466Y-12828D01*
X65488Y-12795D01*
X65496Y-12756D01*
Y-12205D01*
X65488Y-12166D01*
X65466Y-12133D01*
X65433Y-12111D01*
X65394Y-12103D01*
D02*
G37*
G36*
X49646D02*
X48386D01*
X48347Y-12111D01*
X48314Y-12133D01*
X48292Y-12166D01*
X48284Y-12205D01*
Y-12756D01*
X48292Y-12795D01*
X48314Y-12828D01*
X48347Y-12850D01*
X48386Y-12858D01*
X49646D01*
X49685Y-12850D01*
X49718Y-12828D01*
X49740Y-12795D01*
X49748Y-12756D01*
Y-12205D01*
X49740Y-12166D01*
X49718Y-12133D01*
X49685Y-12111D01*
X49646Y-12103D01*
D02*
G37*
G36*
X9488Y-12113D02*
X8228D01*
X8189Y-12121D01*
X8156Y-12143D01*
X8134Y-12176D01*
X8126Y-12215D01*
Y-12766D01*
X8134Y-12805D01*
X8156Y-12838D01*
X8189Y-12860D01*
X8228Y-12868D01*
X9488D01*
X9527Y-12860D01*
X9560Y-12838D01*
X9582Y-12805D01*
X9590Y-12766D01*
Y-12215D01*
X9582Y-12176D01*
X9560Y-12143D01*
X9527Y-12121D01*
X9488Y-12113D01*
D02*
G37*
G36*
X55945Y-12828D02*
X55918Y-12833D01*
X55852Y-12877D01*
X55808Y-12943D01*
X55803Y-12970D01*
X55945D01*
Y-12828D01*
D02*
G37*
G36*
X56187Y-13070D02*
X56045D01*
Y-13212D01*
X56072Y-13207D01*
X56138Y-13163D01*
X56182Y-13097D01*
X56187Y-13070D01*
D02*
G37*
G36*
X61753Y-10463D02*
X61655Y-10465D01*
X61560Y-10492D01*
X61475Y-10543D01*
X61406Y-10615D01*
X61358Y-10701D01*
X61335Y-10797D01*
X61336Y-10896D01*
X61364Y-10991D01*
X61415Y-11076D01*
X61857Y-11630D01*
X61928Y-11698D01*
X62014Y-11746D01*
X62110Y-11770D01*
X62209Y-11768D01*
X62304Y-11741D01*
X62389Y-11690D01*
X62458Y-11619D01*
X62506Y-11532D01*
X62529Y-11436D01*
X62527Y-11337D01*
X62500Y-11242D01*
X62449Y-11157D01*
X62007Y-10603D01*
X61936Y-10535D01*
X61849Y-10487D01*
X61753Y-10463D01*
D02*
G37*
G36*
X56045Y-12828D02*
Y-12970D01*
X56187D01*
X56182Y-12943D01*
X56138Y-12877D01*
X56072Y-12833D01*
X56045Y-12828D01*
D02*
G37*
%LPD*%
G36*
X43345Y-26569D02*
X42807Y-27107D01*
X42360D01*
X42339Y-27057D01*
X42457Y-26939D01*
X42517Y-26927D01*
X42583Y-26883D01*
X42627Y-26817D01*
X42642Y-26740D01*
X42627Y-26663D01*
X42583Y-26597D01*
X42547Y-26573D01*
X42562Y-26523D01*
X43325D01*
X43345Y-26569D01*
D02*
G37*
G36*
X61663Y-23866D02*
X61683Y-23903D01*
X61678Y-23930D01*
Y-24436D01*
X60917Y-25197D01*
X60285D01*
X60265Y-25151D01*
X61563Y-23853D01*
X61651D01*
X61663Y-23866D01*
D02*
G37*
G36*
X37911Y-26787D02*
X37890Y-26837D01*
X34150D01*
X34091Y-26849D01*
X34042Y-26882D01*
X33531Y-27393D01*
X33515Y-27390D01*
X33493Y-27336D01*
X33504Y-27323D01*
X33545Y-27223D01*
X33559Y-27116D01*
X33545Y-27009D01*
X33504Y-26909D01*
X33438Y-26823D01*
X33411Y-26803D01*
X33428Y-26753D01*
X37877D01*
X37911Y-26787D01*
D02*
G37*
G36*
X47395Y-18839D02*
X47238Y-18995D01*
X41810D01*
X41773Y-18945D01*
X41782Y-18900D01*
X41771Y-18843D01*
X41803Y-18793D01*
X47375D01*
X47395Y-18839D01*
D02*
G37*
D10*
X37160Y-27210D02*
X37478Y-27528D01*
X36605Y-27205D02*
X37160Y-27760D01*
X37954Y-27320D02*
X38014Y-27260D01*
X62470Y-23700D02*
X63090Y-24320D01*
X38450Y-26370D02*
X43477D01*
X41660Y-26700D02*
X41720Y-26760D01*
X42952Y-26120D02*
X43002Y-26070D01*
X37840Y-26120D02*
X42952D01*
X43002Y-26070D02*
X43290D01*
X35472Y-23752D02*
X37840Y-26120D01*
X43477Y-26370D02*
X44727Y-25120D01*
X37940Y-26600D02*
X38040Y-26700D01*
X31270Y-26600D02*
X37940D01*
X38040Y-26700D02*
X41660D01*
X37478Y-27528D02*
X47052D01*
X47550Y-27030D01*
X42190Y-26990D02*
X42440Y-26740D01*
X34150Y-26990D02*
X42190D01*
X44727Y-25120D02*
X60080D01*
X44600Y-24920D02*
X59997D01*
X44080Y-25440D02*
X44600Y-24920D01*
X40660Y-25440D02*
X44080D01*
X44517Y-24720D02*
X59910D01*
X44097Y-25140D02*
X44517Y-24720D01*
X40130Y-25140D02*
X44097D01*
X38014Y-27260D02*
X42870D01*
X44780Y-25350D01*
X37638Y-20538D02*
X38383D01*
X38528Y-20382D02*
X39762Y-19148D01*
X38528Y-20393D02*
Y-20382D01*
X38383Y-20538D02*
X38528Y-20393D01*
X39762Y-19148D02*
X47302D01*
X52066Y-14384D02*
X55344D01*
X47302Y-19148D02*
X52066Y-14384D01*
X47490Y-18640D02*
X56766Y-9364D01*
X39579Y-18640D02*
X47490D01*
X37999Y-20220D02*
X39579Y-18640D01*
X29170Y-12770D02*
Y-9878D01*
X27690Y-14250D02*
X29170Y-12770D01*
X27690Y-21323D02*
Y-14250D01*
X34720Y-21290D02*
X35190Y-20820D01*
X28320Y-21290D02*
X34720D01*
X39152Y-21780D02*
X39851Y-22479D01*
X28147Y-21780D02*
X39152D01*
X27690Y-21323D02*
X28147Y-21780D01*
X28230Y-21580D02*
X37960D01*
X27900Y-21250D02*
X28230Y-21580D01*
X27900Y-21250D02*
Y-14510D01*
X37960Y-21580D02*
X38960Y-20580D01*
X59910Y-24720D02*
X61330Y-23300D01*
X64520D01*
X61417Y-23500D02*
X63350D01*
X59997Y-24920D02*
X61417Y-23500D01*
X64520Y-23300D02*
X65090Y-23870D01*
X63350Y-23500D02*
X64090Y-24240D01*
X61500Y-23700D02*
X62470D01*
X60080Y-25120D02*
X61500Y-23700D01*
X63090Y-24320D02*
Y-24240D01*
X47510Y-27760D02*
X48490Y-26780D01*
X37160Y-27760D02*
X47510D01*
X31145Y-26725D02*
X31270Y-26600D01*
X31145Y-27116D02*
Y-26725D01*
X32605Y-27576D02*
X33564D01*
X32145Y-27116D02*
X32605Y-27576D01*
X33564D02*
X34150Y-26990D01*
X39670Y-18900D02*
X41580D01*
X38280Y-20290D02*
X39670Y-18900D01*
X35710Y-19590D02*
X36190Y-20070D01*
X34715Y-19590D02*
X35710D01*
X37900Y-18620D02*
X38220Y-18940D01*
X35440Y-18620D02*
X37900D01*
X35160Y-18900D02*
X35440Y-18620D01*
X36040Y-21060D02*
X37010D01*
X35760Y-20780D02*
X36040Y-21060D01*
X35760Y-20780D02*
Y-20290D01*
X37230Y-18940D02*
X38220D01*
X36920Y-19250D02*
X37230Y-18940D01*
X36920Y-20670D02*
Y-19250D01*
X37230Y-20840D02*
Y-20440D01*
X37010Y-21060D02*
X37230Y-20840D01*
X29170Y-9878D02*
X29614Y-9434D01*
X36680Y-20543D02*
Y-18930D01*
X38565Y-19185D02*
Y-18900D01*
X13218Y-12132D02*
X13250Y-12100D01*
X10430Y-12132D02*
X13218D01*
X65080Y-28470D02*
Y-26270D01*
X65060Y-28490D02*
X65080Y-28470D01*
X27900Y-14510D02*
X29270Y-13140D01*
X44780Y-25350D02*
X60980D01*
X35472Y-23752D02*
X35550Y-22890D01*
X41100Y-23870D02*
X51770D01*
X60980Y-25350D02*
X62090Y-24240D01*
X40103Y-22873D02*
X41100Y-23870D01*
X40097Y-22873D02*
X40103D01*
X64080Y-28410D02*
X64140Y-28490D01*
X64080Y-28410D02*
Y-26270D01*
X63080Y-28420D02*
X63130Y-28490D01*
X63080Y-28420D02*
Y-26270D01*
X62060Y-28490D02*
X62080Y-28410D01*
Y-26270D01*
X52050Y-28490D02*
X52096Y-28384D01*
Y-25970D01*
X41015Y-23035D02*
X41171Y-23191D01*
X41015Y-23035D02*
Y-21435D01*
X65090Y-24240D02*
Y-23870D01*
X56766Y-9364D02*
X57474D01*
X37481Y-20220D02*
X37999D01*
X37443Y-20258D02*
X37481Y-20220D01*
X37412Y-20258D02*
X37443D01*
X37230Y-20440D02*
X37412Y-20258D01*
X37340Y-20010D02*
X37740D01*
X38565Y-19185D01*
X34410Y-19637D02*
Y-19175D01*
Y-19637D02*
X35363Y-20590D01*
X35440D01*
X37630Y-20530D02*
X37638Y-20538D01*
X34410Y-19175D02*
X34705Y-18880D01*
X36549Y-20673D02*
X36680Y-20543D01*
X68528Y-12122D02*
X68640Y-12010D01*
X66335Y-12122D02*
X68528D01*
X85827Y-31449D02*
Y-2D01*
X85780Y-31496D02*
X85827Y-31449D01*
X0Y-31496D02*
X85780D01*
X0Y-2D02*
X85827D01*
X0Y-31496D02*
Y-2D01*
D54*
X75600Y-24460D02*
X81380D01*
X74701Y-23561D02*
X75600Y-24460D01*
X74701Y-23561D02*
Y-16091D01*
X81359Y-28351D02*
Y-27281D01*
X80620Y-29090D02*
X81359Y-28351D01*
X12830Y-29090D02*
X80620D01*
X11481Y-27741D02*
X12830Y-29090D01*
X11481Y-27741D02*
Y-16091D01*
X81359Y-27281D02*
Y-24481D01*
X81380Y-24460D01*
D55*
X78540Y-12122D02*
D03*
X75397Y-5595D02*
D03*
X66335Y-12122D02*
D03*
X63192Y-5595D02*
D03*
X50587Y-12122D02*
D03*
X47444Y-5595D02*
D03*
X38383Y-12122D02*
D03*
X35239Y-5595D02*
D03*
X22635Y-12122D02*
D03*
X19491Y-5595D02*
D03*
X10430Y-12132D02*
D03*
X7287Y-5605D02*
D03*
D56*
X79800Y-11117D02*
D03*
X74137Y-6600D02*
D03*
X67596Y-11117D02*
D03*
X61932Y-6600D02*
D03*
X51848Y-11117D02*
D03*
X46184Y-6600D02*
D03*
X39643Y-11117D02*
D03*
X33979Y-6600D02*
D03*
X23895Y-11117D02*
D03*
X18231Y-6600D02*
D03*
X11690Y-11127D02*
D03*
X6026Y-6610D02*
D03*
D57*
X80500Y-9664D02*
D03*
X73437Y-8052D02*
D03*
X68295Y-9664D02*
D03*
X61233Y-8052D02*
D03*
X52547Y-9664D02*
D03*
X45485Y-8052D02*
D03*
X40342Y-9664D02*
D03*
X33280Y-8052D02*
D03*
X24594Y-9664D02*
D03*
X17532Y-8052D02*
D03*
X12390Y-9674D02*
D03*
X5327Y-8062D02*
D03*
D58*
X80500Y-8052D02*
D03*
X73437Y-9664D02*
D03*
X68295Y-8052D02*
D03*
X61233Y-9664D02*
D03*
X52547Y-8052D02*
D03*
X45485Y-9664D02*
D03*
X40342Y-8052D02*
D03*
X33280Y-9664D02*
D03*
X24594Y-8052D02*
D03*
X17532Y-9664D02*
D03*
X12390Y-8062D02*
D03*
X5327Y-9674D02*
D03*
D59*
X79800Y-6600D02*
D03*
X74137Y-11117D02*
D03*
X67596Y-6600D02*
D03*
X61932Y-11117D02*
D03*
X51848Y-6600D02*
D03*
X46184Y-11117D02*
D03*
X39643Y-6600D02*
D03*
X33979Y-11117D02*
D03*
X23895Y-6600D02*
D03*
X18231Y-11117D02*
D03*
X11690Y-6610D02*
D03*
X6026Y-11127D02*
D03*
D60*
X78540Y-5595D02*
D03*
X66335D02*
D03*
X50587D02*
D03*
X38383D02*
D03*
X22635D02*
D03*
X10430Y-5605D02*
D03*
D61*
X76968Y-5236D02*
D03*
X64764D02*
D03*
X49016D02*
D03*
X36811D02*
D03*
X21063D02*
D03*
X8858Y-5246D02*
D03*
D62*
X76968Y-12480D02*
D03*
X64764D02*
D03*
X49016D02*
D03*
X36811D02*
D03*
X21063D02*
D03*
X8858Y-12490D02*
D03*
D63*
X57972Y-11102D02*
D03*
X55807D02*
D03*
X30020D02*
D03*
X27854D02*
D03*
X57972Y-6614D02*
D03*
X55807D02*
D03*
X30020D02*
D03*
X27854D02*
D03*
D64*
X62090Y-21240D02*
D03*
X63090D02*
D03*
X65090Y-24240D02*
D03*
X64090D02*
D03*
X63090D02*
D03*
X32145Y-27116D02*
D03*
X33145D02*
D03*
D65*
X64090Y-21240D02*
D03*
X65090D02*
D03*
D66*
X62090Y-24240D02*
D03*
D67*
X31145Y-26116D02*
D03*
X32145D02*
D03*
X33145D02*
D03*
D68*
X31145Y-27116D02*
D03*
D69*
X26260Y-18330D02*
D03*
X12140Y-16110D02*
D03*
X5500Y-17650D02*
D03*
X3530Y-21760D02*
D03*
X3595Y-25225D02*
D03*
X14950Y-21210D02*
D03*
X81359Y-27281D02*
D03*
X81380Y-24460D02*
D03*
X74701Y-16091D02*
D03*
X11481D02*
D03*
D70*
X2490Y-21949D02*
D03*
Y-25351D02*
D03*
D71*
X1033Y-21949D02*
D03*
Y-25351D02*
D03*
D72*
X73500Y-21040D02*
D03*
D73*
Y-23993D02*
D03*
D74*
X1070Y-16960D02*
D03*
Y-18810D02*
D03*
X2960Y-16960D02*
D03*
Y-18810D02*
D03*
X1070Y-20660D02*
D03*
X2960D02*
D03*
D75*
X28942Y-27080D02*
D03*
X26383D02*
D03*
Y-25309D02*
D03*
X28942D02*
D03*
D76*
X37954Y-27280D02*
D03*
X79920Y-23790D02*
D03*
X77960Y-17504D02*
D03*
X77020D02*
D03*
X74170Y-25905D02*
D03*
X70414Y-18800D02*
D03*
X69670Y-19885D02*
D03*
X68690Y-24314D02*
D03*
X62390Y-18720D02*
D03*
X63087Y-18685D02*
D03*
X64083D02*
D03*
X65080D02*
D03*
X55995Y-13020D02*
D03*
X56065Y-9590D02*
D03*
X28150Y-9680D02*
D03*
X27610Y-12220D02*
D03*
X58936Y-25670D02*
D03*
X52844Y-25970D02*
D03*
X39010Y-25840D02*
D03*
X43290Y-26070D02*
D03*
X42590Y-24609D02*
D03*
X31650Y-19295D02*
D03*
X31340Y-22159D02*
D03*
X30605Y-24290D02*
D03*
X29290Y-26535D02*
D03*
X27280Y-20313D02*
D03*
X26670Y-23805D02*
D03*
X24190Y-25735D02*
D03*
X20175Y-22500D02*
D03*
X18755Y-24170D02*
D03*
X17570Y-23924D02*
D03*
X15610Y-26439D02*
D03*
X12480Y-23475D02*
D03*
X10720Y-24850D02*
D03*
X7964D02*
D03*
X5960Y-27490D02*
D03*
X1977Y-22567D02*
D03*
Y-24733D02*
D03*
X4500Y-21940D02*
D03*
X9100Y-20720D02*
D03*
X10350Y-18179D02*
D03*
X6440Y-14560D02*
D03*
X5500Y-14871D02*
D03*
X4400Y-13730D02*
D03*
X48490Y-26780D02*
D03*
X37160Y-27260D02*
D03*
X36605Y-27265D02*
D03*
X13250Y-12100D02*
D03*
X65060Y-28490D02*
D03*
X28320Y-21290D02*
D03*
X38450Y-26380D02*
D03*
X41720Y-26720D02*
D03*
X42440Y-26740D02*
D03*
X51770Y-23870D02*
D03*
X40097Y-22873D02*
D03*
X47550Y-27030D02*
D03*
X52096Y-25970D02*
D03*
X52050Y-28490D02*
D03*
X62060D02*
D03*
X63130D02*
D03*
X64140D02*
D03*
X41171Y-23191D02*
D03*
X41015Y-21435D02*
D03*
X35160Y-18900D02*
D03*
X40130Y-25140D02*
D03*
X40660Y-25440D02*
D03*
X36920Y-20670D02*
D03*
X37340Y-20010D02*
D03*
X35760Y-20290D02*
D03*
X36190Y-20070D02*
D03*
X35440Y-20590D02*
D03*
X35190Y-20820D02*
D03*
X37630Y-20530D02*
D03*
X34715Y-19590D02*
D03*
X34705Y-18880D02*
D03*
X36680Y-18930D02*
D03*
X38220Y-18940D02*
D03*
X38565Y-18900D02*
D03*
X41580Y-18900D02*
D03*
X39851Y-22479D02*
D03*
X38960Y-20580D02*
D03*
X38280Y-20290D02*
D03*
X36549Y-20673D02*
D03*
X58129Y-23940D02*
D03*
X68640Y-12010D02*
D03*
X65080Y-26270D02*
D03*
X64080D02*
D03*
X63080D02*
D03*
X62080D02*
D03*
D77*
X55344Y-14384D02*
D03*
X57474Y-9364D02*
D03*
X29270Y-13140D02*
D03*
X29614Y-9434D02*
D03*
X35550Y-22890D02*
D03*
X12490Y-25709D02*
D03*
D78*
X84430Y-29930D02*
D03*
X1440Y-29910D02*
D03*
X84210Y-1450D02*
D03*
X1450Y-1680D02*
D03*
M02*
