G04 Layer_Color=16711935*
%FSLAX24Y24*%
%MOIN*%
G70*
G01*
G75*
%ADD10C,0.0100*%
G04:AMPARAMS|DCode=134|XSize=134mil|YSize=63.1mil|CornerRadius=0mil|HoleSize=0mil|Usage=FLASHONLY|Rotation=25.714|XOffset=0mil|YOffset=0mil|HoleType=Round|Shape=Round|*
%AMOVALD134*
21,1,0.0709,0.0631,0.0000,0.0000,25.7*
1,1,0.0631,-0.0319,-0.0154*
1,1,0.0631,0.0319,0.0154*
%
%ADD134OVALD134*%

G04:AMPARAMS|DCode=135|XSize=134mil|YSize=63.1mil|CornerRadius=0mil|HoleSize=0mil|Usage=FLASHONLY|Rotation=51.429|XOffset=0mil|YOffset=0mil|HoleType=Round|Shape=Round|*
%AMOVALD135*
21,1,0.0709,0.0631,0.0000,0.0000,51.4*
1,1,0.0631,-0.0221,-0.0277*
1,1,0.0631,0.0221,0.0277*
%
%ADD135OVALD135*%

G04:AMPARAMS|DCode=136|XSize=134mil|YSize=63.1mil|CornerRadius=0mil|HoleSize=0mil|Usage=FLASHONLY|Rotation=77.143|XOffset=0mil|YOffset=0mil|HoleType=Round|Shape=Round|*
%AMOVALD136*
21,1,0.0709,0.0631,0.0000,0.0000,77.1*
1,1,0.0631,-0.0079,-0.0345*
1,1,0.0631,0.0079,0.0345*
%
%ADD136OVALD136*%

G04:AMPARAMS|DCode=137|XSize=134mil|YSize=63.1mil|CornerRadius=0mil|HoleSize=0mil|Usage=FLASHONLY|Rotation=102.857|XOffset=0mil|YOffset=0mil|HoleType=Round|Shape=Round|*
%AMOVALD137*
21,1,0.0709,0.0631,0.0000,0.0000,102.9*
1,1,0.0631,0.0079,-0.0345*
1,1,0.0631,-0.0079,0.0345*
%
%ADD137OVALD137*%

G04:AMPARAMS|DCode=138|XSize=134mil|YSize=63.1mil|CornerRadius=0mil|HoleSize=0mil|Usage=FLASHONLY|Rotation=128.571|XOffset=0mil|YOffset=0mil|HoleType=Round|Shape=Round|*
%AMOVALD138*
21,1,0.0709,0.0631,0.0000,0.0000,128.6*
1,1,0.0631,0.0221,-0.0277*
1,1,0.0631,-0.0221,0.0277*
%
%ADD138OVALD138*%

G04:AMPARAMS|DCode=139|XSize=134mil|YSize=63.1mil|CornerRadius=0mil|HoleSize=0mil|Usage=FLASHONLY|Rotation=154.286|XOffset=0mil|YOffset=0mil|HoleType=Round|Shape=Round|*
%AMOVALD139*
21,1,0.0709,0.0631,0.0000,0.0000,154.3*
1,1,0.0631,0.0319,-0.0154*
1,1,0.0631,-0.0319,0.0154*
%
%ADD139OVALD139*%

%ADD140O,0.1340X0.0631*%
%ADD141R,0.1340X0.0631*%
%ADD142C,0.0680*%
%ADD143C,0.0700*%
%ADD144C,0.0631*%
%ADD145R,0.0700X0.0700*%
%ADD146O,0.0700X0.0631*%
%ADD147R,0.0700X0.0700*%
%ADD148C,0.0474*%
%ADD149O,0.0907X0.0474*%
%ADD150O,0.0789X0.0474*%
%ADD151C,0.0651*%
%ADD152C,0.0513*%
%ADD153R,0.1655X0.0867*%
%ADD154C,0.0671*%
%ADD155C,0.0277*%
%ADD156C,0.0395*%
%ADD157C,0.2049*%
D10*
X85827Y-31449D02*
Y-2D01*
X85780Y-31496D02*
X85827Y-31449D01*
X0Y-31496D02*
X85780D01*
X0Y-2D02*
X85827D01*
X0Y-31496D02*
Y-2D01*
D134*
X78540Y-12122D02*
D03*
X75397Y-5595D02*
D03*
X66335Y-12122D02*
D03*
X63192Y-5595D02*
D03*
X50587Y-12122D02*
D03*
X47444Y-5595D02*
D03*
X38383Y-12122D02*
D03*
X35239Y-5595D02*
D03*
X22635Y-12122D02*
D03*
X19491Y-5595D02*
D03*
X10430Y-12132D02*
D03*
X7287Y-5605D02*
D03*
D135*
X79800Y-11117D02*
D03*
X74137Y-6600D02*
D03*
X67596Y-11117D02*
D03*
X61932Y-6600D02*
D03*
X51848Y-11117D02*
D03*
X46184Y-6600D02*
D03*
X39643Y-11117D02*
D03*
X33979Y-6600D02*
D03*
X23895Y-11117D02*
D03*
X18231Y-6600D02*
D03*
X11690Y-11127D02*
D03*
X6026Y-6610D02*
D03*
D136*
X80500Y-9664D02*
D03*
X73437Y-8052D02*
D03*
X68295Y-9664D02*
D03*
X61233Y-8052D02*
D03*
X52547Y-9664D02*
D03*
X45485Y-8052D02*
D03*
X40342Y-9664D02*
D03*
X33280Y-8052D02*
D03*
X24594Y-9664D02*
D03*
X17532Y-8052D02*
D03*
X12390Y-9674D02*
D03*
X5327Y-8062D02*
D03*
D137*
X80500Y-8052D02*
D03*
X73437Y-9664D02*
D03*
X68295Y-8052D02*
D03*
X61233Y-9664D02*
D03*
X52547Y-8052D02*
D03*
X45485Y-9664D02*
D03*
X40342Y-8052D02*
D03*
X33280Y-9664D02*
D03*
X24594Y-8052D02*
D03*
X17532Y-9664D02*
D03*
X12390Y-8062D02*
D03*
X5327Y-9674D02*
D03*
D138*
X79800Y-6600D02*
D03*
X74137Y-11117D02*
D03*
X67596Y-6600D02*
D03*
X61932Y-11117D02*
D03*
X51848Y-6600D02*
D03*
X46184Y-11117D02*
D03*
X39643Y-6600D02*
D03*
X33979Y-11117D02*
D03*
X23895Y-6600D02*
D03*
X18231Y-11117D02*
D03*
X11690Y-6610D02*
D03*
X6026Y-11127D02*
D03*
D139*
X78540Y-5595D02*
D03*
X66335D02*
D03*
X50587D02*
D03*
X38383D02*
D03*
X22635D02*
D03*
X10430Y-5605D02*
D03*
D140*
X76968Y-5236D02*
D03*
X64764D02*
D03*
X49016D02*
D03*
X36811D02*
D03*
X21063D02*
D03*
X8858Y-5246D02*
D03*
D141*
X76968Y-12480D02*
D03*
X64764D02*
D03*
X49016D02*
D03*
X36811D02*
D03*
X21063D02*
D03*
X8858Y-12490D02*
D03*
D142*
X57972Y-11102D02*
D03*
X55807D02*
D03*
X30020D02*
D03*
X27854D02*
D03*
X57972Y-6614D02*
D03*
X55807D02*
D03*
X30020D02*
D03*
X27854D02*
D03*
D143*
X62090Y-21240D02*
D03*
X63090D02*
D03*
X65090Y-24240D02*
D03*
X64090D02*
D03*
X63090D02*
D03*
X32145Y-27116D02*
D03*
X33145D02*
D03*
D144*
X64090Y-21240D02*
D03*
X65090D02*
D03*
D145*
X62090Y-24240D02*
D03*
D146*
X31145Y-26116D02*
D03*
X32145D02*
D03*
X33145D02*
D03*
D147*
X31145Y-27116D02*
D03*
D148*
X26260Y-18330D02*
D03*
X12140Y-16110D02*
D03*
X5500Y-17650D02*
D03*
X3530Y-21760D02*
D03*
X3595Y-25225D02*
D03*
X14950Y-21210D02*
D03*
X81359Y-27281D02*
D03*
X81380Y-24460D02*
D03*
X74701Y-16091D02*
D03*
X11481D02*
D03*
D149*
X2490Y-21949D02*
D03*
Y-25351D02*
D03*
D150*
X1033Y-21949D02*
D03*
Y-25351D02*
D03*
D151*
X73500Y-21040D02*
D03*
D152*
Y-23993D02*
D03*
D153*
X1070Y-16960D02*
D03*
Y-18810D02*
D03*
X2960Y-16960D02*
D03*
Y-18810D02*
D03*
X1070Y-20660D02*
D03*
X2960D02*
D03*
D154*
X28942Y-27080D02*
D03*
X26383D02*
D03*
Y-25309D02*
D03*
X28942D02*
D03*
D155*
X37954Y-27280D02*
D03*
X79920Y-23790D02*
D03*
X77960Y-17504D02*
D03*
X77020D02*
D03*
X74170Y-25905D02*
D03*
X70414Y-18800D02*
D03*
X69670Y-19885D02*
D03*
X68690Y-24314D02*
D03*
X62390Y-18720D02*
D03*
X63087Y-18685D02*
D03*
X64083D02*
D03*
X65080D02*
D03*
X55995Y-13020D02*
D03*
X56065Y-9590D02*
D03*
X28150Y-9680D02*
D03*
X27610Y-12220D02*
D03*
X58936Y-25670D02*
D03*
X52844Y-25970D02*
D03*
X39010Y-25840D02*
D03*
X43290Y-26070D02*
D03*
X42590Y-24609D02*
D03*
X31650Y-19295D02*
D03*
X31340Y-22159D02*
D03*
X30605Y-24290D02*
D03*
X29290Y-26535D02*
D03*
X27280Y-20313D02*
D03*
X26670Y-23805D02*
D03*
X24190Y-25735D02*
D03*
X20175Y-22500D02*
D03*
X18755Y-24170D02*
D03*
X17570Y-23924D02*
D03*
X15610Y-26439D02*
D03*
X12480Y-23475D02*
D03*
X10720Y-24850D02*
D03*
X7964D02*
D03*
X5960Y-27490D02*
D03*
X1977Y-22567D02*
D03*
Y-24733D02*
D03*
X4500Y-21940D02*
D03*
X9100Y-20720D02*
D03*
X10350Y-18179D02*
D03*
X6440Y-14560D02*
D03*
X5500Y-14871D02*
D03*
X4400Y-13730D02*
D03*
X48490Y-26780D02*
D03*
X37160Y-27260D02*
D03*
X36605Y-27265D02*
D03*
X13250Y-12100D02*
D03*
X65060Y-28490D02*
D03*
X28320Y-21290D02*
D03*
X38450Y-26380D02*
D03*
X41720Y-26720D02*
D03*
X42440Y-26740D02*
D03*
X51770Y-23870D02*
D03*
X40097Y-22873D02*
D03*
X47550Y-27030D02*
D03*
X52096Y-25970D02*
D03*
X52050Y-28490D02*
D03*
X62060D02*
D03*
X63130D02*
D03*
X64140D02*
D03*
X41171Y-23191D02*
D03*
X41015Y-21435D02*
D03*
X35160Y-18900D02*
D03*
X40130Y-25140D02*
D03*
X40660Y-25440D02*
D03*
X36920Y-20670D02*
D03*
X37340Y-20010D02*
D03*
X35760Y-20290D02*
D03*
X36190Y-20070D02*
D03*
X35440Y-20590D02*
D03*
X35190Y-20820D02*
D03*
X37630Y-20530D02*
D03*
X34715Y-19590D02*
D03*
X34705Y-18880D02*
D03*
X36680Y-18930D02*
D03*
X38220Y-18940D02*
D03*
X38565Y-18900D02*
D03*
X41580Y-18900D02*
D03*
X39851Y-22479D02*
D03*
X38960Y-20580D02*
D03*
X38280Y-20290D02*
D03*
X36549Y-20673D02*
D03*
X58129Y-23940D02*
D03*
X68640Y-12010D02*
D03*
X65080Y-26270D02*
D03*
X64080D02*
D03*
X63080D02*
D03*
X62080D02*
D03*
D156*
X55344Y-14384D02*
D03*
X57474Y-9364D02*
D03*
X29270Y-13140D02*
D03*
X29614Y-9434D02*
D03*
X35550Y-22890D02*
D03*
X12490Y-25709D02*
D03*
D157*
X84430Y-29930D02*
D03*
X1440Y-29910D02*
D03*
X84210Y-1450D02*
D03*
X1450Y-1680D02*
D03*
M02*
