G04 Layer_Color=8421504*
%FSLAX24Y24*%
%MOIN*%
G70*
G01*
G75*
%ADD10C,0.0100*%
%ADD11R,0.0512X0.1496*%
%ADD12O,0.0512X0.1496*%
%ADD13R,0.0350X0.0500*%
%ADD14R,0.0500X0.0350*%
%ADD15R,0.0400X0.0500*%
%ADD16R,0.0400X0.0400*%
%ADD17R,0.0787X0.0472*%
%ADD18R,0.0472X0.0945*%
%ADD19R,0.0433X0.0551*%
%ADD20R,0.0551X0.0433*%
%ADD21R,0.0472X0.0472*%
%ADD22O,0.0236X0.0866*%
%ADD23R,0.0866X0.0689*%
%ADD24R,0.0118X0.1181*%
%ADD25R,0.1181X0.0118*%
%ADD26R,0.0900X0.0750*%
G04:AMPARAMS|DCode=27|XSize=60mil|YSize=50mil|CornerRadius=0mil|HoleSize=0mil|Usage=FLASHONLY|Rotation=180.000|XOffset=0mil|YOffset=0mil|HoleType=Round|Shape=Octagon|*
%AMOCTAGOND27*
4,1,8,-0.0300,0.0125,-0.0300,-0.0125,-0.0175,-0.0250,0.0175,-0.0250,0.0300,-0.0125,0.0300,0.0125,0.0175,0.0250,-0.0175,0.0250,-0.0300,0.0125,0.0*
%
%ADD27OCTAGOND27*%

%ADD28R,0.0600X0.0500*%
%ADD29R,0.0787X0.1968*%
%ADD30O,0.0315X0.0709*%
%ADD31R,0.0315X0.0709*%
%ADD32O,0.0866X0.0236*%
%ADD33R,0.0709X0.0315*%
%ADD34R,0.0500X0.0600*%
G04:AMPARAMS|DCode=35|XSize=60mil|YSize=50mil|CornerRadius=0mil|HoleSize=0mil|Usage=FLASHONLY|Rotation=270.000|XOffset=0mil|YOffset=0mil|HoleType=Round|Shape=Octagon|*
%AMOCTAGOND35*
4,1,8,-0.0125,-0.0300,0.0125,-0.0300,0.0250,-0.0175,0.0250,0.0175,0.0125,0.0300,-0.0125,0.0300,-0.0250,0.0175,-0.0250,-0.0175,-0.0125,-0.0300,0.0*
%
%ADD35OCTAGOND35*%

%ADD36R,0.0866X0.1378*%
%ADD37R,0.0866X0.0433*%
%ADD38R,0.0866X0.0433*%
%ADD39R,0.0500X0.0650*%
%ADD40R,0.0500X0.0500*%
%ADD41R,0.0472X0.0354*%
%ADD42R,0.0472X0.0315*%
%ADD43R,0.0472X0.0276*%
G04:AMPARAMS|DCode=44|XSize=21.7mil|YSize=74mil|CornerRadius=2.7mil|HoleSize=0mil|Usage=FLASHONLY|Rotation=270.000|XOffset=0mil|YOffset=0mil|HoleType=Round|Shape=RoundedRectangle|*
%AMROUNDEDRECTD44*
21,1,0.0217,0.0686,0,0,270.0*
21,1,0.0162,0.0740,0,0,270.0*
1,1,0.0054,-0.0343,-0.0081*
1,1,0.0054,-0.0343,0.0081*
1,1,0.0054,0.0343,0.0081*
1,1,0.0054,0.0343,-0.0081*
%
%ADD44ROUNDEDRECTD44*%
G04:AMPARAMS|DCode=45|XSize=21.7mil|YSize=74mil|CornerRadius=2.7mil|HoleSize=0mil|Usage=FLASHONLY|Rotation=0.000|XOffset=0mil|YOffset=0mil|HoleType=Round|Shape=RoundedRectangle|*
%AMROUNDEDRECTD45*
21,1,0.0217,0.0686,0,0,0.0*
21,1,0.0162,0.0740,0,0,0.0*
1,1,0.0054,0.0081,-0.0343*
1,1,0.0054,-0.0081,-0.0343*
1,1,0.0054,-0.0081,0.0343*
1,1,0.0054,0.0081,0.0343*
%
%ADD45ROUNDEDRECTD45*%
%ADD46R,0.0500X0.0400*%
%ADD47R,0.0400X0.0400*%
%ADD48R,0.0984X0.1575*%
%ADD49R,0.0600X0.1100*%
%ADD50R,0.2300X0.2450*%
%ADD51R,0.1181X0.1968*%
%ADD52R,0.0550X0.0500*%
G04:AMPARAMS|DCode=53|XSize=55mil|YSize=50mil|CornerRadius=0mil|HoleSize=0mil|Usage=FLASHONLY|Rotation=0.000|XOffset=0mil|YOffset=0mil|HoleType=Round|Shape=Octagon|*
%AMOCTAGOND53*
4,1,8,0.0275,-0.0125,0.0275,0.0125,0.0150,0.0250,-0.0150,0.0250,-0.0275,0.0125,-0.0275,-0.0125,-0.0150,-0.0250,0.0150,-0.0250,0.0275,-0.0125,0.0*
%
%ADD53OCTAGOND53*%

G36*
X2883Y-24406D02*
X2411D01*
Y-24091D01*
X2883D01*
Y-24406D01*
D02*
G37*
G36*
Y-23985D02*
X2411D01*
Y-23709D01*
X2883D01*
Y-23985D01*
D02*
G37*
G36*
X2883Y-24910D02*
X2411D01*
Y-24556D01*
X2883D01*
Y-24910D01*
D02*
G37*
G36*
X1200Y-25154D02*
X1210Y-25155D01*
X1220Y-25156D01*
X1229Y-25158D01*
X1239Y-25160D01*
X1248Y-25163D01*
X1258Y-25166D01*
X1267Y-25169D01*
X1276Y-25173D01*
X1285Y-25178D01*
X1293Y-25183D01*
X1301Y-25188D01*
X1309Y-25194D01*
X1317Y-25200D01*
X1324Y-25206D01*
X1331Y-25213D01*
X1338Y-25221D01*
X1344Y-25228D01*
X1350Y-25236D01*
X1356Y-25244D01*
X1361Y-25252D01*
X1366Y-25261D01*
X1370Y-25270D01*
X1374Y-25279D01*
X1377Y-25288D01*
X1380Y-25297D01*
X1382Y-25307D01*
X1384Y-25317D01*
X1386Y-25326D01*
X1387Y-25336D01*
X1387Y-25346D01*
Y-25356D01*
X1387Y-25365D01*
X1386Y-25375D01*
X1384Y-25385D01*
X1382Y-25395D01*
X1380Y-25404D01*
X1377Y-25413D01*
X1374Y-25423D01*
X1370Y-25432D01*
X1366Y-25441D01*
X1361Y-25449D01*
X1356Y-25458D01*
X1350Y-25466D01*
X1344Y-25473D01*
X1338Y-25481D01*
X1331Y-25488D01*
X1324Y-25495D01*
X1317Y-25502D01*
X1309Y-25508D01*
X1301Y-25513D01*
X1293Y-25519D01*
X1285Y-25524D01*
X1276Y-25528D01*
X1267Y-25532D01*
X1258Y-25536D01*
X1248Y-25539D01*
X1239Y-25542D01*
X1229Y-25544D01*
X1220Y-25545D01*
X1210Y-25547D01*
X1200Y-25547D01*
X1190Y-25548D01*
X875D01*
X866Y-25547D01*
X856Y-25547D01*
X846Y-25545D01*
X836Y-25544D01*
X827Y-25542D01*
X817Y-25539D01*
X808Y-25536D01*
X799Y-25532D01*
X790Y-25528D01*
X781Y-25524D01*
X773Y-25519D01*
X765Y-25513D01*
X757Y-25508D01*
X749Y-25502D01*
X742Y-25495D01*
X734Y-25488D01*
X728Y-25481D01*
X722Y-25473D01*
X716Y-25466D01*
X710Y-25458D01*
X705Y-25449D01*
X700Y-25441D01*
X696Y-25432D01*
X692Y-25423D01*
X689Y-25413D01*
X686Y-25404D01*
X684Y-25395D01*
X682Y-25385D01*
X680Y-25375D01*
X679Y-25365D01*
X679Y-25356D01*
Y-25346D01*
X679Y-25336D01*
X680Y-25326D01*
X682Y-25317D01*
X684Y-25307D01*
X686Y-25297D01*
X689Y-25288D01*
X692Y-25279D01*
X696Y-25270D01*
X700Y-25261D01*
X705Y-25252D01*
X710Y-25244D01*
X716Y-25236D01*
X722Y-25228D01*
X728Y-25221D01*
X734Y-25213D01*
X742Y-25206D01*
X749Y-25200D01*
X757Y-25194D01*
X765Y-25188D01*
X773Y-25183D01*
X781Y-25178D01*
X790Y-25173D01*
X799Y-25169D01*
X808Y-25166D01*
X817Y-25163D01*
X827Y-25160D01*
X836Y-25158D01*
X846Y-25156D01*
X856Y-25155D01*
X866Y-25154D01*
X875Y-25154D01*
X1190D01*
X1200Y-25154D01*
D02*
G37*
G36*
X2716Y-25154D02*
X2726Y-25155D01*
X2735Y-25156D01*
X2745Y-25158D01*
X2755Y-25160D01*
X2764Y-25163D01*
X2773Y-25166D01*
X2783Y-25169D01*
X2792Y-25173D01*
X2800Y-25178D01*
X2809Y-25183D01*
X2817Y-25188D01*
X2825Y-25194D01*
X2833Y-25200D01*
X2840Y-25206D01*
X2847Y-25213D01*
X2854Y-25220D01*
X2860Y-25228D01*
X2866Y-25236D01*
X2871Y-25244D01*
X2877Y-25252D01*
X2881Y-25261D01*
X2886Y-25270D01*
X2889Y-25279D01*
X2893Y-25288D01*
X2896Y-25297D01*
X2898Y-25307D01*
X2900Y-25317D01*
X2901Y-25326D01*
X2902Y-25336D01*
X2903Y-25346D01*
Y-25356D01*
X2902Y-25365D01*
X2901Y-25375D01*
X2900Y-25385D01*
X2898Y-25395D01*
X2896Y-25404D01*
X2893Y-25413D01*
X2889Y-25423D01*
X2886Y-25432D01*
X2881Y-25441D01*
X2877Y-25449D01*
X2871Y-25458D01*
X2866Y-25466D01*
X2860Y-25473D01*
X2854Y-25481D01*
X2847Y-25488D01*
X2840Y-25495D01*
X2833Y-25502D01*
X2825Y-25508D01*
X2817Y-25513D01*
X2809Y-25519D01*
X2800Y-25524D01*
X2792Y-25528D01*
X2783Y-25532D01*
X2773Y-25536D01*
X2764Y-25539D01*
X2755Y-25542D01*
X2745Y-25544D01*
X2735Y-25545D01*
X2726Y-25547D01*
X2716Y-25547D01*
X2706Y-25548D01*
X2273D01*
X2263Y-25547D01*
X2253Y-25547D01*
X2244Y-25545D01*
X2234Y-25544D01*
X2224Y-25542D01*
X2215Y-25539D01*
X2206Y-25536D01*
X2197Y-25532D01*
X2188Y-25528D01*
X2179Y-25524D01*
X2170Y-25519D01*
X2162Y-25513D01*
X2154Y-25508D01*
X2147Y-25502D01*
X2139Y-25495D01*
X2132Y-25488D01*
X2125Y-25481D01*
X2119Y-25473D01*
X2113Y-25466D01*
X2108Y-25458D01*
X2103Y-25449D01*
X2098Y-25441D01*
X2094Y-25432D01*
X2090Y-25423D01*
X2086Y-25413D01*
X2084Y-25404D01*
X2081Y-25395D01*
X2079Y-25385D01*
X2078Y-25375D01*
X2077Y-25365D01*
X2076Y-25356D01*
Y-25346D01*
X2077Y-25336D01*
X2078Y-25326D01*
X2079Y-25317D01*
X2081Y-25307D01*
X2084Y-25297D01*
X2086Y-25288D01*
X2090Y-25279D01*
X2094Y-25270D01*
X2098Y-25261D01*
X2103Y-25252D01*
X2108Y-25244D01*
X2113Y-25236D01*
X2119Y-25228D01*
X2125Y-25220D01*
X2132Y-25213D01*
X2139Y-25206D01*
X2147Y-25200D01*
X2154Y-25194D01*
X2162Y-25188D01*
X2170Y-25183D01*
X2179Y-25178D01*
X2188Y-25173D01*
X2197Y-25169D01*
X2206Y-25166D01*
X2215Y-25163D01*
X2224Y-25160D01*
X2234Y-25158D01*
X2244Y-25156D01*
X2253Y-25155D01*
X2263Y-25154D01*
X2273Y-25154D01*
X2706D01*
X2716Y-25154D01*
D02*
G37*
G36*
X1200Y-21753D02*
X1210Y-21753D01*
X1220Y-21755D01*
X1229Y-21756D01*
X1239Y-21758D01*
X1248Y-21761D01*
X1258Y-21764D01*
X1267Y-21768D01*
X1276Y-21772D01*
X1285Y-21776D01*
X1293Y-21781D01*
X1301Y-21787D01*
X1309Y-21792D01*
X1317Y-21798D01*
X1324Y-21805D01*
X1331Y-21812D01*
X1338Y-21819D01*
X1344Y-21827D01*
X1350Y-21834D01*
X1356Y-21842D01*
X1361Y-21851D01*
X1366Y-21859D01*
X1370Y-21868D01*
X1374Y-21877D01*
X1377Y-21887D01*
X1380Y-21896D01*
X1382Y-21905D01*
X1384Y-21915D01*
X1386Y-21925D01*
X1387Y-21935D01*
X1387Y-21944D01*
Y-21954D01*
X1387Y-21964D01*
X1386Y-21974D01*
X1384Y-21983D01*
X1382Y-21993D01*
X1380Y-22003D01*
X1377Y-22012D01*
X1374Y-22021D01*
X1370Y-22030D01*
X1366Y-22039D01*
X1361Y-22048D01*
X1356Y-22056D01*
X1350Y-22064D01*
X1344Y-22072D01*
X1338Y-22080D01*
X1331Y-22087D01*
X1324Y-22094D01*
X1317Y-22100D01*
X1309Y-22106D01*
X1301Y-22112D01*
X1293Y-22117D01*
X1285Y-22122D01*
X1276Y-22127D01*
X1267Y-22131D01*
X1258Y-22134D01*
X1248Y-22137D01*
X1239Y-22140D01*
X1229Y-22142D01*
X1220Y-22144D01*
X1210Y-22145D01*
X1200Y-22146D01*
X1190Y-22146D01*
X875D01*
X866Y-22146D01*
X856Y-22145D01*
X846Y-22144D01*
X836Y-22142D01*
X827Y-22140D01*
X817Y-22137D01*
X808Y-22134D01*
X799Y-22131D01*
X790Y-22127D01*
X781Y-22122D01*
X773Y-22117D01*
X765Y-22112D01*
X757Y-22106D01*
X749Y-22100D01*
X742Y-22094D01*
X734Y-22087D01*
X728Y-22080D01*
X722Y-22072D01*
X716Y-22064D01*
X710Y-22056D01*
X705Y-22048D01*
X700Y-22039D01*
X696Y-22030D01*
X692Y-22021D01*
X689Y-22012D01*
X686Y-22003D01*
X684Y-21993D01*
X682Y-21983D01*
X680Y-21974D01*
X679Y-21964D01*
X679Y-21954D01*
Y-21944D01*
X679Y-21935D01*
X680Y-21925D01*
X682Y-21915D01*
X684Y-21905D01*
X686Y-21896D01*
X689Y-21887D01*
X692Y-21877D01*
X696Y-21868D01*
X700Y-21859D01*
X705Y-21851D01*
X710Y-21842D01*
X716Y-21834D01*
X722Y-21827D01*
X728Y-21819D01*
X734Y-21812D01*
X742Y-21805D01*
X749Y-21798D01*
X757Y-21792D01*
X765Y-21787D01*
X773Y-21781D01*
X781Y-21776D01*
X790Y-21772D01*
X799Y-21768D01*
X808Y-21764D01*
X817Y-21761D01*
X827Y-21758D01*
X836Y-21756D01*
X846Y-21755D01*
X856Y-21753D01*
X866Y-21753D01*
X875Y-21752D01*
X1190D01*
X1200Y-21753D01*
D02*
G37*
G36*
X2716D02*
X2726Y-21753D01*
X2735Y-21755D01*
X2745Y-21756D01*
X2755Y-21758D01*
X2764Y-21761D01*
X2773Y-21764D01*
X2783Y-21768D01*
X2792Y-21772D01*
X2800Y-21776D01*
X2809Y-21781D01*
X2817Y-21787D01*
X2825Y-21792D01*
X2833Y-21798D01*
X2840Y-21805D01*
X2847Y-21812D01*
X2854Y-21819D01*
X2860Y-21827D01*
X2866Y-21834D01*
X2871Y-21842D01*
X2877Y-21851D01*
X2881Y-21859D01*
X2886Y-21868D01*
X2889Y-21877D01*
X2893Y-21887D01*
X2896Y-21896D01*
X2898Y-21905D01*
X2900Y-21915D01*
X2901Y-21925D01*
X2902Y-21935D01*
X2903Y-21944D01*
Y-21954D01*
X2902Y-21964D01*
X2901Y-21974D01*
X2900Y-21983D01*
X2898Y-21993D01*
X2896Y-22003D01*
X2893Y-22012D01*
X2889Y-22021D01*
X2886Y-22030D01*
X2881Y-22039D01*
X2877Y-22048D01*
X2871Y-22056D01*
X2866Y-22064D01*
X2860Y-22072D01*
X2854Y-22080D01*
X2847Y-22087D01*
X2840Y-22094D01*
X2833Y-22100D01*
X2825Y-22106D01*
X2817Y-22112D01*
X2809Y-22117D01*
X2800Y-22122D01*
X2792Y-22127D01*
X2783Y-22131D01*
X2773Y-22134D01*
X2764Y-22137D01*
X2755Y-22140D01*
X2745Y-22142D01*
X2735Y-22144D01*
X2726Y-22145D01*
X2716Y-22146D01*
X2706Y-22146D01*
X2273D01*
X2263Y-22146D01*
X2253Y-22145D01*
X2244Y-22144D01*
X2234Y-22142D01*
X2224Y-22140D01*
X2215Y-22137D01*
X2206Y-22134D01*
X2197Y-22131D01*
X2188Y-22127D01*
X2179Y-22122D01*
X2170Y-22117D01*
X2162Y-22112D01*
X2154Y-22106D01*
X2147Y-22100D01*
X2139Y-22094D01*
X2132Y-22087D01*
X2125Y-22080D01*
X2119Y-22072D01*
X2113Y-22064D01*
X2108Y-22056D01*
X2103Y-22048D01*
X2098Y-22039D01*
X2094Y-22030D01*
X2090Y-22021D01*
X2086Y-22012D01*
X2084Y-22003D01*
X2081Y-21993D01*
X2079Y-21983D01*
X2078Y-21974D01*
X2077Y-21964D01*
X2076Y-21954D01*
Y-21944D01*
X2077Y-21935D01*
X2078Y-21925D01*
X2079Y-21915D01*
X2081Y-21905D01*
X2084Y-21896D01*
X2086Y-21887D01*
X2090Y-21877D01*
X2094Y-21868D01*
X2098Y-21859D01*
X2103Y-21851D01*
X2108Y-21842D01*
X2113Y-21834D01*
X2119Y-21827D01*
X2125Y-21819D01*
X2132Y-21812D01*
X2139Y-21805D01*
X2147Y-21798D01*
X2154Y-21792D01*
X2162Y-21787D01*
X2170Y-21781D01*
X2179Y-21776D01*
X2188Y-21772D01*
X2197Y-21768D01*
X2206Y-21764D01*
X2215Y-21761D01*
X2224Y-21758D01*
X2234Y-21756D01*
X2244Y-21755D01*
X2253Y-21753D01*
X2263Y-21753D01*
X2273Y-21752D01*
X2706D01*
X2716Y-21753D01*
D02*
G37*
G36*
X2883Y-22744D02*
X2411D01*
Y-22390D01*
X2883D01*
Y-22744D01*
D02*
G37*
G36*
Y-23591D02*
X2411D01*
Y-23315D01*
X2883D01*
Y-23591D01*
D02*
G37*
G36*
X2883Y-23209D02*
X2411D01*
Y-22894D01*
X2883D01*
Y-23209D01*
D02*
G37*
D10*
X85827Y-31449D02*
Y-2D01*
X85780Y-31496D02*
X85827Y-31449D01*
X0Y-31496D02*
X85780D01*
X0Y-2D02*
X85827D01*
X0Y-31496D02*
Y-2D01*
D11*
X14940Y-22501D02*
D03*
D12*
Y-26439D02*
D03*
D13*
X55344Y-13730D02*
D03*
X54596D02*
D03*
X57474Y-8770D02*
D03*
X56726D02*
D03*
X28754Y-13140D02*
D03*
X28006D02*
D03*
X29614Y-8890D02*
D03*
X28866D02*
D03*
X52844Y-25970D02*
D03*
X52096D02*
D03*
X8614Y-22490D02*
D03*
X7866D02*
D03*
X69744Y-18800D02*
D03*
X68996D02*
D03*
D14*
X58300Y-8346D02*
D03*
Y-9094D02*
D03*
X30380Y-8206D02*
D03*
Y-8954D02*
D03*
X42910Y-4614D02*
D03*
Y-3866D02*
D03*
X54690Y-4564D02*
D03*
Y-3816D02*
D03*
X58910Y-3846D02*
D03*
Y-4594D02*
D03*
X70930Y-4574D02*
D03*
Y-3826D02*
D03*
X82780Y-4574D02*
D03*
Y-3826D02*
D03*
X77020Y-16086D02*
D03*
Y-16834D02*
D03*
X77960Y-16086D02*
D03*
Y-16834D02*
D03*
X68020Y-24314D02*
D03*
Y-23566D02*
D03*
X26840Y-22690D02*
D03*
Y-21942D02*
D03*
X21940Y-22746D02*
D03*
Y-23494D02*
D03*
X17570Y-22506D02*
D03*
Y-23254D02*
D03*
X11810Y-25688D02*
D03*
Y-24940D02*
D03*
X9100Y-17376D02*
D03*
Y-18124D02*
D03*
X4390Y-16974D02*
D03*
Y-16226D02*
D03*
X4960Y-25276D02*
D03*
Y-26024D02*
D03*
X30890Y-3816D02*
D03*
Y-4564D02*
D03*
X15170Y-4570D02*
D03*
Y-3822D02*
D03*
X26490Y-4574D02*
D03*
Y-3826D02*
D03*
D15*
X55685Y-8310D02*
D03*
X27800Y-8420D02*
D03*
X54945Y-12220D02*
D03*
X26915Y-12260D02*
D03*
D16*
X55315Y-9110D02*
D03*
X56065D02*
D03*
X28180Y-9220D02*
D03*
X27430D02*
D03*
X54575Y-13020D02*
D03*
X55325D02*
D03*
X26545Y-13060D02*
D03*
X27295D02*
D03*
D17*
X78999Y-17511D02*
D03*
Y-18299D02*
D03*
Y-19086D02*
D03*
Y-19873D02*
D03*
Y-20661D02*
D03*
Y-21448D02*
D03*
D18*
X85220Y-16330D02*
D03*
X84432D02*
D03*
X83645D02*
D03*
X82857D02*
D03*
X82070D02*
D03*
X81283D02*
D03*
X80495D02*
D03*
X79708D02*
D03*
X85220Y-22550D02*
D03*
X84432D02*
D03*
X83645D02*
D03*
X82857D02*
D03*
X82070D02*
D03*
X80495D02*
D03*
X79708D02*
D03*
X81283D02*
D03*
D19*
X84155Y-24140D02*
D03*
X83565D02*
D03*
X79920Y-23790D02*
D03*
X80511D02*
D03*
X33659Y-18860D02*
D03*
X34250D02*
D03*
X33649Y-19590D02*
D03*
X34240D02*
D03*
X40795Y-26890D02*
D03*
X40205D02*
D03*
X31865Y-24290D02*
D03*
X31275D02*
D03*
X32765Y-25130D02*
D03*
X32175D02*
D03*
X40495Y-18900D02*
D03*
X41085D02*
D03*
X39585Y-18900D02*
D03*
X38995D02*
D03*
X33975Y-21770D02*
D03*
X34565D02*
D03*
X57119Y-23940D02*
D03*
X57710D02*
D03*
X35640Y-18900D02*
D03*
X36231D02*
D03*
X37735Y-18930D02*
D03*
X37145D02*
D03*
D20*
X82040Y-26690D02*
D03*
Y-27281D02*
D03*
X82090Y-24125D02*
D03*
Y-23535D02*
D03*
X85220Y-15255D02*
D03*
Y-14665D02*
D03*
X83660Y-15245D02*
D03*
Y-14655D02*
D03*
X68810Y-22955D02*
D03*
Y-23545D02*
D03*
X68250Y-18339D02*
D03*
Y-18930D02*
D03*
X67500Y-18319D02*
D03*
Y-18910D02*
D03*
X65080Y-19355D02*
D03*
Y-19945D02*
D03*
X64083Y-19355D02*
D03*
Y-19945D02*
D03*
X63087Y-19355D02*
D03*
Y-19945D02*
D03*
X62090Y-19355D02*
D03*
Y-19945D02*
D03*
X65080Y-25260D02*
D03*
Y-25851D02*
D03*
X64080Y-25260D02*
D03*
Y-25851D02*
D03*
X63080Y-25260D02*
D03*
Y-25851D02*
D03*
X62080Y-25260D02*
D03*
Y-25851D02*
D03*
X39570Y-21495D02*
D03*
Y-20905D02*
D03*
X40420Y-21435D02*
D03*
Y-22025D02*
D03*
X40100Y-24655D02*
D03*
Y-24065D02*
D03*
X40830Y-24645D02*
D03*
Y-24055D02*
D03*
X42440Y-26255D02*
D03*
Y-25665D02*
D03*
X41720Y-26255D02*
D03*
Y-25665D02*
D03*
X24860Y-25145D02*
D03*
Y-25735D02*
D03*
X25920Y-22001D02*
D03*
Y-22591D02*
D03*
X26000Y-23215D02*
D03*
Y-23805D02*
D03*
X30980Y-19885D02*
D03*
Y-19295D02*
D03*
X33110Y-23115D02*
D03*
Y-22525D02*
D03*
X32370Y-23105D02*
D03*
Y-22515D02*
D03*
X32560Y-24305D02*
D03*
Y-23715D02*
D03*
X29970Y-25305D02*
D03*
Y-25895D02*
D03*
X29960Y-26535D02*
D03*
Y-27125D02*
D03*
D21*
X83530Y-25950D02*
D03*
X82030D02*
D03*
Y-24960D02*
D03*
X83530D02*
D03*
D22*
X69000Y-19885D02*
D03*
X68500D02*
D03*
X68000D02*
D03*
X67500D02*
D03*
X69000Y-21975D02*
D03*
X68500D02*
D03*
X68000D02*
D03*
X67500D02*
D03*
D23*
X57124Y-25000D02*
D03*
X58936D02*
D03*
D24*
X35201Y-21731D02*
D03*
X35398D02*
D03*
X35595D02*
D03*
X35792D02*
D03*
X35989D02*
D03*
X36186D02*
D03*
X36383D02*
D03*
X36579D02*
D03*
X36776D02*
D03*
X36973D02*
D03*
X37170D02*
D03*
X37367D02*
D03*
X37564D02*
D03*
X37761D02*
D03*
X37957D02*
D03*
X38154D02*
D03*
Y-26180D02*
D03*
X37957D02*
D03*
X37761D02*
D03*
X37564D02*
D03*
X37367D02*
D03*
X37170D02*
D03*
X36973D02*
D03*
X36776D02*
D03*
X36579D02*
D03*
X36383D02*
D03*
X36186D02*
D03*
X35989D02*
D03*
X35792D02*
D03*
X35595D02*
D03*
X35398D02*
D03*
X35201D02*
D03*
D25*
X38902Y-22479D02*
D03*
Y-22676D02*
D03*
Y-22873D02*
D03*
Y-23070D02*
D03*
Y-23267D02*
D03*
Y-23463D02*
D03*
Y-23660D02*
D03*
Y-23857D02*
D03*
Y-24054D02*
D03*
Y-24251D02*
D03*
Y-24448D02*
D03*
Y-24645D02*
D03*
Y-24841D02*
D03*
Y-25038D02*
D03*
Y-25235D02*
D03*
Y-25432D02*
D03*
X34453D02*
D03*
Y-25235D02*
D03*
Y-25038D02*
D03*
Y-24841D02*
D03*
Y-24645D02*
D03*
Y-24448D02*
D03*
Y-24251D02*
D03*
Y-24054D02*
D03*
Y-23857D02*
D03*
Y-23660D02*
D03*
Y-23463D02*
D03*
Y-23267D02*
D03*
Y-23070D02*
D03*
Y-22873D02*
D03*
Y-22676D02*
D03*
Y-22479D02*
D03*
D26*
X41920Y-23191D02*
D03*
Y-24609D02*
D03*
X31340Y-21411D02*
D03*
Y-22829D02*
D03*
X10350Y-16091D02*
D03*
Y-17509D02*
D03*
X5500Y-16959D02*
D03*
Y-15541D02*
D03*
D27*
X39750Y-26080D02*
D03*
X5960Y-26820D02*
D03*
D28*
X40750Y-26080D02*
D03*
X4960Y-26820D02*
D03*
D29*
X29551Y-23725D02*
D03*
Y-20182D02*
D03*
D30*
X27280Y-20983D02*
D03*
D31*
Y-18897D02*
D03*
D32*
X20845Y-23500D02*
D03*
Y-23000D02*
D03*
Y-22500D02*
D03*
Y-22000D02*
D03*
X18755Y-23500D02*
D03*
Y-23000D02*
D03*
Y-22500D02*
D03*
Y-22000D02*
D03*
D33*
X7294Y-23850D02*
D03*
Y-24850D02*
D03*
Y-25850D02*
D03*
Y-26850D02*
D03*
X10050Y-23850D02*
D03*
Y-24850D02*
D03*
Y-25850D02*
D03*
Y-26850D02*
D03*
D34*
X9100Y-19050D02*
D03*
X4400Y-15400D02*
D03*
D35*
X9100Y-20050D02*
D03*
X4400Y-14400D02*
D03*
D36*
X9120Y-16100D02*
D03*
D37*
X6680Y-17006D02*
D03*
X6680Y-15194D02*
D03*
D38*
X6680Y-16100D02*
D03*
D39*
X4945Y-24410D02*
D03*
X3595D02*
D03*
D40*
X4500Y-23460D02*
D03*
X3600D02*
D03*
Y-22610D02*
D03*
X4500D02*
D03*
D41*
X2647Y-24733D02*
D03*
Y-22567D02*
D03*
D42*
Y-24248D02*
D03*
Y-23052D02*
D03*
D43*
Y-23847D02*
D03*
Y-23453D02*
D03*
D44*
X49197Y-16868D02*
D03*
Y-17183D02*
D03*
Y-17498D02*
D03*
Y-17813D02*
D03*
Y-18128D02*
D03*
Y-18443D02*
D03*
Y-18758D02*
D03*
Y-19073D02*
D03*
Y-19388D02*
D03*
Y-19703D02*
D03*
Y-20018D02*
D03*
Y-20333D02*
D03*
Y-20647D02*
D03*
Y-20962D02*
D03*
Y-21277D02*
D03*
Y-21592D02*
D03*
Y-21907D02*
D03*
Y-22222D02*
D03*
Y-22537D02*
D03*
Y-22852D02*
D03*
Y-23167D02*
D03*
Y-23482D02*
D03*
Y-23797D02*
D03*
Y-24112D02*
D03*
X55883D02*
D03*
Y-23797D02*
D03*
Y-23482D02*
D03*
Y-23167D02*
D03*
Y-22852D02*
D03*
Y-22537D02*
D03*
Y-22222D02*
D03*
Y-21907D02*
D03*
Y-21592D02*
D03*
Y-21277D02*
D03*
Y-20962D02*
D03*
Y-20647D02*
D03*
Y-20333D02*
D03*
Y-20018D02*
D03*
Y-19703D02*
D03*
Y-19388D02*
D03*
Y-19073D02*
D03*
Y-18758D02*
D03*
Y-18443D02*
D03*
Y-18128D02*
D03*
Y-17813D02*
D03*
Y-17498D02*
D03*
Y-17183D02*
D03*
Y-16868D02*
D03*
D45*
X50178Y-25014D02*
D03*
X50493D02*
D03*
X50808D02*
D03*
X51123D02*
D03*
X51438D02*
D03*
X51753D02*
D03*
X52068D02*
D03*
X52383D02*
D03*
X52697D02*
D03*
X53012D02*
D03*
X53327D02*
D03*
X53642D02*
D03*
X53957D02*
D03*
X54272D02*
D03*
X54587D02*
D03*
X54902D02*
D03*
Y-15966D02*
D03*
X54587D02*
D03*
X54272D02*
D03*
X53957D02*
D03*
X53642D02*
D03*
X53327D02*
D03*
X53012D02*
D03*
X52697D02*
D03*
X52383D02*
D03*
X52068D02*
D03*
X51753D02*
D03*
X51438D02*
D03*
X51123D02*
D03*
X50808D02*
D03*
X50493D02*
D03*
X50178D02*
D03*
D46*
X11010Y-23855D02*
D03*
D47*
X11810Y-24225D02*
D03*
Y-23475D02*
D03*
D48*
X73500Y-25905D02*
D03*
Y-18775D02*
D03*
D49*
X23064Y-24171D02*
D03*
X24844Y-24181D02*
D03*
D50*
X23960Y-21320D02*
D03*
D51*
X17578Y-18870D02*
D03*
X22302D02*
D03*
D52*
X23555Y-18860D02*
D03*
D53*
X24905D02*
D03*
M02*
