M48
;Layer_Color=9474304
;FILE_FORMAT=2:4
INCH,LZ
;TYPE=PLATED
T4F00S00C0.0236
T6F00S00C0.0315
%
G90
G05
T04
G00X000875Y-025351
M15
G01X00119
M16
G00X002273Y-025351
M15
G01X002706
M16
G00X002273Y-021949
M15
G01X002706
M16
G00X000875Y-021949
M15
G01X00119
M16
T06
G00X068203Y-010067
M15
G01X068387Y-009261
M16
G00X073529Y-010067
M15
G01X073345Y-009261
M16
G00X074394Y-01144
M15
G01X073879Y-010793
M16
G00X076555Y-01248
M15
G01X077382
M16
G00X078168Y-012301
M15
G01X078913Y-011942
M16
G00X079543Y-01144
M15
G01X080058Y-010793
M16
G00X080408Y-010067
M15
G01X080592Y-009261
M16
G00X067338Y-01144
M15
G01X067853Y-010793
M16
G00X065963Y-012301
M15
G01X066708Y-011942
M16
G00X06435Y-01248
M15
G01X065177
M16
G00X06219Y-01144
M15
G01X061674Y-010793
M16
G00X061325Y-010067
M15
G01X061141Y-009261
M16
G00X052455Y-010067
M15
G01X052639Y-009261
M16
G00X05159Y-01144
M15
G01X052105Y-010793
M16
G00X050215Y-012301
M15
G01X05096Y-011942
M16
G00X048602Y-01248
M15
G01X049429
M16
G00X046442Y-01144
M15
G01X045926Y-010793
M16
G00X045577Y-010067
M15
G01X045393Y-009261
M16
G00X04025Y-010067
M15
G01X040434Y-009261
M16
G00X039385Y-01144
M15
G01X039901Y-010793
M16
G00X03801Y-012301
M15
G01X038755Y-011942
M16
G00X036398Y-01248
M15
G01X037224
M16
G00X034237Y-01144
M15
G01X033721Y-010793
M16
G00X033372Y-010067
M15
G01X033188Y-009261
M16
G00X024502Y-010067
M15
G01X024686Y-009261
M16
G00X023637Y-01144
M15
G01X024153Y-010793
M16
G00X022262Y-012301
M15
G01X023007Y-011942
M16
G00X02065Y-01248
M15
G01X021476
M16
G00X018489Y-01144
M15
G01X017973Y-010793
M16
G00X017624Y-010067
M15
G01X01744Y-009261
M16
G00X012298Y-010077
M15
G01X012481Y-009271
M16
G00X011432Y-01145
M15
G01X011948Y-010803
M16
G00X010057Y-012311
M15
G01X010802Y-011952
M16
G00X008445Y-01249
M15
G01X009272
M16
G00X006284Y-01145
M15
G01X005769Y-010803
M16
G00X005419Y-010077
M15
G01X005235Y-009271
M16
G00X005235Y-008465
M15
G01X005419Y-007659
M16
G00X005769Y-006933
M15
G01X006284Y-006287
M16
G00X006914Y-005784
M15
G01X007659Y-005426
M16
G00X009272Y-005246
M15
G01X008445
M16
G00X010802Y-005784
M15
G01X010057Y-005426
M16
G00X011948Y-006933
M15
G01X011432Y-006287
M16
G00X012504Y-00846
M15
G01X012275Y-007665
M16
G00X01744Y-008455
M15
G01X017624Y-007649
M16
G00X017973Y-006923
M15
G01X018489Y-006277
M16
G00X019119Y-005774
M15
G01X019864Y-005416
M16
G00X021476Y-005236
M15
G01X02065
M16
G00X023007Y-005774
M15
G01X022262Y-005416
M16
G00X024153Y-006923
M15
G01X023637Y-006277
M16
G00X024709Y-00845
M15
G01X02448Y-007655
M16
G00X033188Y-008455
M15
G01X033372Y-007649
M16
G00X033721Y-006923
M15
G01X034237Y-006277
M16
G00X034867Y-005774
M15
G01X035612Y-005416
M16
G00X037224Y-005236
M15
G01X036398
M16
G00X038755Y-005774
M15
G01X03801Y-005416
M16
G00X039901Y-006923
M15
G01X039385Y-006277
M16
G00X040457Y-00845
M15
G01X040228Y-007655
M16
G00X045393Y-008455
M15
G01X045577Y-007649
M16
G00X045926Y-006923
M15
G01X046442Y-006277
M16
G00X047072Y-005774
M15
G01X047817Y-005416
M16
G00X049429Y-005236
M15
G01X048602
M16
G00X05096Y-005774
M15
G01X050215Y-005416
M16
G00X052105Y-006923
M15
G01X05159Y-006277
M16
G00X052661Y-00845
M15
G01X052433Y-007655
M16
G00X061141Y-008455
M15
G01X061325Y-007649
M16
G00X061674Y-006923
M15
G01X06219Y-006277
M16
G00X06282Y-005774
M15
G01X063565Y-005416
M16
G00X065177Y-005236
M15
G01X06435
M16
G00X066708Y-005774
M15
G01X065963Y-005416
M16
G00X067853Y-006923
M15
G01X067338Y-006277
M16
G00X068409Y-00845
M15
G01X068181Y-007655
M16
G00X073345Y-008455
M15
G01X073529Y-007649
M16
G00X073879Y-006923
M15
G01X074394Y-006277
M16
G00X075025Y-005774
M15
G01X075769Y-005416
M16
G00X077382Y-005236
M15
G01X076555
M16
G00X078912Y-005774
M15
G01X078168Y-005416
M16
G00X080058Y-006923
M15
G01X079543Y-006277
M16
G00X080614Y-00845
M15
G01X080385Y-007655
M16
M17
M30
